<svg width="198" height="68" viewBox="0 0 198 68" fill="none" xmlns="http://www.w3.org/2000/svg">
<path d="M157.233 25.8768C157.326 25.787 157.45 25.7368 157.58 25.7368H166.159C166.592 25.7368 166.82 26.2516 166.529 26.5729L161.13 32.5202C161.036 32.6246 160.901 32.6842 160.76 32.6842H151.41C150.96 32.6842 150.739 32.1364 151.063 31.8242L157.233 25.8768Z" fill="black" fill-opacity="0.5"/>
<path d="M141.388 25.298C141.482 25.2082 141.606 25.158 141.735 25.158H150.314C150.748 25.158 150.976 25.6727 150.684 25.994L145.286 31.9414C145.191 32.0458 145.057 32.1053 144.916 32.1053H135.566C135.116 32.1053 134.895 31.5576 135.219 31.2454L141.388 25.298Z" fill="black" fill-opacity="0.5"/>
<path d="M109.37 24.719C109.463 24.6292 109.587 24.579 109.717 24.579H118.296C118.729 24.579 118.957 25.0938 118.666 25.415L113.267 31.3624C113.173 31.4668 113.038 31.5263 112.897 31.5263H103.547C103.097 31.5263 102.876 30.9786 103.2 30.6664L109.37 24.719Z" fill="black" fill-opacity="0.5"/>
<path d="M87.7487 24.14C87.8419 24.0502 87.9663 24 88.0957 24H96.6744C97.1083 24 97.3363 24.5148 97.0447 24.8361L91.6463 30.7834C91.5515 30.8878 91.417 30.9474 91.276 30.9474H81.9261C81.4762 30.9474 81.2552 30.3996 81.5791 30.0874L87.7487 24.14Z" fill="black" fill-opacity="0.5"/>
<path d="M32.8944 28.7796C32.9883 28.6849 33.1161 28.6316 33.2495 28.6316H165.807C166.273 28.6316 166.485 29.2121 166.13 29.5131L146.811 45.8815C146.72 45.958 146.606 46 146.487 46H17.0241C16.5797 46 16.3562 45.4636 16.669 45.148L32.8944 28.7796Z" fill="#7F740C"/>
<rect width="78.0089" height="44.8902" transform="matrix(0.938592 -0.345029 0.425107 0.905143 105.698 26.9153)" fill="url(#paint0_linear_148_7)"/>
<path d="M0 15H148.072V44L145.811 46L0 44V15Z" fill="#9F3737"/>
<rect x="2.2605" y="8" width="11.4445" height="9" rx="2.25" fill="#9F3737"/>
<rect x="23.8782" y="8" width="11.4445" height="9" rx="2.25" fill="#9F3737"/>
<rect x="45.4954" y="8" width="11.4445" height="9" rx="2.25" fill="#9F3737"/>
<rect x="67.1128" y="8" width="11.4445" height="9" rx="2.25" fill="#9F3737"/>
<rect x="88.7302" y="8" width="11.4445" height="9" rx="2.25" fill="#9F3737"/>
<rect x="110.347" y="8" width="11.4445" height="9" rx="2.25" fill="#9F3737"/>
<rect x="131.965" y="8" width="11.4445" height="9" rx="2.25" fill="#9F3737"/>
<rect y="17" width="145.811" height="29" fill="#FF1616"/>
<rect x="2.2605" y="10" width="11.4445" height="9" rx="2.25" fill="#FF1616"/>
<rect x="23.8782" y="10" width="11.4445" height="9" rx="2.25" fill="#FF1616"/>
<rect x="45.4954" y="10" width="11.4445" height="9" rx="2.25" fill="#FF1616"/>
<rect x="67.1128" y="10" width="11.4445" height="9" rx="2.25" fill="#FF1616"/>
<rect x="88.7302" y="10" width="11.4445" height="9" rx="2.25" fill="#FF1616"/>
<rect x="110.347" y="10" width="11.4445" height="9" rx="2.25" fill="#FF1616"/>
<rect x="131.965" y="10" width="11.4445" height="9" rx="2.25" fill="#FF1616"/>
<path d="M51.6553 39H49.0362C48.9603 39 48.9224 38.962 48.9224 38.8861L48.9679 22.8643C48.9679 22.8036 48.9983 22.7732 49.059 22.7732H56.529C56.605 22.7732 56.6429 22.8036 56.6429 22.8643V25.4947C56.6429 25.5555 56.6125 25.5858 56.5518 25.5858H51.7692V29.207H56.5518C56.6125 29.207 56.6429 29.2449 56.6429 29.3209L56.6657 31.9627C56.6657 32.0234 56.6277 32.0538 56.5518 32.0538H51.7692V38.8861C51.7692 38.962 51.7312 39 51.6553 39ZM57.0187 38.8861L59.911 22.8643C59.9262 22.8036 59.9642 22.7732 60.0249 22.7732H63.4069C63.4677 22.7732 63.5056 22.8036 63.5208 22.8643L66.2993 38.8861C66.3069 38.962 66.2765 39 66.2082 39H63.6233C63.5474 39 63.5056 38.962 63.498 38.8861L63.2475 37.178H60.0705L59.8199 38.8861C59.8124 38.962 59.7744 39 59.7061 39H57.1098C57.0491 39 57.0187 38.962 57.0187 38.8861ZM61.585 28.1366L60.5373 34.6842H62.7806L61.8241 28.1366L61.6875 27.2712L61.585 28.1366ZM71.7196 39.2277C70.8921 39.2277 70.1292 39.0152 69.4308 38.5901C68.7399 38.1649 68.1858 37.5994 67.7682 36.8934C67.3583 36.1798 67.1533 35.3978 67.1533 34.5476V33.4772C67.1533 33.3937 67.1913 33.3519 67.2672 33.3519H69.8863C69.947 33.3519 69.9774 33.3937 69.9774 33.4772V34.5476C69.9774 35.0562 70.1482 35.4965 70.4898 35.8685C70.8314 36.2329 71.2413 36.4151 71.7196 36.4151C72.2055 36.4151 72.6192 36.2291 72.9608 35.8571C73.3024 35.4776 73.4732 35.041 73.4732 34.5476C73.4732 33.9782 73.1013 33.481 72.3573 33.0559C72.2358 32.98 72.0764 32.8889 71.879 32.7826C71.6892 32.6687 71.4615 32.5396 71.1958 32.3954C70.9301 32.2512 70.672 32.1107 70.4215 31.9741C70.1709 31.8298 69.928 31.6932 69.6927 31.5641C68.8424 31.0631 68.2085 30.4368 67.791 29.6852C67.3811 28.9261 67.1761 28.0759 67.1761 27.1345C67.1761 26.2691 67.3887 25.4872 67.8138 24.7887C68.2389 24.0979 68.7931 23.5513 69.4763 23.149C70.1671 22.739 70.9149 22.5341 71.7196 22.5341C72.5471 22.5341 73.3062 22.739 73.997 23.149C74.6879 23.5665 75.2383 24.1207 75.6482 24.8115C76.0657 25.5023 76.2745 26.2767 76.2745 27.1345V29.0476C76.2745 29.1083 76.2441 29.1387 76.1834 29.1387H73.5643C73.5036 29.1387 73.4732 29.1083 73.4732 29.0476L73.4505 27.1345C73.4505 26.5879 73.2797 26.1438 72.938 25.8022C72.5964 25.4606 72.1903 25.2898 71.7196 25.2898C71.2413 25.2898 70.8314 25.472 70.4898 25.8364C70.1482 26.2008 69.9774 26.6335 69.9774 27.1345C69.9774 27.6431 70.0836 28.0683 70.2962 28.4099C70.5163 28.7515 70.9149 29.0779 71.4919 29.3892C71.5526 29.4195 71.693 29.4955 71.9132 29.6169C72.1333 29.7384 72.3763 29.875 72.642 30.0269C72.9153 30.1711 73.162 30.304 73.3821 30.4254C73.6023 30.5393 73.7351 30.6076 73.7807 30.6304C74.555 31.0631 75.1661 31.5945 75.614 32.2246C76.0695 32.8547 76.2973 33.629 76.2973 34.5476C76.2973 35.4358 76.0923 36.2329 75.6824 36.9389C75.2648 37.6449 74.7106 38.2029 74.0198 38.6128C73.329 39.0228 72.5623 39.2277 71.7196 39.2277ZM85.5437 39H78.0053C77.9446 39 77.9143 38.962 77.9143 38.8861L77.937 22.8643C77.937 22.8036 77.9674 22.7732 78.0281 22.7732H85.5209C85.5817 22.7732 85.612 22.8112 85.612 22.8871V25.4947C85.612 25.5555 85.5817 25.5858 85.5209 25.5858H80.7383V29.2298H85.5209C85.5817 29.2298 85.612 29.2601 85.612 29.3209L85.6348 31.9627C85.6348 32.0234 85.6044 32.0538 85.5437 32.0538H80.7383V36.1304H85.5437C85.6044 36.1304 85.6348 36.1684 85.6348 36.2443V38.9089C85.6348 38.9696 85.6044 39 85.5437 39ZM91.67 39.2277C90.8426 39.2277 90.0796 39.0152 89.3812 38.5901C88.6904 38.1649 88.1362 37.5994 87.7187 36.8934C87.3087 36.1798 87.1037 35.3978 87.1037 34.5476V33.4772C87.1037 33.3937 87.1417 33.3519 87.2176 33.3519H89.8367C89.8974 33.3519 89.9278 33.3937 89.9278 33.4772V34.5476C89.9278 35.0562 90.0986 35.4965 90.4402 35.8685C90.7818 36.2329 91.1918 36.4151 91.67 36.4151C92.1559 36.4151 92.5696 36.2291 92.9112 35.8571C93.2529 35.4776 93.4237 35.041 93.4237 34.5476C93.4237 33.9782 93.0517 33.481 92.3077 33.0559C92.1862 32.98 92.0268 32.8889 91.8294 32.7826C91.6397 32.6687 91.4119 32.5396 91.1462 32.3954C90.8805 32.2512 90.6224 32.1107 90.3719 31.9741C90.1214 31.8298 89.8784 31.6932 89.6431 31.5641C88.7929 31.0631 88.159 30.4368 87.7414 29.6852C87.3315 28.9261 87.1265 28.0759 87.1265 27.1345C87.1265 26.2691 87.3391 25.4872 87.7642 24.7887C88.1893 24.0979 88.7435 23.5513 89.4267 23.149C90.1176 22.739 90.8653 22.5341 91.67 22.5341C92.4975 22.5341 93.2566 22.739 93.9475 23.149C94.6383 23.5665 95.1887 24.1207 95.5986 24.8115C96.0162 25.5023 96.2249 26.2767 96.2249 27.1345V29.0476C96.2249 29.1083 96.1946 29.1387 96.1338 29.1387H93.5148C93.454 29.1387 93.4237 29.1083 93.4237 29.0476L93.4009 27.1345C93.4009 26.5879 93.2301 26.1438 92.8885 25.8022C92.5468 25.4606 92.1407 25.2898 91.67 25.2898C91.1918 25.2898 90.7818 25.472 90.4402 25.8364C90.0986 26.2008 89.9278 26.6335 89.9278 27.1345C89.9278 27.6431 90.0341 28.0683 90.2466 28.4099C90.4668 28.7515 90.8653 29.0779 91.4423 29.3892C91.503 29.4195 91.6435 29.4955 91.8636 29.6169C92.0838 29.7384 92.3267 29.875 92.5924 30.0269C92.8657 30.1711 93.1124 30.304 93.3326 30.4254C93.5527 30.5393 93.6856 30.6076 93.7311 30.6304C94.5054 31.0631 95.1166 31.5945 95.5645 32.2246C96.0199 32.8547 96.2477 33.629 96.2477 34.5476C96.2477 35.4358 96.0427 36.2329 95.6328 36.9389C95.2153 37.6449 94.6611 38.2029 93.9702 38.6128C93.2794 39.0228 92.5127 39.2277 91.67 39.2277Z" fill="white"/>
<defs>
<linearGradient id="paint0_linear_148_7" x1="78.0089" y1="22.4451" x2="-4.25967e-07" y2="22.4451" gradientUnits="userSpaceOnUse">
<stop offset="0.143859" stop-color="#FFE500"/>
<stop offset="1" stop-color="#FFE500" stop-opacity="0"/>
</linearGradient>
</defs>
</svg>
