<svg width="193" height="68" viewBox="0 0 193 68" fill="none" xmlns="http://www.w3.org/2000/svg">
<path d="M157.233 25.8768C157.326 25.787 157.45 25.7368 157.58 25.7368H166.159C166.592 25.7368 166.82 26.2516 166.529 26.5729L161.13 32.5202C161.036 32.6246 160.901 32.6842 160.76 32.6842H151.41C150.96 32.6842 150.739 32.1364 151.063 31.8242L157.233 25.8768Z" fill="black" fill-opacity="0.5"/>
<path d="M141.388 25.298C141.482 25.2082 141.606 25.158 141.735 25.158H150.314C150.748 25.158 150.976 25.6727 150.684 25.994L145.286 31.9414C145.191 32.0458 145.057 32.1053 144.916 32.1053H135.566C135.116 32.1053 134.895 31.5576 135.219 31.2454L141.388 25.298Z" fill="black" fill-opacity="0.5"/>
<path d="M109.37 24.719C109.463 24.6292 109.587 24.579 109.717 24.579H118.296C118.729 24.579 118.957 25.0938 118.666 25.415L113.267 31.3624C113.173 31.4668 113.038 31.5263 112.897 31.5263H103.547C103.097 31.5263 102.876 30.9786 103.2 30.6664L109.37 24.719Z" fill="black" fill-opacity="0.5"/>
<path d="M87.7487 24.14C87.8419 24.0502 87.9663 24 88.0957 24H96.6744C97.1083 24 97.3363 24.5148 97.0447 24.8361L91.6463 30.7834C91.5515 30.8878 91.417 30.9474 91.276 30.9474H81.9261C81.4762 30.9474 81.2552 30.3996 81.5791 30.0874L87.7487 24.14Z" fill="black" fill-opacity="0.5"/>
<path d="M32.8944 28.7796C32.9883 28.6849 33.1161 28.6316 33.2495 28.6316H165.807C166.273 28.6316 166.485 29.2121 166.13 29.5131L146.811 45.8815C146.72 45.958 146.606 46 146.487 46H17.0241C16.5797 46 16.3562 45.4636 16.669 45.148L32.8944 28.7796Z" fill="#7F740C"/>
<rect width="78.0089" height="44.8902" transform="matrix(0.938592 -0.345029 0.425107 0.905143 105.698 26.9153)" fill="url(#paint0_linear_367_2)"/>
<path d="M0 15H148.072V44L145.811 46L0 44V15Z" fill="#D4C500" fill-opacity="0.9"/>
<rect x="2.2605" y="8" width="11.4445" height="9" rx="2.25" fill="#D4C500" fill-opacity="0.9"/>
<rect x="23.8782" y="8" width="11.4445" height="9" rx="2.25" fill="#D4C500" fill-opacity="0.9"/>
<rect x="45.4954" y="8" width="11.4445" height="9" rx="2.25" fill="#D4C500" fill-opacity="0.9"/>
<rect x="67.1128" y="8" width="11.4445" height="9" rx="2.25" fill="#D4C500" fill-opacity="0.9"/>
<rect x="88.7302" y="8" width="11.4445" height="9" rx="2.25" fill="#D4C500" fill-opacity="0.9"/>
<rect x="110.347" y="8" width="11.4445" height="9" rx="2.25" fill="#D4C500" fill-opacity="0.9"/>
<rect x="131.965" y="8" width="11.4445" height="9" rx="2.25" fill="#D4C500" fill-opacity="0.9"/>
<rect y="17" width="145.811" height="29" fill="#F2E205"/>
<rect x="2.2605" y="10" width="11.4445" height="9" rx="2.25" fill="#F2E205"/>
<rect x="23.8782" y="10" width="11.4445" height="9" rx="2.25" fill="#F2E205"/>
<rect x="45.4954" y="10" width="11.4445" height="9" rx="2.25" fill="#F2E205"/>
<rect x="67.1128" y="10" width="11.4445" height="9" rx="2.25" fill="#F2E205"/>
<rect x="88.7302" y="10" width="11.4445" height="9" rx="2.25" fill="#F2E205"/>
<rect x="110.347" y="10" width="11.4445" height="9" rx="2.25" fill="#F2E205"/>
<rect x="131.965" y="10" width="11.4445" height="9" rx="2.25" fill="#F2E205"/>
<path d="M56.5518 39H49.0135C48.9527 39 48.9224 38.962 48.9224 38.8861L48.9451 22.8871C48.9451 22.8112 48.9831 22.7732 49.059 22.7732H51.6553C51.7312 22.7732 51.7692 22.8112 51.7692 22.8871L51.7464 36.1304H56.5518C56.6277 36.1304 56.6657 36.1684 56.6657 36.2443V38.8861C56.6657 38.962 56.6277 39 56.5518 39ZM60.9473 39H58.3054C58.2295 39 58.1916 38.962 58.1916 38.8861L58.2143 22.8643C58.2143 22.8036 58.2447 22.7732 58.3054 22.7732H60.9245C60.9852 22.7732 61.0156 22.8036 61.0156 22.8643L61.0384 38.8861C61.0384 38.962 61.008 39 60.9473 39ZM68.5312 39H65.7071C65.6388 39 65.6009 38.962 65.5933 38.8861L62.3707 22.8643C62.3555 22.8036 62.3859 22.7732 62.4618 22.7732H65.1036C65.1644 22.7732 65.2023 22.8036 65.2175 22.8643L67.1305 33.5455L68.9981 22.8643C69.0132 22.8036 69.0512 22.7732 69.1119 22.7732H71.7196C71.8031 22.7732 71.8335 22.8036 71.8107 22.8643L68.645 38.8861C68.6375 38.962 68.5995 39 68.5312 39ZM75.9101 39H73.2683C73.2075 39 73.1772 38.962 73.1772 38.8861L73.2227 22.8643C73.2227 22.8036 73.2531 22.7732 73.3138 22.7732H78.0281C78.8708 22.7732 79.6451 22.9782 80.3511 23.3881C81.0571 23.798 81.6189 24.3484 82.0364 25.0393C82.4616 25.7301 82.6741 26.512 82.6741 27.385C82.6741 27.9544 82.5868 28.4706 82.4122 28.9337C82.2376 29.3968 82.0326 29.7877 81.7973 30.1066C81.5696 30.4254 81.3608 30.6608 81.171 30.8126C82.0137 31.7463 82.435 32.8433 82.435 34.1035L82.4578 38.8861C82.4578 38.962 82.4198 39 82.3439 39H79.702C79.6413 39 79.6109 38.9772 79.6109 38.9317V34.1035C79.6109 33.5417 79.4136 33.0559 79.0188 32.6459C78.6241 32.236 78.1382 32.031 77.5612 32.031H76.024L76.0012 38.8861C76.0012 38.962 75.9708 39 75.9101 39ZM78.0281 25.5631H76.024V29.2298H78.0281C78.5064 29.2298 78.9315 29.0514 79.3035 28.6946C79.6831 28.3378 79.8729 27.9012 79.8729 27.385C79.8729 26.8916 79.6907 26.4665 79.3263 26.1097C78.9619 25.7453 78.5292 25.5631 78.0281 25.5631ZM92.0572 39H84.5188C84.4581 39 84.4277 38.962 84.4277 38.8861L84.4505 22.8643C84.4505 22.8036 84.4809 22.7732 84.5416 22.7732H92.0344C92.0951 22.7732 92.1255 22.8112 92.1255 22.8871V25.4947C92.1255 25.5555 92.0951 25.5858 92.0344 25.5858H87.2518V29.2298H92.0344C92.0951 29.2298 92.1255 29.2601 92.1255 29.3209L92.1483 31.9627C92.1483 32.0234 92.1179 32.0538 92.0572 32.0538H87.2518V36.1304H92.0572C92.1179 36.1304 92.1483 36.1684 92.1483 36.2443V38.9089C92.1483 38.9696 92.1179 39 92.0572 39Z" fill="white"/>
<defs>
<linearGradient id="paint0_linear_367_2" x1="78.0089" y1="22.4451" x2="-4.25967e-07" y2="22.4451" gradientUnits="userSpaceOnUse">
<stop offset="0.143859" stop-color="#F21628"/>
<stop offset="1" stop-color="#F21628" stop-opacity="0"/>
</linearGradient>
</defs>
</svg>
