<svg width="172" height="44" viewBox="0 0 172 44" fill="none" xmlns="http://www.w3.org/2000/svg">
<path d="M5.21535 28.2277C4.3727 28.2277 3.60216 28.0152 2.90374 27.5901C2.21292 27.1649 1.66254 26.5956 1.2526 25.882C0.850246 25.1608 0.649072 24.3599 0.649072 23.4793L0.671847 16.2028C0.671847 15.3374 0.869225 14.5555 1.26398 13.8571C1.65874 13.1511 2.20153 12.5855 2.89236 12.1604C3.59077 11.7276 4.3651 11.5113 5.21535 11.5113C6.08078 11.5113 6.85132 11.7201 7.52696 12.1376C8.21019 12.5551 8.75298 13.1207 9.15533 13.8343C9.56527 14.5403 9.77024 15.3298 9.77024 16.2028V17.2732C9.77024 17.334 9.73988 17.3643 9.67915 17.3643H7.06008C6.99935 17.3643 6.96898 17.334 6.96898 17.2732V16.2028C6.96898 15.6866 6.80197 15.2425 6.46795 14.8705C6.13392 14.4985 5.71639 14.3125 5.21535 14.3125C4.66117 14.3125 4.23605 14.5023 3.93998 14.8819C3.64391 15.2615 3.49588 15.7018 3.49588 16.2028V23.4793C3.49588 24.0486 3.66289 24.5155 3.99692 24.8799C4.33094 25.2367 4.73709 25.4151 5.21535 25.4151C5.71639 25.4151 6.13392 25.2177 6.46795 24.823C6.80197 24.4206 6.96898 23.9727 6.96898 23.4793V22.3975C6.96898 22.3368 6.99935 22.3064 7.06008 22.3064H9.70192C9.76265 22.3064 9.79302 22.3368 9.79302 22.3975V23.4793C9.79302 24.3523 9.58805 25.1494 9.17811 25.8706C8.76058 26.5842 8.21019 27.1573 7.52696 27.5901C6.84373 28.0152 6.07319 28.2277 5.21535 28.2277ZM15.8055 28.2277C14.978 28.2277 14.2151 28.0152 13.5166 27.5901C12.8258 27.1649 12.2678 26.5994 11.8427 25.8934C11.4252 25.1798 11.2164 24.3978 11.2164 23.5476L11.2392 16.1573C11.2392 15.2919 11.448 14.5137 11.8655 13.8229C12.2754 13.1245 12.8296 12.5665 13.528 12.149C14.2264 11.7239 14.9856 11.5113 15.8055 11.5113C16.6557 11.5113 17.4187 11.7201 18.0943 12.1376C18.7775 12.5551 19.3241 13.1169 19.7341 13.8229C20.1516 14.5213 20.3604 15.2994 20.3604 16.1573L20.3831 23.5476C20.3831 24.3978 20.1782 25.176 19.7682 25.882C19.3507 26.5956 18.7965 27.1649 18.1057 27.5901C17.4149 28.0152 16.6481 28.2277 15.8055 28.2277ZM15.8055 25.4151C16.2761 25.4151 16.6861 25.2253 17.0353 24.8457C17.3845 24.4586 17.5591 24.0259 17.5591 23.5476L17.5363 16.1573C17.5363 15.6411 17.3731 15.2045 17.0467 14.8477C16.7202 14.4909 16.3065 14.3125 15.8055 14.3125C15.3272 14.3125 14.9173 14.4872 14.5757 14.8364C14.234 15.1856 14.0632 15.6259 14.0632 16.1573V23.5476C14.0632 24.0562 14.234 24.4965 14.5757 24.8685C14.9173 25.2329 15.3272 25.4151 15.8055 25.4151ZM24.6875 28H22.3531C22.2317 28 22.1709 27.9469 22.1709 27.8406L22.1482 11.9554C22.1482 11.8339 22.2089 11.7732 22.3304 11.7732H24.437L28.377 20.9627L28.2631 11.9554C28.2631 11.8339 28.3314 11.7732 28.4681 11.7732H30.7797C30.8708 11.7732 30.9163 11.8339 30.9163 11.9554L30.9391 27.8634C30.9391 27.9545 30.9011 28 30.8252 28H28.7755L24.7331 19.414L24.9039 27.8178C24.9039 27.9393 24.8318 28 24.6875 28ZM36.9288 28.2277C36.1013 28.2277 35.3384 28.0152 34.64 27.5901C33.9491 27.1649 33.3949 26.5994 32.9774 25.8934C32.5675 25.1798 32.3625 24.3978 32.3625 23.5476V22.4772C32.3625 22.3937 32.4005 22.3519 32.4764 22.3519H35.0954C35.1562 22.3519 35.1865 22.3937 35.1865 22.4772V23.5476C35.1865 24.0562 35.3573 24.4965 35.699 24.8685C36.0406 25.2329 36.4505 25.4151 36.9288 25.4151C37.4146 25.4151 37.8284 25.2291 38.17 24.8571C38.5116 24.4776 38.6824 24.041 38.6824 23.5476C38.6824 22.9782 38.3104 22.481 37.5665 22.0559C37.445 21.98 37.2856 21.8889 37.0882 21.7826C36.8984 21.6687 36.6707 21.5396 36.405 21.3954C36.1393 21.2512 35.8812 21.1107 35.6306 20.9741C35.3801 20.8298 35.1372 20.6932 34.9019 20.5641C34.0516 20.0631 33.4177 19.4368 33.0002 18.6852C32.5903 17.9261 32.3853 17.0759 32.3853 16.1345C32.3853 15.2691 32.5978 14.4872 33.023 13.7887C33.4481 13.0979 34.0023 12.5513 34.6855 12.149C35.3763 11.739 36.1241 11.5341 36.9288 11.5341C37.7563 11.5341 38.5154 11.739 39.2062 12.149C39.8971 12.5665 40.4474 13.1207 40.8574 13.8115C41.2749 14.5023 41.4837 15.2767 41.4837 16.1345V18.0476C41.4837 18.1083 41.4533 18.1387 41.3926 18.1387H38.7735C38.7128 18.1387 38.6824 18.1083 38.6824 18.0476L38.6596 16.1345C38.6596 15.5879 38.4888 15.1438 38.1472 14.8022C37.8056 14.4606 37.3995 14.2898 36.9288 14.2898C36.4505 14.2898 36.0406 14.472 35.699 14.8364C35.3573 15.2008 35.1865 15.6335 35.1865 16.1345C35.1865 16.6431 35.2928 17.0683 35.5054 17.4099C35.7255 17.7515 36.1241 18.0779 36.701 18.3892C36.7618 18.4195 36.9022 18.4955 37.1224 18.6169C37.3425 18.7384 37.5854 18.875 37.8512 19.0269C38.1244 19.1711 38.3712 19.304 38.5913 19.4254C38.8115 19.5393 38.9443 19.6076 38.9899 19.6304C39.7642 20.0631 40.3753 20.5945 40.8232 21.2246C41.2787 21.8547 41.5065 22.629 41.5065 23.5476C41.5065 24.4358 41.3015 25.2329 40.8915 25.9389C40.474 26.6449 39.9198 27.2029 39.229 27.6128C38.5382 28.0228 37.7714 28.2277 36.9288 28.2277ZM48.0997 28H45.4692C45.4009 28 45.3667 27.962 45.3667 27.8861V14.5858H42.3377C42.2618 14.5858 42.2238 14.5479 42.2238 14.472L42.2466 11.8643C42.2466 11.8036 42.277 11.7732 42.3377 11.7732H51.197C51.2805 11.7732 51.3222 11.8036 51.3222 11.8643V14.472C51.3222 14.5479 51.2919 14.5858 51.2311 14.5858H48.168L48.1908 27.8861C48.1908 27.962 48.1604 28 48.0997 28ZM55.1939 28H52.5521C52.4913 28 52.461 27.962 52.461 27.8861L52.5065 11.8643C52.5065 11.8036 52.5369 11.7732 52.5976 11.7732H57.3119C58.1546 11.7732 58.9289 11.9782 59.6349 12.3881C60.3409 12.798 60.9027 13.3484 61.3202 14.0393C61.7454 14.7301 61.9579 15.512 61.9579 16.385C61.9579 16.9544 61.8706 17.4706 61.696 17.9337C61.5214 18.3968 61.3164 18.7877 61.0811 19.1066C60.8534 19.4254 60.6446 19.6608 60.4548 19.8126C61.2975 20.7463 61.7188 21.8433 61.7188 23.1035L61.7416 27.8861C61.7416 27.962 61.7036 28 61.6277 28H58.9858C58.9251 28 58.8948 27.9772 58.8948 27.9317V23.1035C58.8948 22.5417 58.6974 22.0559 58.3026 21.6459C57.9079 21.236 57.422 21.031 56.8451 21.031H55.3078L55.285 27.8861C55.285 27.962 55.2546 28 55.1939 28ZM57.3119 14.5631H55.3078V18.2298H57.3119C57.7902 18.2298 58.2153 18.0514 58.5873 17.6946C58.9669 17.3378 59.1567 16.9012 59.1567 16.385C59.1567 15.8916 58.9745 15.4665 58.6101 15.1097C58.2457 14.7453 57.813 14.5631 57.3119 14.5631ZM68.0045 28.2277C67.1847 28.2277 66.4255 28.0152 65.7271 27.5901C65.0287 27.1649 64.4707 26.5956 64.0532 25.882C63.6432 25.1608 63.4383 24.3751 63.4383 23.5248L63.4838 11.8643C63.4838 11.8036 63.5142 11.7732 63.5749 11.7732H66.194C66.2547 11.7732 66.2851 11.8036 66.2851 11.8643V23.5248C66.2851 24.0486 66.4521 24.4965 66.7861 24.8685C67.1201 25.2329 67.5263 25.4151 68.0045 25.4151C68.5056 25.4151 68.9231 25.2329 69.2571 24.8685C69.5912 24.4965 69.7582 24.0486 69.7582 23.5248V11.8643C69.7582 11.8036 69.7885 11.7732 69.8493 11.7732H72.4683C72.5291 11.7732 72.5594 11.8036 72.5594 11.8643L72.605 23.5248C72.605 24.3827 72.4 25.1722 71.9901 25.8934C71.5725 26.607 71.0184 27.1763 70.3275 27.6014C69.6367 28.019 68.8624 28.2277 68.0045 28.2277ZM73.6526 27.8861L76.545 11.8643C76.5601 11.8036 76.5981 11.7732 76.6588 11.7732H80.0408C80.1016 11.7732 80.1395 11.8036 80.1547 11.8643L82.9332 27.8861C82.9408 27.962 82.9104 28 82.8421 28H80.2572C80.1813 28 80.1395 27.962 80.1319 27.8861L79.8814 26.178H76.7044L76.4539 27.8861C76.4463 27.962 76.4083 28 76.34 28H73.7437C73.683 28 73.6526 27.962 73.6526 27.8861ZM78.2189 17.1366L77.1713 23.6842H79.4145L78.458 17.1366L78.3214 16.2712L78.2189 17.1366ZM94.4115 28.2277C93.584 28.2277 92.8211 28.0152 92.1227 27.5901C91.4319 27.1649 90.8777 26.5994 90.4602 25.8934C90.0502 25.1798 89.8452 24.3978 89.8452 23.5476V22.4772C89.8452 22.3937 89.8832 22.3519 89.9591 22.3519H92.5782C92.6389 22.3519 92.6693 22.3937 92.6693 22.4772V23.5476C92.6693 24.0562 92.8401 24.4965 93.1817 24.8685C93.5233 25.2329 93.9333 25.4151 94.4115 25.4151C94.8974 25.4151 95.3111 25.2291 95.6527 24.8571C95.9943 24.4776 96.1652 24.041 96.1652 23.5476C96.1652 22.9782 95.7932 22.481 95.0492 22.0559C94.9277 21.98 94.7683 21.8889 94.5709 21.7826C94.3812 21.6687 94.1534 21.5396 93.8877 21.3954C93.622 21.2512 93.3639 21.1107 93.1134 20.9741C92.8629 20.8298 92.6199 20.6932 92.3846 20.5641C91.5343 20.0631 90.9005 19.4368 90.4829 18.6852C90.073 17.9261 89.868 17.0759 89.868 16.1345C89.868 15.2691 90.0806 14.4872 90.5057 13.7887C90.9308 13.0979 91.485 12.5513 92.1682 12.149C92.8591 11.739 93.6068 11.5341 94.4115 11.5341C95.239 11.5341 95.9981 11.739 96.689 12.149C97.3798 12.5665 97.9302 13.1207 98.3401 13.8115C98.7576 14.5023 98.9664 15.2767 98.9664 16.1345V18.0476C98.9664 18.1083 98.936 18.1387 98.8753 18.1387H96.2563C96.1955 18.1387 96.1652 18.1083 96.1652 18.0476L96.1424 16.1345C96.1424 15.5879 95.9716 15.1438 95.63 14.8022C95.2883 14.4606 94.8822 14.2898 94.4115 14.2898C93.9333 14.2898 93.5233 14.472 93.1817 14.8364C92.8401 15.2008 92.6693 15.6335 92.6693 16.1345C92.6693 16.6431 92.7756 17.0683 92.9881 17.4099C93.2083 17.7515 93.6068 18.0779 94.1838 18.3892C94.2445 18.4195 94.3849 18.4955 94.6051 18.6169C94.8253 18.7384 95.0682 18.875 95.3339 19.0269C95.6072 19.1711 95.8539 19.304 96.0741 19.4254C96.2942 19.5393 96.4271 19.6076 96.4726 19.6304C97.2469 20.0631 97.8581 20.5945 98.306 21.2246C98.7614 21.8547 98.9892 22.629 98.9892 23.5476C98.9892 24.4358 98.7842 25.2329 98.3743 25.9389C97.9567 26.6449 97.4026 27.2029 96.7117 27.6128C96.0209 28.0228 95.2542 28.2277 94.4115 28.2277ZM108.236 28H100.697C100.637 28 100.606 27.962 100.606 27.8861L100.629 11.8643C100.629 11.8036 100.659 11.7732 100.72 11.7732H108.213C108.274 11.7732 108.304 11.8112 108.304 11.8871V14.4947C108.304 14.5555 108.274 14.5858 108.213 14.5858H103.43V18.2298H108.213C108.274 18.2298 108.304 18.2601 108.304 18.3209L108.327 20.9627C108.327 21.0234 108.296 21.0538 108.236 21.0538H103.43V25.1304H108.236C108.296 25.1304 108.327 25.1684 108.327 25.2443V27.9089C108.327 27.9696 108.296 28 108.236 28ZM114.692 28.2277C113.872 28.2277 113.113 28.0152 112.415 27.5901C111.716 27.1649 111.158 26.5956 110.741 25.882C110.331 25.1608 110.126 24.3751 110.126 23.5248L110.171 11.8643C110.171 11.8036 110.202 11.7732 110.263 11.7732H112.882C112.942 11.7732 112.973 11.8036 112.973 11.8643V23.5248C112.973 24.0486 113.14 24.4965 113.474 24.8685C113.808 25.2329 114.214 25.4151 114.692 25.4151C115.193 25.4151 115.611 25.2329 115.945 24.8685C116.279 24.4965 116.446 24.0486 116.446 23.5248V11.8643C116.446 11.8036 116.476 11.7732 116.537 11.7732H119.156C119.217 11.7732 119.247 11.8036 119.247 11.8643L119.293 23.5248C119.293 24.3827 119.088 25.1722 118.678 25.8934C118.26 26.607 117.706 27.1763 117.015 27.6014C116.324 28.019 115.55 28.2277 114.692 28.2277ZM131.147 28.2277C130.319 28.2277 129.556 28.0152 128.858 27.5901C128.167 27.1649 127.613 26.5994 127.195 25.8934C126.785 25.1798 126.58 24.3978 126.58 23.5476V22.4772C126.58 22.3937 126.618 22.3519 126.694 22.3519H129.313C129.374 22.3519 129.404 22.3937 129.404 22.4772V23.5476C129.404 24.0562 129.575 24.4965 129.917 24.8685C130.259 25.2329 130.668 25.4151 131.147 25.4151C131.633 25.4151 132.046 25.2291 132.388 24.8571C132.73 24.4776 132.9 24.041 132.9 23.5476C132.9 22.9782 132.528 22.481 131.784 22.0559C131.663 21.98 131.504 21.8889 131.306 21.7826C131.116 21.6687 130.889 21.5396 130.623 21.3954C130.357 21.2512 130.099 21.1107 129.849 20.9741C129.598 20.8298 129.355 20.6932 129.12 20.5641C128.27 20.0631 127.636 19.4368 127.218 18.6852C126.808 17.9261 126.603 17.0759 126.603 16.1345C126.603 15.2691 126.816 14.4872 127.241 13.7887C127.666 13.0979 128.22 12.5513 128.903 12.149C129.594 11.739 130.342 11.5341 131.147 11.5341C131.974 11.5341 132.733 11.739 133.424 12.149C134.115 12.5665 134.665 13.1207 135.075 13.8115C135.493 14.5023 135.702 15.2767 135.702 16.1345V18.0476C135.702 18.1083 135.671 18.1387 135.611 18.1387H132.991C132.931 18.1387 132.9 18.1083 132.9 18.0476L132.878 16.1345C132.878 15.5879 132.707 15.1438 132.365 14.8022C132.024 14.4606 131.617 14.2898 131.147 14.2898C130.668 14.2898 130.259 14.472 129.917 14.8364C129.575 15.2008 129.404 15.6335 129.404 16.1345C129.404 16.6431 129.511 17.0683 129.723 17.4099C129.943 17.7515 130.342 18.0779 130.919 18.3892C130.98 18.4195 131.12 18.4955 131.34 18.6169C131.56 18.7384 131.803 18.875 132.069 19.0269C132.342 19.1711 132.589 19.304 132.809 19.4254C133.029 19.5393 133.162 19.6076 133.208 19.6304C133.982 20.0631 134.593 20.5945 135.041 21.2246C135.497 21.8547 135.724 22.629 135.724 23.5476C135.724 24.4358 135.519 25.2329 135.109 25.9389C134.692 26.6449 134.138 27.2029 133.447 27.6128C132.756 28.0228 131.989 28.2277 131.147 28.2277ZM140.097 28H137.455C137.379 28 137.341 27.962 137.341 27.8861L137.364 11.8643C137.364 11.8036 137.395 11.7732 137.455 11.7732H140.074C140.135 11.7732 140.165 11.8036 140.165 11.8643L140.188 27.8861C140.188 27.962 140.158 28 140.097 28ZM147.214 28H144.584C144.515 28 144.481 27.962 144.481 27.8861V14.5858H141.452C141.376 14.5858 141.338 14.5479 141.338 14.472L141.361 11.8643C141.361 11.8036 141.391 11.7732 141.452 11.7732H150.311C150.395 11.7732 150.437 11.8036 150.437 11.8643V14.472C150.437 14.5479 150.406 14.5858 150.346 14.5858H147.282L147.305 27.8861C147.305 27.962 147.275 28 147.214 28ZM159.205 28H151.667C151.606 28 151.575 27.962 151.575 27.8861L151.598 11.8643C151.598 11.8036 151.629 11.7732 151.689 11.7732H159.182C159.243 11.7732 159.273 11.8112 159.273 11.8871V14.4947C159.273 14.5555 159.243 14.5858 159.182 14.5858H154.399V18.2298H159.182C159.243 18.2298 159.273 18.2601 159.273 18.3209L159.296 20.9627C159.296 21.0234 159.266 21.0538 159.205 21.0538H154.399V25.1304H159.205C159.266 25.1304 159.296 25.1684 159.296 25.2443V27.9089C159.296 27.9696 159.266 28 159.205 28ZM169.624 23.707H168.03C167.962 23.707 167.924 23.6691 167.916 23.5931L167.426 18.2298V11.8871C167.426 11.8112 167.457 11.7732 167.518 11.7732H170.137C170.213 11.7732 170.25 11.8112 170.25 11.8871L170.228 18.2298L169.738 23.5931C169.73 23.6691 169.692 23.707 169.624 23.707ZM170.137 28H167.518C167.457 28 167.426 27.962 167.426 27.8861V25.3468C167.426 25.2785 167.457 25.2443 167.518 25.2443H170.137C170.197 25.2443 170.228 25.2785 170.228 25.3468V27.8861C170.228 27.962 170.197 28 170.137 28Z" fill="#C19D3E"/>
<path d="M5.21535 30.2277C4.3727 30.2277 3.60216 30.0152 2.90374 29.5901C2.21292 29.1649 1.66254 28.5956 1.2526 27.882C0.850246 27.1608 0.649072 26.3599 0.649072 25.4793L0.671847 18.2028C0.671847 17.3374 0.869225 16.5555 1.26398 15.8571C1.65874 15.1511 2.20153 14.5855 2.89236 14.1604C3.59077 13.7276 4.3651 13.5113 5.21535 13.5113C6.08078 13.5113 6.85132 13.7201 7.52696 14.1376C8.21019 14.5551 8.75298 15.1207 9.15533 15.8343C9.56527 16.5403 9.77024 17.3298 9.77024 18.2028V19.2732C9.77024 19.334 9.73988 19.3643 9.67915 19.3643H7.06008C6.99935 19.3643 6.96898 19.334 6.96898 19.2732V18.2028C6.96898 17.6866 6.80197 17.2425 6.46795 16.8705C6.13392 16.4985 5.71639 16.3125 5.21535 16.3125C4.66117 16.3125 4.23605 16.5023 3.93998 16.8819C3.64391 17.2615 3.49588 17.7018 3.49588 18.2028V25.4793C3.49588 26.0486 3.66289 26.5155 3.99692 26.8799C4.33094 27.2367 4.73709 27.4151 5.21535 27.4151C5.71639 27.4151 6.13392 27.2177 6.46795 26.823C6.80197 26.4206 6.96898 25.9727 6.96898 25.4793V24.3975C6.96898 24.3368 6.99935 24.3064 7.06008 24.3064H9.70192C9.76265 24.3064 9.79302 24.3368 9.79302 24.3975V25.4793C9.79302 26.3523 9.58805 27.1494 9.17811 27.8706C8.76058 28.5842 8.21019 29.1573 7.52696 29.5901C6.84373 30.0152 6.07319 30.2277 5.21535 30.2277ZM15.8055 30.2277C14.978 30.2277 14.2151 30.0152 13.5166 29.5901C12.8258 29.1649 12.2678 28.5994 11.8427 27.8934C11.4252 27.1798 11.2164 26.3978 11.2164 25.5476L11.2392 18.1573C11.2392 17.2919 11.448 16.5137 11.8655 15.8229C12.2754 15.1245 12.8296 14.5665 13.528 14.149C14.2264 13.7239 14.9856 13.5113 15.8055 13.5113C16.6557 13.5113 17.4187 13.7201 18.0943 14.1376C18.7775 14.5551 19.3241 15.1169 19.7341 15.8229C20.1516 16.5213 20.3604 17.2994 20.3604 18.1573L20.3831 25.5476C20.3831 26.3978 20.1782 27.176 19.7682 27.882C19.3507 28.5956 18.7965 29.1649 18.1057 29.5901C17.4149 30.0152 16.6481 30.2277 15.8055 30.2277ZM15.8055 27.4151C16.2761 27.4151 16.6861 27.2253 17.0353 26.8457C17.3845 26.4586 17.5591 26.0259 17.5591 25.5476L17.5363 18.1573C17.5363 17.6411 17.3731 17.2045 17.0467 16.8477C16.7202 16.4909 16.3065 16.3125 15.8055 16.3125C15.3272 16.3125 14.9173 16.4872 14.5757 16.8364C14.234 17.1856 14.0632 17.6259 14.0632 18.1573V25.5476C14.0632 26.0562 14.234 26.4965 14.5757 26.8685C14.9173 27.2329 15.3272 27.4151 15.8055 27.4151ZM24.6875 30H22.3531C22.2317 30 22.1709 29.9469 22.1709 29.8406L22.1482 13.9554C22.1482 13.8339 22.2089 13.7732 22.3304 13.7732H24.437L28.377 22.9627L28.2631 13.9554C28.2631 13.8339 28.3314 13.7732 28.4681 13.7732H30.7797C30.8708 13.7732 30.9163 13.8339 30.9163 13.9554L30.9391 29.8634C30.9391 29.9545 30.9011 30 30.8252 30H28.7755L24.7331 21.414L24.9039 29.8178C24.9039 29.9393 24.8318 30 24.6875 30ZM36.9288 30.2277C36.1013 30.2277 35.3384 30.0152 34.64 29.5901C33.9491 29.1649 33.3949 28.5994 32.9774 27.8934C32.5675 27.1798 32.3625 26.3978 32.3625 25.5476V24.4772C32.3625 24.3937 32.4005 24.3519 32.4764 24.3519H35.0954C35.1562 24.3519 35.1865 24.3937 35.1865 24.4772V25.5476C35.1865 26.0562 35.3573 26.4965 35.699 26.8685C36.0406 27.2329 36.4505 27.4151 36.9288 27.4151C37.4146 27.4151 37.8284 27.2291 38.17 26.8571C38.5116 26.4776 38.6824 26.041 38.6824 25.5476C38.6824 24.9782 38.3104 24.481 37.5665 24.0559C37.445 23.98 37.2856 23.8889 37.0882 23.7826C36.8984 23.6687 36.6707 23.5396 36.405 23.3954C36.1393 23.2512 35.8812 23.1107 35.6306 22.9741C35.3801 22.8298 35.1372 22.6932 34.9019 22.5641C34.0516 22.0631 33.4177 21.4368 33.0002 20.6852C32.5903 19.9261 32.3853 19.0759 32.3853 18.1345C32.3853 17.2691 32.5978 16.4872 33.023 15.7887C33.4481 15.0979 34.0023 14.5513 34.6855 14.149C35.3763 13.739 36.1241 13.5341 36.9288 13.5341C37.7563 13.5341 38.5154 13.739 39.2062 14.149C39.8971 14.5665 40.4474 15.1207 40.8574 15.8115C41.2749 16.5023 41.4837 17.2767 41.4837 18.1345V20.0476C41.4837 20.1083 41.4533 20.1387 41.3926 20.1387H38.7735C38.7128 20.1387 38.6824 20.1083 38.6824 20.0476L38.6596 18.1345C38.6596 17.5879 38.4888 17.1438 38.1472 16.8022C37.8056 16.4606 37.3995 16.2898 36.9288 16.2898C36.4505 16.2898 36.0406 16.472 35.699 16.8364C35.3573 17.2008 35.1865 17.6335 35.1865 18.1345C35.1865 18.6431 35.2928 19.0683 35.5054 19.4099C35.7255 19.7515 36.1241 20.0779 36.701 20.3892C36.7618 20.4195 36.9022 20.4955 37.1224 20.6169C37.3425 20.7384 37.5854 20.875 37.8512 21.0269C38.1244 21.1711 38.3712 21.304 38.5913 21.4254C38.8115 21.5393 38.9443 21.6076 38.9899 21.6304C39.7642 22.0631 40.3753 22.5945 40.8232 23.2246C41.2787 23.8547 41.5065 24.629 41.5065 25.5476C41.5065 26.4358 41.3015 27.2329 40.8915 27.9389C40.474 28.6449 39.9198 29.2029 39.229 29.6128C38.5382 30.0228 37.7714 30.2277 36.9288 30.2277ZM48.0997 30H45.4692C45.4009 30 45.3667 29.962 45.3667 29.8861V16.5858H42.3377C42.2618 16.5858 42.2238 16.5479 42.2238 16.472L42.2466 13.8643C42.2466 13.8036 42.277 13.7732 42.3377 13.7732H51.197C51.2805 13.7732 51.3222 13.8036 51.3222 13.8643V16.472C51.3222 16.5479 51.2919 16.5858 51.2311 16.5858H48.168L48.1908 29.8861C48.1908 29.962 48.1604 30 48.0997 30ZM55.1939 30H52.5521C52.4913 30 52.461 29.962 52.461 29.8861L52.5065 13.8643C52.5065 13.8036 52.5369 13.7732 52.5976 13.7732H57.3119C58.1546 13.7732 58.9289 13.9782 59.6349 14.3881C60.3409 14.798 60.9027 15.3484 61.3202 16.0393C61.7454 16.7301 61.9579 17.512 61.9579 18.385C61.9579 18.9544 61.8706 19.4706 61.696 19.9337C61.5214 20.3968 61.3164 20.7877 61.0811 21.1066C60.8534 21.4254 60.6446 21.6608 60.4548 21.8126C61.2975 22.7463 61.7188 23.8433 61.7188 25.1035L61.7416 29.8861C61.7416 29.962 61.7036 30 61.6277 30H58.9858C58.9251 30 58.8948 29.9772 58.8948 29.9317V25.1035C58.8948 24.5417 58.6974 24.0559 58.3026 23.6459C57.9079 23.236 57.422 23.031 56.8451 23.031H55.3078L55.285 29.8861C55.285 29.962 55.2546 30 55.1939 30ZM57.3119 16.5631H55.3078V20.2298H57.3119C57.7902 20.2298 58.2153 20.0514 58.5873 19.6946C58.9669 19.3378 59.1567 18.9012 59.1567 18.385C59.1567 17.8916 58.9745 17.4665 58.6101 17.1097C58.2457 16.7453 57.813 16.5631 57.3119 16.5631ZM68.0045 30.2277C67.1847 30.2277 66.4255 30.0152 65.7271 29.5901C65.0287 29.1649 64.4707 28.5956 64.0532 27.882C63.6432 27.1608 63.4383 26.3751 63.4383 25.5248L63.4838 13.8643C63.4838 13.8036 63.5142 13.7732 63.5749 13.7732H66.194C66.2547 13.7732 66.2851 13.8036 66.2851 13.8643V25.5248C66.2851 26.0486 66.4521 26.4965 66.7861 26.8685C67.1201 27.2329 67.5263 27.4151 68.0045 27.4151C68.5056 27.4151 68.9231 27.2329 69.2571 26.8685C69.5912 26.4965 69.7582 26.0486 69.7582 25.5248V13.8643C69.7582 13.8036 69.7885 13.7732 69.8493 13.7732H72.4683C72.5291 13.7732 72.5594 13.8036 72.5594 13.8643L72.605 25.5248C72.605 26.3827 72.4 27.1722 71.9901 27.8934C71.5725 28.607 71.0184 29.1763 70.3275 29.6014C69.6367 30.019 68.8624 30.2277 68.0045 30.2277ZM73.6526 29.8861L76.545 13.8643C76.5601 13.8036 76.5981 13.7732 76.6588 13.7732H80.0408C80.1016 13.7732 80.1395 13.8036 80.1547 13.8643L82.9332 29.8861C82.9408 29.962 82.9104 30 82.8421 30H80.2572C80.1813 30 80.1395 29.962 80.1319 29.8861L79.8814 28.178H76.7044L76.4539 29.8861C76.4463 29.962 76.4083 30 76.34 30H73.7437C73.683 30 73.6526 29.962 73.6526 29.8861ZM78.2189 19.1366L77.1713 25.6842H79.4145L78.458 19.1366L78.3214 18.2712L78.2189 19.1366ZM94.4115 30.2277C93.584 30.2277 92.8211 30.0152 92.1227 29.5901C91.4319 29.1649 90.8777 28.5994 90.4602 27.8934C90.0502 27.1798 89.8452 26.3978 89.8452 25.5476V24.4772C89.8452 24.3937 89.8832 24.3519 89.9591 24.3519H92.5782C92.6389 24.3519 92.6693 24.3937 92.6693 24.4772V25.5476C92.6693 26.0562 92.8401 26.4965 93.1817 26.8685C93.5233 27.2329 93.9333 27.4151 94.4115 27.4151C94.8974 27.4151 95.3111 27.2291 95.6527 26.8571C95.9943 26.4776 96.1652 26.041 96.1652 25.5476C96.1652 24.9782 95.7932 24.481 95.0492 24.0559C94.9277 23.98 94.7683 23.8889 94.5709 23.7826C94.3812 23.6687 94.1534 23.5396 93.8877 23.3954C93.622 23.2512 93.3639 23.1107 93.1134 22.9741C92.8629 22.8298 92.6199 22.6932 92.3846 22.5641C91.5343 22.0631 90.9005 21.4368 90.4829 20.6852C90.073 19.9261 89.868 19.0759 89.868 18.1345C89.868 17.2691 90.0806 16.4872 90.5057 15.7887C90.9308 15.0979 91.485 14.5513 92.1682 14.149C92.8591 13.739 93.6068 13.5341 94.4115 13.5341C95.239 13.5341 95.9981 13.739 96.689 14.149C97.3798 14.5665 97.9302 15.1207 98.3401 15.8115C98.7576 16.5023 98.9664 17.2767 98.9664 18.1345V20.0476C98.9664 20.1083 98.936 20.1387 98.8753 20.1387H96.2563C96.1955 20.1387 96.1652 20.1083 96.1652 20.0476L96.1424 18.1345C96.1424 17.5879 95.9716 17.1438 95.63 16.8022C95.2883 16.4606 94.8822 16.2898 94.4115 16.2898C93.9333 16.2898 93.5233 16.472 93.1817 16.8364C92.8401 17.2008 92.6693 17.6335 92.6693 18.1345C92.6693 18.6431 92.7756 19.0683 92.9881 19.4099C93.2083 19.7515 93.6068 20.0779 94.1838 20.3892C94.2445 20.4195 94.3849 20.4955 94.6051 20.6169C94.8253 20.7384 95.0682 20.875 95.3339 21.0269C95.6072 21.1711 95.8539 21.304 96.0741 21.4254C96.2942 21.5393 96.4271 21.6076 96.4726 21.6304C97.2469 22.0631 97.8581 22.5945 98.306 23.2246C98.7614 23.8547 98.9892 24.629 98.9892 25.5476C98.9892 26.4358 98.7842 27.2329 98.3743 27.9389C97.9567 28.6449 97.4026 29.2029 96.7117 29.6128C96.0209 30.0228 95.2542 30.2277 94.4115 30.2277ZM108.236 30H100.697C100.637 30 100.606 29.962 100.606 29.8861L100.629 13.8643C100.629 13.8036 100.659 13.7732 100.72 13.7732H108.213C108.274 13.7732 108.304 13.8112 108.304 13.8871V16.4947C108.304 16.5555 108.274 16.5858 108.213 16.5858H103.43V20.2298H108.213C108.274 20.2298 108.304 20.2601 108.304 20.3209L108.327 22.9627C108.327 23.0234 108.296 23.0538 108.236 23.0538H103.43V27.1304H108.236C108.296 27.1304 108.327 27.1684 108.327 27.2443V29.9089C108.327 29.9696 108.296 30 108.236 30ZM114.692 30.2277C113.872 30.2277 113.113 30.0152 112.415 29.5901C111.716 29.1649 111.158 28.5956 110.741 27.882C110.331 27.1608 110.126 26.3751 110.126 25.5248L110.171 13.8643C110.171 13.8036 110.202 13.7732 110.263 13.7732H112.882C112.942 13.7732 112.973 13.8036 112.973 13.8643V25.5248C112.973 26.0486 113.14 26.4965 113.474 26.8685C113.808 27.2329 114.214 27.4151 114.692 27.4151C115.193 27.4151 115.611 27.2329 115.945 26.8685C116.279 26.4965 116.446 26.0486 116.446 25.5248V13.8643C116.446 13.8036 116.476 13.7732 116.537 13.7732H119.156C119.217 13.7732 119.247 13.8036 119.247 13.8643L119.293 25.5248C119.293 26.3827 119.088 27.1722 118.678 27.8934C118.26 28.607 117.706 29.1763 117.015 29.6014C116.324 30.019 115.55 30.2277 114.692 30.2277ZM131.147 30.2277C130.319 30.2277 129.556 30.0152 128.858 29.5901C128.167 29.1649 127.613 28.5994 127.195 27.8934C126.785 27.1798 126.58 26.3978 126.58 25.5476V24.4772C126.58 24.3937 126.618 24.3519 126.694 24.3519H129.313C129.374 24.3519 129.404 24.3937 129.404 24.4772V25.5476C129.404 26.0562 129.575 26.4965 129.917 26.8685C130.259 27.2329 130.668 27.4151 131.147 27.4151C131.633 27.4151 132.046 27.2291 132.388 26.8571C132.73 26.4776 132.9 26.041 132.9 25.5476C132.9 24.9782 132.528 24.481 131.784 24.0559C131.663 23.98 131.504 23.8889 131.306 23.7826C131.116 23.6687 130.889 23.5396 130.623 23.3954C130.357 23.2512 130.099 23.1107 129.849 22.9741C129.598 22.8298 129.355 22.6932 129.12 22.5641C128.27 22.0631 127.636 21.4368 127.218 20.6852C126.808 19.9261 126.603 19.0759 126.603 18.1345C126.603 17.2691 126.816 16.4872 127.241 15.7887C127.666 15.0979 128.22 14.5513 128.903 14.149C129.594 13.739 130.342 13.5341 131.147 13.5341C131.974 13.5341 132.733 13.739 133.424 14.149C134.115 14.5665 134.665 15.1207 135.075 15.8115C135.493 16.5023 135.702 17.2767 135.702 18.1345V20.0476C135.702 20.1083 135.671 20.1387 135.611 20.1387H132.991C132.931 20.1387 132.9 20.1083 132.9 20.0476L132.878 18.1345C132.878 17.5879 132.707 17.1438 132.365 16.8022C132.024 16.4606 131.617 16.2898 131.147 16.2898C130.668 16.2898 130.259 16.472 129.917 16.8364C129.575 17.2008 129.404 17.6335 129.404 18.1345C129.404 18.6431 129.511 19.0683 129.723 19.4099C129.943 19.7515 130.342 20.0779 130.919 20.3892C130.98 20.4195 131.12 20.4955 131.34 20.6169C131.56 20.7384 131.803 20.875 132.069 21.0269C132.342 21.1711 132.589 21.304 132.809 21.4254C133.029 21.5393 133.162 21.6076 133.208 21.6304C133.982 22.0631 134.593 22.5945 135.041 23.2246C135.497 23.8547 135.724 24.629 135.724 25.5476C135.724 26.4358 135.519 27.2329 135.109 27.9389C134.692 28.6449 134.138 29.2029 133.447 29.6128C132.756 30.0228 131.989 30.2277 131.147 30.2277ZM140.097 30H137.455C137.379 30 137.341 29.962 137.341 29.8861L137.364 13.8643C137.364 13.8036 137.395 13.7732 137.455 13.7732H140.074C140.135 13.7732 140.165 13.8036 140.165 13.8643L140.188 29.8861C140.188 29.962 140.158 30 140.097 30ZM147.214 30H144.584C144.515 30 144.481 29.962 144.481 29.8861V16.5858H141.452C141.376 16.5858 141.338 16.5479 141.338 16.472L141.361 13.8643C141.361 13.8036 141.391 13.7732 141.452 13.7732H150.311C150.395 13.7732 150.437 13.8036 150.437 13.8643V16.472C150.437 16.5479 150.406 16.5858 150.346 16.5858H147.282L147.305 29.8861C147.305 29.962 147.275 30 147.214 30ZM159.205 30H151.667C151.606 30 151.575 29.962 151.575 29.8861L151.598 13.8643C151.598 13.8036 151.629 13.7732 151.689 13.7732H159.182C159.243 13.7732 159.273 13.8112 159.273 13.8871V16.4947C159.273 16.5555 159.243 16.5858 159.182 16.5858H154.399V20.2298H159.182C159.243 20.2298 159.273 20.2601 159.273 20.3209L159.296 22.9627C159.296 23.0234 159.266 23.0538 159.205 23.0538H154.399V27.1304H159.205C159.266 27.1304 159.296 27.1684 159.296 27.2443V29.9089C159.296 29.9696 159.266 30 159.205 30ZM169.624 25.707H168.03C167.962 25.707 167.924 25.6691 167.916 25.5931L167.426 20.2298V13.8871C167.426 13.8112 167.457 13.7732 167.518 13.7732H170.137C170.213 13.7732 170.25 13.8112 170.25 13.8871L170.228 20.2298L169.738 25.5931C169.73 25.6691 169.692 25.707 169.624 25.707ZM170.137 30H167.518C167.457 30 167.426 29.962 167.426 29.8861V27.3468C167.426 27.2785 167.457 27.2443 167.518 27.2443H170.137C170.197 27.2443 170.228 27.2785 170.228 27.3468V29.8861C170.228 29.962 170.197 30 170.137 30Z" fill="white"/>
</svg>
