<svg width="121" height="63" viewBox="0 0 121 63" fill="none" xmlns="http://www.w3.org/2000/svg">
<rect x="3.8335" width="16.896" height="22.5693" rx="5.64233" fill="#9F3737"/>
<rect x="35.7488" width="16.896" height="22.5693" rx="5.64233" fill="#9F3737"/>
<rect x="67.6633" width="16.896" height="22.5693" rx="5.64233" fill="#9F3737"/>
<rect x="99.5779" width="16.896" height="22.5693" rx="5.64233" fill="#9F3737"/>
<path d="M3.43225 9.07373H120.106V49.0293L118.272 51.7848L0 49.0293V11.9293L3.43225 9.07373Z" fill="#9F3737"/>
<rect y="11.8293" width="118.272" height="39.9556" fill="#FF1616"/>
<rect x="1.8335" y="2" width="16.896" height="22.5693" rx="5.64233" fill="#FF1616"/>
<rect x="33.7488" y="2" width="16.896" height="22.5693" rx="5.64233" fill="#FF1616"/>
<rect x="65.6633" y="2" width="16.896" height="22.5693" rx="5.64233" fill="#FF1616"/>
<rect x="97.5779" y="2" width="16.896" height="22.5693" rx="5.64233" fill="#FF1616"/>
<path d="M61.7146 43.807H51.3285C51.2448 43.807 51.2029 43.7547 51.2029 43.6501L51.2343 21.5756C51.2343 21.4919 51.2762 21.4501 51.3598 21.4501H61.6832C61.7669 21.4501 61.8088 21.5024 61.8088 21.607V25.1998C61.8088 25.2834 61.7669 25.3253 61.6832 25.3253H55.0938V30.3458H61.6832C61.7669 30.3458 61.8088 30.3876 61.8088 30.4713L61.8401 34.1112C61.8401 34.1948 61.7983 34.2367 61.7146 34.2367H55.0938V39.8534H61.7146C61.7983 39.8534 61.8401 39.9057 61.8401 40.0103V43.6815C61.8401 43.7652 61.7983 43.807 61.7146 43.807ZM67.3156 43.807H63.7071C63.6339 43.807 63.6025 43.7547 63.613 43.6501L67.2842 32.1814L63.6758 21.5756C63.6548 21.4919 63.6862 21.4501 63.7699 21.4501H67.3784C67.483 21.4501 67.5457 21.4919 67.5666 21.5756L69.7161 29.2162L71.8968 21.5756C71.9178 21.4919 71.9857 21.4501 72.1008 21.4501H75.6622C75.7459 21.4501 75.7773 21.4919 75.7563 21.5756L72.1635 32.15L75.7877 43.6501C75.8296 43.7547 75.7982 43.807 75.6936 43.807H72.1008C72.0067 43.807 71.9387 43.7547 71.8968 43.6501L69.7161 35.3506L67.5039 43.6501C67.4934 43.7547 67.4307 43.807 67.3156 43.807ZM81.4829 43.807H77.843C77.7384 43.807 77.6861 43.7547 77.6861 43.6501L77.7175 21.5756C77.7175 21.4919 77.7593 21.4501 77.843 21.4501H81.4515C81.5352 21.4501 81.577 21.4919 81.577 21.5756L81.6084 43.6501C81.6084 43.7547 81.5665 43.807 81.4829 43.807ZM91.2885 43.807H87.6644C87.5702 43.807 87.5231 43.7547 87.5231 43.6501V25.3253H83.3499C83.2453 25.3253 83.193 25.273 83.193 25.1684L83.2243 21.5756C83.2243 21.4919 83.2662 21.4501 83.3499 21.4501H95.556C95.671 21.4501 95.7285 21.4919 95.7285 21.5756V25.1684C95.7285 25.273 95.6867 25.3253 95.603 25.3253H91.3827L91.414 43.6501C91.414 43.7547 91.3722 43.807 91.2885 43.807Z" fill="white"/>
<path d="M41.4321 33.4293H14.4321M14.4321 33.4293L25.4321 25.4293M14.4321 33.4293L25.4321 40.4293" stroke="white" stroke-width="4" stroke-linecap="round" stroke-linejoin="round"/>
</svg>
