<svg width="142" height="98" viewBox="0 0 142 98" fill="none" xmlns="http://www.w3.org/2000/svg">
<path d="M12.1949 96.395H3.39368C3.19135 96.395 3.09019 96.2686 3.09019 96.0157L3.16606 42.6391C3.16606 42.4367 3.29252 42.3356 3.54543 42.3356H12.1949C12.4478 42.3356 12.5743 42.4367 12.5743 42.6391L12.4984 63.7697H24.1449V42.6391C24.1449 42.4367 24.2461 42.3356 24.4484 42.3356H33.0979C33.3508 42.3356 33.4773 42.4367 33.4773 42.6391L33.629 96.0157C33.629 96.2686 33.5026 96.395 33.2497 96.395H24.5243C24.2714 96.395 24.1449 96.2686 24.1449 96.0157V73.1779H12.4984V96.0157C12.4984 96.2686 12.3973 96.395 12.1949 96.395ZM56.5427 96.395H47.7793C47.5517 96.395 47.4379 96.2686 47.4379 96.0157V51.7059H37.3468C37.0939 51.7059 36.9675 51.5794 36.9675 51.3265L37.0433 42.6391C37.0433 42.4367 37.1445 42.3356 37.3468 42.3356H66.8614C67.1396 42.3356 67.2787 42.4367 67.2787 42.6391V51.3265C67.2787 51.5794 67.1775 51.7059 66.9752 51.7059H56.7703L56.8462 96.0157C56.8462 96.2686 56.745 96.395 56.5427 96.395ZM80.1771 96.395H71.3758C71.1735 96.395 71.0723 96.2686 71.0723 96.0157L71.2241 42.6391C71.2241 42.4367 71.3252 42.3356 71.5276 42.3356H81.0117C81.214 42.3356 81.3911 42.4367 81.5428 42.6391L88.6369 52.8819L95.6931 42.6391C95.8448 42.4367 96.0345 42.3356 96.2621 42.3356H105.784C106.012 42.3356 106.126 42.4367 106.126 42.6391L106.277 96.0157C106.277 96.2686 106.176 96.395 105.974 96.395H97.1726C96.9703 96.395 96.8691 96.2686 96.8691 96.0157L96.7933 56.3721L88.6369 68.2082L80.5565 56.3721L80.4806 96.0157C80.4806 96.2686 80.3794 96.395 80.1771 96.395ZM138.22 96.395H113.106C112.904 96.395 112.802 96.2686 112.802 96.0157L112.878 42.7149C112.878 42.462 113.005 42.3356 113.258 42.3356H121.907C122.16 42.3356 122.287 42.462 122.287 42.7149L122.211 86.835H138.22C138.473 86.835 138.599 86.9615 138.599 87.2144V96.0157C138.599 96.2686 138.473 96.395 138.22 96.395Z" fill="#7B7B7B"/>
<path d="M12.1949 95.0247H3.39368C3.19135 95.0247 3.09019 94.8982 3.09019 94.6453L3.16606 41.2687C3.16606 41.0664 3.29252 40.9652 3.54543 40.9652H12.1949C12.4478 40.9652 12.5743 41.0664 12.5743 41.2687L12.4984 62.3993H24.1449V41.2687C24.1449 41.0664 24.2461 40.9652 24.4484 40.9652H33.0979C33.3508 40.9652 33.4773 41.0664 33.4773 41.2687L33.629 94.6453C33.629 94.8982 33.5026 95.0247 33.2497 95.0247H24.5243C24.2714 95.0247 24.1449 94.8982 24.1449 94.6453V71.8075H12.4984V94.6453C12.4984 94.8982 12.3973 95.0247 12.1949 95.0247ZM56.5427 95.0247H47.7793C47.5517 95.0247 47.4379 94.8982 47.4379 94.6453V50.3355H37.3468C37.0939 50.3355 36.9675 50.209 36.9675 49.9561L37.0433 41.2687C37.0433 41.0664 37.1445 40.9652 37.3468 40.9652H66.8614C67.1396 40.9652 67.2787 41.0664 67.2787 41.2687V49.9561C67.2787 50.209 67.1775 50.3355 66.9752 50.3355H56.7703L56.8462 94.6453C56.8462 94.8982 56.745 95.0247 56.5427 95.0247ZM80.1771 95.0247H71.3758C71.1735 95.0247 71.0723 94.8982 71.0723 94.6453L71.2241 41.2687C71.2241 41.0664 71.3252 40.9652 71.5276 40.9652H81.0117C81.214 40.9652 81.3911 41.0664 81.5428 41.2687L88.6369 51.5115L95.6931 41.2687C95.8448 41.0664 96.0345 40.9652 96.2621 40.9652H105.784C106.012 40.9652 106.126 41.0664 106.126 41.2687L106.277 94.6453C106.277 94.8982 106.176 95.0247 105.974 95.0247H97.1726C96.9703 95.0247 96.8691 94.8982 96.8691 94.6453L96.7933 55.0017L88.6369 66.8379L80.5565 55.0017L80.4806 94.6453C80.4806 94.8982 80.3794 95.0247 80.1771 95.0247ZM138.22 95.0247H113.106C112.904 95.0247 112.802 94.8982 112.802 94.6453L112.878 41.3446C112.878 41.0917 113.005 40.9652 113.258 40.9652H121.907C122.16 40.9652 122.287 41.0917 122.287 41.3446L122.211 85.4647H138.22C138.473 85.4647 138.599 85.5911 138.599 85.844V94.6453C138.599 94.8982 138.473 95.0247 138.22 95.0247Z" fill="#C19D3E"/>
<path d="M12.1949 97.0801H3.39368C3.19135 97.0801 3.09019 96.9536 3.09019 96.7007L3.16606 43.3241C3.16606 43.1218 3.29252 43.0206 3.54543 43.0206H12.1949C12.4478 43.0206 12.5743 43.1218 12.5743 43.3241L12.4984 64.4547H24.1449V43.3241C24.1449 43.1218 24.2461 43.0206 24.4484 43.0206H33.0979C33.3508 43.0206 33.4773 43.1218 33.4773 43.3241L33.629 96.7007C33.629 96.9536 33.5026 97.0801 33.2497 97.0801H24.5243C24.2714 97.0801 24.1449 96.9536 24.1449 96.7007V73.863H12.4984V96.7007C12.4984 96.9536 12.3973 97.0801 12.1949 97.0801ZM56.5427 97.0801H47.7793C47.5517 97.0801 47.4379 96.9536 47.4379 96.7007V52.3909H37.3468C37.0939 52.3909 36.9675 52.2645 36.9675 52.0116L37.0433 43.3241C37.0433 43.1218 37.1445 43.0206 37.3468 43.0206H66.8614C67.1396 43.0206 67.2787 43.1218 67.2787 43.3241V52.0116C67.2787 52.2645 67.1775 52.3909 66.9752 52.3909H56.7703L56.8462 96.7007C56.8462 96.9536 56.745 97.0801 56.5427 97.0801ZM80.1771 97.0801H71.3758C71.1735 97.0801 71.0723 96.9536 71.0723 96.7007L71.2241 43.3241C71.2241 43.1218 71.3252 43.0206 71.5276 43.0206H81.0117C81.214 43.0206 81.3911 43.1218 81.5428 43.3241L88.6369 53.567L95.6931 43.3241C95.8448 43.1218 96.0345 43.0206 96.2621 43.0206H105.784C106.012 43.0206 106.126 43.1218 106.126 43.3241L106.277 96.7007C106.277 96.9536 106.176 97.0801 105.974 97.0801H97.1726C96.9703 97.0801 96.8691 96.9536 96.8691 96.7007L96.7933 57.0571L88.6369 68.8933L80.5565 57.0571L80.4806 96.7007C80.4806 96.9536 80.3794 97.0801 80.1771 97.0801ZM138.22 97.0801H113.106C112.904 97.0801 112.802 96.9536 112.802 96.7007L112.878 43.4C112.878 43.1471 113.005 43.0206 113.258 43.0206H121.907C122.16 43.0206 122.287 43.1471 122.287 43.4L122.211 87.5201H138.22C138.473 87.5201 138.599 87.6465 138.599 87.8995V96.7007C138.599 96.9536 138.473 97.0801 138.22 97.0801Z" fill="white"/>
</svg>
