<svg width="198" height="68" viewBox="0 0 198 68" fill="none" xmlns="http://www.w3.org/2000/svg">
<path d="M157.233 25.8768C157.326 25.787 157.45 25.7368 157.58 25.7368H166.159C166.592 25.7368 166.82 26.2516 166.529 26.5729L161.13 32.5202C161.036 32.6246 160.901 32.6842 160.76 32.6842H151.41C150.96 32.6842 150.739 32.1364 151.063 31.8242L157.233 25.8768Z" fill="black" fill-opacity="0.5"/>
<path d="M141.388 25.298C141.482 25.2082 141.606 25.158 141.735 25.158H150.314C150.748 25.158 150.976 25.6727 150.684 25.994L145.286 31.9414C145.191 32.0458 145.057 32.1053 144.916 32.1053H135.566C135.116 32.1053 134.895 31.5576 135.219 31.2454L141.388 25.298Z" fill="black" fill-opacity="0.5"/>
<path d="M109.37 24.719C109.463 24.6292 109.587 24.579 109.717 24.579H118.296C118.729 24.579 118.957 25.0938 118.666 25.415L113.267 31.3624C113.173 31.4668 113.038 31.5263 112.897 31.5263H103.547C103.097 31.5263 102.876 30.9786 103.2 30.6664L109.37 24.719Z" fill="black" fill-opacity="0.5"/>
<path d="M87.7487 24.14C87.8419 24.0502 87.9663 24 88.0957 24H96.6744C97.1083 24 97.3363 24.5148 97.0447 24.8361L91.6463 30.7834C91.5515 30.8878 91.417 30.9474 91.276 30.9474H81.9261C81.4762 30.9474 81.2552 30.3996 81.5791 30.0874L87.7487 24.14Z" fill="black" fill-opacity="0.5"/>
<path d="M32.8944 28.7796C32.9883 28.6849 33.1161 28.6316 33.2495 28.6316H165.807C166.273 28.6316 166.485 29.2121 166.13 29.5131L146.811 45.8815C146.72 45.958 146.606 46 146.487 46H17.0241C16.5797 46 16.3562 45.4636 16.669 45.148L32.8944 28.7796Z" fill="#7F740C"/>
<rect width="78.0089" height="44.8902" transform="matrix(0.938592 -0.345029 0.425107 0.905143 105.698 26.9153)" fill="url(#paint0_linear_148_7)"/>
<path d="M0 15H148.072V44L145.811 46L0 44V15Z" fill="#9F3737"/>
<rect x="2.2605" y="8" width="11.4445" height="9" rx="2.25" fill="#9F3737"/>
<rect x="23.8782" y="8" width="11.4445" height="9" rx="2.25" fill="#9F3737"/>
<rect x="45.4954" y="8" width="11.4445" height="9" rx="2.25" fill="#9F3737"/>
<rect x="67.1128" y="8" width="11.4445" height="9" rx="2.25" fill="#9F3737"/>
<rect x="88.7302" y="8" width="11.4445" height="9" rx="2.25" fill="#9F3737"/>
<rect x="110.347" y="8" width="11.4445" height="9" rx="2.25" fill="#9F3737"/>
<rect x="131.965" y="8" width="11.4445" height="9" rx="2.25" fill="#9F3737"/>
<rect y="17" width="145.811" height="29" fill="#FF1616"/>
<rect x="2.2605" y="10" width="11.4445" height="9" rx="2.25" fill="#FF1616"/>
<rect x="23.8782" y="10" width="11.4445" height="9" rx="2.25" fill="#FF1616"/>
<rect x="45.4954" y="10" width="11.4445" height="9" rx="2.25" fill="#FF1616"/>
<rect x="67.1128" y="10" width="11.4445" height="9" rx="2.25" fill="#FF1616"/>
<rect x="88.7302" y="10" width="11.4445" height="9" rx="2.25" fill="#FF1616"/>
<rect x="110.347" y="10" width="11.4445" height="9" rx="2.25" fill="#FF1616"/>
<rect x="131.965" y="10" width="11.4445" height="9" rx="2.25" fill="#FF1616"/>
<path d="M43.2394 39H40.5975C40.5216 39 40.4836 38.962 40.4836 38.8861L40.5064 22.8643C40.5064 22.8036 40.5368 22.7732 40.5975 22.7732H43.2166C43.2773 22.7732 43.3077 22.8036 43.3077 22.8643L43.3305 38.8861C43.3305 38.962 43.3001 39 43.2394 39ZM47.9195 39H45.5851C45.4637 39 45.4029 38.9469 45.4029 38.8406L45.3802 22.9554C45.3802 22.8339 45.4409 22.7732 45.5623 22.7732H47.669L51.609 31.9627L51.4951 22.9554C51.4951 22.8339 51.5634 22.7732 51.7001 22.7732H54.0117C54.1028 22.7732 54.1483 22.8339 54.1483 22.9554L54.1711 38.8634C54.1711 38.9545 54.1331 39 54.0572 39H52.0075L47.9651 30.414L48.1359 38.8178C48.1359 38.9393 48.0637 39 47.9195 39ZM58.9537 39H56.3119C56.236 39 56.198 38.962 56.198 38.8861L56.2208 22.8643C56.2208 22.8036 56.2512 22.7732 56.3119 22.7732H58.931C58.9917 22.7732 59.0221 22.8036 59.0221 22.8643L59.0448 38.8861C59.0448 38.962 59.0145 39 58.9537 39ZM65.3875 39.2277C64.5449 39.2277 63.7743 39.0152 63.0759 38.5901C62.3851 38.1649 61.8347 37.5956 61.4248 36.882C61.0224 36.1608 60.8212 35.3599 60.8212 34.4793L60.844 27.2028C60.844 26.3374 61.0414 25.5555 61.4361 24.8571C61.8309 24.1511 62.3737 23.5855 63.0645 23.1604C63.7629 22.7276 64.5373 22.5113 65.3875 22.5113C66.2529 22.5113 67.0235 22.7201 67.6991 23.1376C68.3824 23.5551 68.9251 24.1207 69.3275 24.8343C69.7374 25.5403 69.9424 26.3298 69.9424 27.2028V28.2732C69.9424 28.334 69.912 28.3643 69.8513 28.3643H67.2322C67.1715 28.3643 67.1411 28.334 67.1411 28.2732V27.2028C67.1411 26.6866 66.9741 26.2425 66.6401 25.8705C66.3061 25.4985 65.8886 25.3125 65.3875 25.3125C64.8333 25.3125 64.4082 25.5023 64.1121 25.8819C63.8161 26.2615 63.668 26.7018 63.668 27.2028V34.4793C63.668 35.0486 63.8351 35.5155 64.1691 35.8799C64.5031 36.2367 64.9093 36.4151 65.3875 36.4151C65.8886 36.4151 66.3061 36.2177 66.6401 35.823C66.9741 35.4206 67.1411 34.9727 67.1411 34.4793V33.3975C67.1411 33.3368 67.1715 33.3064 67.2322 33.3064H69.8741C69.9348 33.3064 69.9652 33.3368 69.9652 33.3975V34.4793C69.9652 35.3523 69.7602 36.1494 69.3503 36.8706C68.9327 37.5842 68.3824 38.1573 67.6991 38.5901C67.0159 39.0152 66.2454 39.2277 65.3875 39.2277ZM74.4176 39H71.7758C71.6998 39 71.6619 38.962 71.6619 38.8861L71.6847 22.8643C71.6847 22.8036 71.715 22.7732 71.7758 22.7732H74.3948C74.4555 22.7732 74.4859 22.8036 74.4859 22.8643L74.5087 38.8861C74.5087 38.962 74.4783 39 74.4176 39ZM75.7727 38.8861L78.665 22.8643C78.6802 22.8036 78.7182 22.7732 78.7789 22.7732H82.1609C82.2216 22.7732 82.2596 22.8036 82.2748 22.8643L85.0533 38.8861C85.0609 38.962 85.0305 39 84.9622 39H82.3773C82.3013 39 82.2596 38.962 82.252 38.8861L82.0015 37.178H78.8244L78.5739 38.8861C78.5663 38.962 78.5284 39 78.4601 39H75.8638C75.803 39 75.7727 38.962 75.7727 38.8861ZM80.339 28.1366L79.2913 34.6842H81.5346L80.5781 28.1366L80.4414 27.2712L80.339 28.1366ZM89.2438 39H86.6019C86.5412 39 86.5108 38.962 86.5108 38.8861L86.5564 22.8643C86.5564 22.8036 86.5867 22.7732 86.6475 22.7732H91.3618C92.2044 22.7732 92.9788 22.9782 93.6848 23.3881C94.3908 23.798 94.9526 24.3484 95.3701 25.0393C95.7952 25.7301 96.0078 26.512 96.0078 27.385C96.0078 27.9544 95.9205 28.4706 95.7459 28.9337C95.5713 29.3968 95.3663 29.7877 95.131 30.1066C94.9032 30.4254 94.6945 30.6608 94.5047 30.8126C95.3473 31.7463 95.7686 32.8433 95.7686 34.1035L95.7914 38.8861C95.7914 38.962 95.7535 39 95.6775 39H93.0357C92.975 39 92.9446 38.9772 92.9446 38.9317V34.1035C92.9446 33.5417 92.7472 33.0559 92.3525 32.6459C91.9577 32.236 91.4719 32.031 90.8949 32.031H89.3576L89.3349 38.8861C89.3349 38.962 89.3045 39 89.2438 39ZM91.3618 25.5631H89.3576V29.2298H91.3618C91.8401 29.2298 92.2652 29.0514 92.6372 28.6946C93.0167 28.3378 93.2065 27.9012 93.2065 27.385C93.2065 26.8916 93.0243 26.4665 92.6599 26.1097C92.2955 25.7453 91.8628 25.5631 91.3618 25.5631Z" fill="white"/>
<defs>
<linearGradient id="paint0_linear_148_7" x1="78.0089" y1="22.4451" x2="-4.25967e-07" y2="22.4451" gradientUnits="userSpaceOnUse">
<stop offset="0.143859" stop-color="#FFE500"/>
<stop offset="1" stop-color="#FFE500" stop-opacity="0"/>
</linearGradient>
</defs>
</svg>
