<svg width="198" height="68" viewBox="0 0 198 68" fill="none" xmlns="http://www.w3.org/2000/svg">
<path d="M157.233 25.8768C157.326 25.787 157.45 25.7368 157.58 25.7368H166.159C166.592 25.7368 166.82 26.2516 166.529 26.5729L161.13 32.5202C161.036 32.6246 160.901 32.6842 160.76 32.6842H151.41C150.96 32.6842 150.739 32.1364 151.063 31.8242L157.233 25.8768Z" fill="black" fill-opacity="0.5"/>
<path d="M141.388 25.298C141.482 25.2082 141.606 25.158 141.735 25.158H150.314C150.748 25.158 150.976 25.6727 150.684 25.994L145.286 31.9414C145.191 32.0458 145.057 32.1053 144.916 32.1053H135.566C135.116 32.1053 134.895 31.5576 135.219 31.2454L141.388 25.298Z" fill="black" fill-opacity="0.5"/>
<path d="M109.37 24.719C109.463 24.6292 109.587 24.579 109.717 24.579H118.296C118.729 24.579 118.957 25.0938 118.666 25.415L113.267 31.3624C113.173 31.4668 113.038 31.5263 112.897 31.5263H103.547C103.097 31.5263 102.876 30.9786 103.2 30.6664L109.37 24.719Z" fill="black" fill-opacity="0.5"/>
<path d="M87.7487 24.14C87.8419 24.0502 87.9663 24 88.0957 24H96.6744C97.1083 24 97.3363 24.5148 97.0447 24.8361L91.6463 30.7834C91.5515 30.8878 91.417 30.9474 91.276 30.9474H81.9261C81.4762 30.9474 81.2552 30.3996 81.5791 30.0874L87.7487 24.14Z" fill="black" fill-opacity="0.5"/>
<path d="M32.8944 28.7796C32.9883 28.6849 33.1161 28.6316 33.2495 28.6316H165.807C166.273 28.6316 166.485 29.2121 166.13 29.5131L146.811 45.8815C146.72 45.958 146.606 46 146.487 46H17.0241C16.5797 46 16.3562 45.4636 16.669 45.148L32.8944 28.7796Z" fill="#7F740C"/>
<rect width="78.0089" height="44.8902" transform="matrix(0.938592 -0.345029 0.425107 0.905143 105.698 26.9153)" fill="url(#paint0_linear_297_2)"/>
<path d="M0 15H148.072V44L145.811 46L0 44V15Z" fill="#9F3737"/>
<rect x="2.2605" y="8" width="11.4445" height="9" rx="2.25" fill="#9F3737"/>
<rect x="23.8782" y="8" width="11.4445" height="9" rx="2.25" fill="#9F3737"/>
<rect x="45.4954" y="8" width="11.4445" height="9" rx="2.25" fill="#9F3737"/>
<rect x="67.1128" y="8" width="11.4445" height="9" rx="2.25" fill="#9F3737"/>
<rect x="88.7302" y="8" width="11.4445" height="9" rx="2.25" fill="#9F3737"/>
<rect x="110.347" y="8" width="11.4445" height="9" rx="2.25" fill="#9F3737"/>
<rect x="131.965" y="8" width="11.4445" height="9" rx="2.25" fill="#9F3737"/>
<rect y="17" width="145.811" height="29" fill="#FF1616"/>
<rect x="2.2605" y="10" width="11.4445" height="9" rx="2.25" fill="#FF1616"/>
<rect x="23.8782" y="10" width="11.4445" height="9" rx="2.25" fill="#FF1616"/>
<rect x="45.4954" y="10" width="11.4445" height="9" rx="2.25" fill="#FF1616"/>
<rect x="67.1128" y="10" width="11.4445" height="9" rx="2.25" fill="#FF1616"/>
<rect x="88.7302" y="10" width="11.4445" height="9" rx="2.25" fill="#FF1616"/>
<rect x="110.347" y="10" width="11.4445" height="9" rx="2.25" fill="#FF1616"/>
<rect x="131.965" y="10" width="11.4445" height="9" rx="2.25" fill="#FF1616"/>
<path d="M58.5518 39H51.0135C50.9527 39 50.9224 38.962 50.9224 38.8861L50.9451 22.8871C50.9451 22.8112 50.9831 22.7732 51.059 22.7732H53.6553C53.7312 22.7732 53.7692 22.8112 53.7692 22.8871L53.7464 36.1304H58.5518C58.6277 36.1304 58.6657 36.1684 58.6657 36.2443V38.8861C58.6657 38.962 58.6277 39 58.5518 39ZM62.9473 39H60.3054C60.2295 39 60.1916 38.962 60.1916 38.8861L60.2143 22.8643C60.2143 22.8036 60.2447 22.7732 60.3054 22.7732H62.9245C62.9852 22.7732 63.0156 22.8036 63.0156 22.8643L63.0384 38.8861C63.0384 38.962 63.008 39 62.9473 39ZM70.5312 39H67.7071C67.6388 39 67.6009 38.962 67.5933 38.8861L64.3707 22.8643C64.3555 22.8036 64.3859 22.7732 64.4618 22.7732H67.1036C67.1644 22.7732 67.2023 22.8036 67.2175 22.8643L69.1305 33.5455L70.9981 22.8643C71.0132 22.8036 71.0512 22.7732 71.1119 22.7732H73.7196C73.8031 22.7732 73.8335 22.8036 73.8107 22.8643L70.645 38.8861C70.6375 38.962 70.5995 39 70.5312 39ZM77.9101 39H75.2683C75.2075 39 75.1772 38.962 75.1772 38.8861L75.2227 22.8643C75.2227 22.8036 75.2531 22.7732 75.3138 22.7732H80.0281C80.8708 22.7732 81.6451 22.9782 82.3511 23.3881C83.0571 23.798 83.6189 24.3484 84.0364 25.0393C84.4616 25.7301 84.6741 26.512 84.6741 27.385C84.6741 27.9544 84.5868 28.4706 84.4122 28.9337C84.2376 29.3968 84.0326 29.7877 83.7973 30.1066C83.5696 30.4254 83.3608 30.6608 83.171 30.8126C84.0137 31.7463 84.435 32.8433 84.435 34.1035L84.4578 38.8861C84.4578 38.962 84.4198 39 84.3439 39H81.702C81.6413 39 81.6109 38.9772 81.6109 38.9317V34.1035C81.6109 33.5417 81.4136 33.0559 81.0188 32.6459C80.6241 32.236 80.1382 32.031 79.5612 32.031H78.024L78.0012 38.8861C78.0012 38.962 77.9708 39 77.9101 39ZM80.0281 25.5631H78.024V29.2298H80.0281C80.5064 29.2298 80.9315 29.0514 81.3035 28.6946C81.6831 28.3378 81.8729 27.9012 81.8729 27.385C81.8729 26.8916 81.6907 26.4665 81.3263 26.1097C80.9619 25.7453 80.5292 25.5631 80.0281 25.5631ZM94.0572 39H86.5188C86.4581 39 86.4277 38.962 86.4277 38.8861L86.4505 22.8643C86.4505 22.8036 86.4809 22.7732 86.5416 22.7732H94.0344C94.0951 22.7732 94.1255 22.8112 94.1255 22.8871V25.4947C94.1255 25.5555 94.0951 25.5858 94.0344 25.5858H89.2518V29.2298H94.0344C94.0951 29.2298 94.1255 29.2601 94.1255 29.3209L94.1483 31.9627C94.1483 32.0234 94.1179 32.0538 94.0572 32.0538H89.2518V36.1304H94.0572C94.1179 36.1304 94.1483 36.1684 94.1483 36.2443V38.9089C94.1483 38.9696 94.1179 39 94.0572 39Z" fill="white"/>
<defs>
<linearGradient id="paint0_linear_297_2" x1="78.0089" y1="22.4451" x2="-4.25967e-07" y2="22.4451" gradientUnits="userSpaceOnUse">
<stop offset="0.143859" stop-color="#FFE500"/>
<stop offset="1" stop-color="#FFE500" stop-opacity="0"/>
</linearGradient>
</defs>
</svg>
