<svg width="268" height="187" viewBox="0 0 268 187" fill="none" xmlns="http://www.w3.org/2000/svg">
<path d="M8.5 4.5C8.5 2.29086 6.70914 0.5 4.5 0.5C2.29086 0.5 0.5 2.29086 0.5 4.5H8.5ZM4.5 104.5H0.5C0.5 106.709 2.29086 108.5 4.5 108.5L4.5 104.5ZM135 47.5V43.5C132.791 43.5 131 45.2909 131 47.5H135ZM261.5 47.5L264.184 50.4661C265.022 49.7078 265.5 48.6303 265.5 47.5C265.5 46.3697 265.022 45.2922 264.184 44.5339L261.5 47.5ZM135 162.5H131C131 164.709 132.791 166.5 135 166.5V162.5ZM261.5 162.5L264.259 165.397L267.192 162.603L264.362 159.705L261.5 162.5ZM243.184 25.5339C241.545 24.0517 239.016 24.1782 237.534 25.8163C236.052 27.4545 236.178 29.984 237.816 31.4661L243.184 25.5339ZM237.816 63.5339C236.178 65.016 236.052 67.5455 237.534 69.1837C239.016 70.8218 241.545 70.9483 243.184 69.4661L237.816 63.5339ZM243.362 138.205C241.818 136.625 239.285 136.595 237.705 138.138C236.125 139.682 236.095 142.215 237.638 143.795L243.362 138.205ZM237.741 179.603C236.142 181.127 236.08 183.659 237.603 185.259C239.127 186.858 241.659 186.92 243.259 185.397L237.741 179.603ZM0.5 4.5V104.5H8.5V4.5H0.5ZM4.5 108.5H135V100.5H4.5V108.5ZM139 104.5V47.5H131V104.5H139ZM135 51.5H261.5V43.5H135V51.5ZM131 104.5V162.5H139V104.5H131ZM135 166.5H261.5V158.5H135V166.5ZM264.184 44.5339L243.184 25.5339L237.816 31.4661L258.816 50.4661L264.184 44.5339ZM258.816 44.5339L237.816 63.5339L243.184 69.4661L264.184 50.4661L258.816 44.5339ZM264.362 159.705L243.362 138.205L237.638 143.795L258.638 165.295L264.362 159.705ZM258.741 159.603L237.741 179.603L243.259 185.397L264.259 165.397L258.741 159.603Z" fill="black"/>
</svg>
