<svg width="570" height="121" viewBox="0 0 570 121" fill="none" xmlns="http://www.w3.org/2000/svg">
<path d="M26.3624 79H5.76865C5.60274 79 5.51978 78.8963 5.51978 78.6889L5.582 34.9194C5.582 34.7535 5.66495 34.6705 5.83086 34.6705H26.3002C26.4661 34.6705 26.5491 34.7742 26.5491 34.9816V42.1054C26.5491 42.2714 26.4661 42.3543 26.3002 42.3543H13.2347V52.309H26.3002C26.4661 52.309 26.5491 52.392 26.5491 52.5579L26.6113 59.775C26.6113 59.9409 26.5283 60.0239 26.3624 60.0239H13.2347V71.1607H26.3624C26.5283 71.1607 26.6113 71.2644 26.6113 71.4718V78.7511C26.6113 78.917 26.5283 79 26.3624 79ZM43.0987 79.6222C40.8382 79.6222 38.7539 79.0415 36.8459 77.8801C34.9587 76.7187 33.4448 75.1737 32.3041 73.2449C31.1842 71.2955 30.6243 69.1594 30.6243 66.8366V63.9124C30.6243 63.6843 30.728 63.5702 30.9353 63.5702H38.0903C38.2562 63.5702 38.3391 63.6843 38.3391 63.9124V66.8366C38.3391 68.2261 38.8058 69.429 39.739 70.4452C40.6723 71.4407 41.7922 71.9384 43.0987 71.9384C44.426 71.9384 45.5563 71.4303 46.4895 70.4141C47.4228 69.3771 47.8894 68.1846 47.8894 66.8366C47.8894 65.2812 46.8732 63.9228 44.8408 62.7614C44.509 62.554 44.0735 62.3052 43.5342 62.0148C43.0158 61.7037 42.3936 61.3512 41.6677 60.9571C40.9419 60.5631 40.2368 60.1794 39.5524 59.8061C38.868 59.4121 38.2043 59.0388 37.5614 58.6862C35.2387 57.3174 33.507 55.6065 32.3663 53.5533C31.2464 51.4794 30.6865 49.1567 30.6865 46.585C30.6865 44.2208 31.2672 42.0847 32.4285 40.1767C33.5899 38.2895 35.1039 36.7963 36.9704 35.6971C38.8576 34.5772 40.9004 34.0173 43.0987 34.0173C45.3593 34.0173 47.4332 34.5772 49.3204 35.6971C51.2076 36.8378 52.7112 38.3517 53.8311 40.2389C54.9718 42.1262 55.5421 44.2415 55.5421 46.585V51.8113C55.5421 51.9772 55.4591 52.0601 55.2932 52.0601H48.1383C47.9724 52.0601 47.8894 51.9772 47.8894 51.8113L47.8272 46.585C47.8272 45.0918 47.3606 43.8786 46.4273 42.9454C45.4941 42.0121 44.3845 41.5455 43.0987 41.5455C41.7922 41.5455 40.6723 42.0432 39.739 43.0387C38.8058 44.0342 38.3391 45.2163 38.3391 46.585C38.3391 47.9746 38.6295 49.1359 39.2102 50.0692C39.8116 51.0024 40.9004 51.8942 42.4766 52.7445C42.6425 52.8275 43.0261 53.0349 43.6276 53.3667C44.229 53.6985 44.8926 54.0718 45.6185 54.4866C46.3651 54.8806 47.0391 55.2436 47.6406 55.5754C48.242 55.8865 48.6049 56.0731 48.7293 56.1353C50.8447 57.3174 52.5142 58.7692 53.7378 60.4905C54.9821 62.2118 55.6043 64.3272 55.6043 66.8366C55.6043 69.2631 55.0443 71.4407 53.9244 73.3694C52.7838 75.2981 51.2699 76.8224 49.3826 77.9423C47.4954 79.0622 45.4007 79.6222 43.0987 79.6222ZM72.3095 79H65.1235C64.9368 79 64.8435 78.8963 64.8435 78.6889V42.3543H56.5687C56.3613 42.3543 56.2576 42.2506 56.2576 42.0432L56.3198 34.9194C56.3198 34.7535 56.4027 34.6705 56.5687 34.6705H80.771C80.9991 34.6705 81.1132 34.7535 81.1132 34.9194V42.0432C81.1132 42.2506 81.0302 42.3543 80.8643 42.3543H72.4962L72.5584 78.6889C72.5584 78.8963 72.4754 79 72.3095 79ZM91.69 79H84.4729C84.307 79 84.224 78.8963 84.224 78.6889L84.3485 34.9194C84.3485 34.7535 84.4314 34.6705 84.5973 34.6705H97.4762C99.7782 34.6705 101.894 35.2305 103.822 36.3504C105.751 37.4703 107.286 38.9739 108.426 40.8611C109.588 42.7483 110.168 44.8845 110.168 47.2694C110.168 48.8249 109.93 50.2351 109.453 51.5002C108.976 52.7653 108.416 53.8333 107.773 54.7043C107.151 55.5754 106.581 56.2183 106.062 56.6331C108.364 59.184 109.515 62.1807 109.515 65.6234L109.577 78.6889C109.577 78.8963 109.474 79 109.266 79H102.049C101.883 79 101.8 78.9378 101.8 78.8133V65.6234C101.8 64.0887 101.261 62.7614 100.183 61.6415C99.1042 60.5216 97.7769 59.9617 96.2008 59.9617H92.0011L91.9389 78.6889C91.9389 78.8963 91.856 79 91.69 79ZM97.4762 42.2921H92.0011V52.309H97.4762C98.7828 52.309 99.9441 51.8216 100.96 50.8469C101.997 49.8722 102.516 48.6797 102.516 47.2694C102.516 45.9214 102.018 44.76 101.023 43.7853C100.027 42.7898 98.845 42.2921 97.4762 42.2921ZM126.065 79.6222C123.825 79.6222 121.751 79.0415 119.843 77.8801C117.935 76.7187 116.411 75.1633 115.27 73.2138C114.15 71.2436 113.59 69.0972 113.59 66.7744L113.715 34.9194C113.715 34.7535 113.798 34.6705 113.964 34.6705H121.119C121.284 34.6705 121.367 34.7535 121.367 34.9194V66.7744C121.367 68.2054 121.824 69.429 122.736 70.4452C123.649 71.4407 124.758 71.9384 126.065 71.9384C127.434 71.9384 128.574 71.4407 129.487 70.4452C130.399 69.429 130.856 68.2054 130.856 66.7744V34.9194C130.856 34.7535 130.938 34.6705 131.104 34.6705H138.259C138.425 34.6705 138.508 34.7535 138.508 34.9194L138.633 66.7744C138.633 69.1179 138.073 71.2747 136.953 73.2449C135.812 75.1944 134.298 76.7498 132.411 77.9112C130.524 79.0518 128.408 79.6222 126.065 79.6222ZM157.235 79H150.049C149.863 79 149.769 78.8963 149.769 78.6889V42.3543H141.495C141.287 42.3543 141.184 42.2506 141.184 42.0432L141.246 34.9194C141.246 34.7535 141.329 34.6705 141.495 34.6705H165.697C165.925 34.6705 166.039 34.7535 166.039 34.9194V42.0432C166.039 42.2506 165.956 42.3543 165.79 42.3543H157.422L157.484 78.6889C157.484 78.8963 157.401 79 157.235 79ZM180.878 79.6222C178.638 79.6222 176.564 79.0415 174.656 77.8801C172.748 76.7187 171.224 75.1633 170.083 73.2138C168.963 71.2436 168.403 69.0972 168.403 66.7744L168.528 34.9194C168.528 34.7535 168.611 34.6705 168.777 34.6705H175.932C176.097 34.6705 176.18 34.7535 176.18 34.9194V66.7744C176.18 68.2054 176.637 69.429 177.549 70.4452C178.462 71.4407 179.571 71.9384 180.878 71.9384C182.247 71.9384 183.387 71.4407 184.3 70.4452C185.212 69.429 185.669 68.2054 185.669 66.7744V34.9194C185.669 34.7535 185.751 34.6705 185.917 34.6705H193.072C193.238 34.6705 193.321 34.7535 193.321 34.9194L193.446 66.7744C193.446 69.1179 192.886 71.2747 191.766 73.2449C190.625 75.1944 189.111 76.7498 187.224 77.9112C185.337 79.0518 183.221 79.6222 180.878 79.6222ZM205.92 79H198.703C198.537 79 198.454 78.8963 198.454 78.6889L198.578 34.9194C198.578 34.7535 198.661 34.6705 198.827 34.6705H211.706C214.008 34.6705 216.124 35.2305 218.052 36.3504C219.981 37.4703 221.516 38.9739 222.656 40.8611C223.818 42.7483 224.398 44.8845 224.398 47.2694C224.398 48.8249 224.16 50.2351 223.683 51.5002C223.206 52.7653 222.646 53.8333 222.003 54.7043C221.381 55.5754 220.811 56.2183 220.292 56.6331C222.594 59.184 223.745 62.1807 223.745 65.6234L223.807 78.6889C223.807 78.8963 223.704 79 223.496 79H216.279C216.113 79 216.03 78.9378 216.03 78.8133V65.6234C216.03 64.0887 215.491 62.7614 214.413 61.6415C213.334 60.5216 212.007 59.9617 210.431 59.9617H206.231L206.169 78.6889C206.169 78.8963 206.086 79 205.92 79ZM211.706 42.2921H206.231V52.309H211.706C213.013 52.309 214.174 51.8216 215.19 50.8469C216.227 49.8722 216.746 48.6797 216.746 47.2694C216.746 45.9214 216.248 44.76 215.253 43.7853C214.257 42.7898 213.075 42.2921 211.706 42.2921ZM227.043 78.6889L234.944 34.9194C234.986 34.7535 235.089 34.6705 235.255 34.6705H244.494C244.66 34.6705 244.764 34.7535 244.806 34.9194L252.396 78.6889C252.417 78.8963 252.334 79 252.147 79H245.086C244.878 79 244.764 78.8963 244.743 78.6889L244.059 74.0227H235.38L234.695 78.6889C234.675 78.8963 234.571 79 234.384 79H227.292C227.126 79 227.043 78.8963 227.043 78.6889ZM239.517 49.3226L236.655 67.2099H242.784L240.17 49.3226L239.797 46.9584L239.517 49.3226ZM284.655 78.9378L273.239 79C273.031 79 272.928 78.8963 272.928 78.6889L273.052 34.9194C273.052 34.7535 273.135 34.6705 273.301 34.6705L285.215 34.6083C287.58 34.5461 289.716 35.0853 291.624 36.226C293.552 37.3666 295.087 38.9116 296.228 40.8611C297.389 42.7898 297.97 44.9259 297.97 47.2694V65.5612C297.97 68.0084 297.379 70.2482 296.197 72.2806C294.994 74.2923 293.397 75.8995 291.406 77.1024C289.415 78.2845 287.165 78.8963 284.655 78.9378ZM285.215 42.2299L280.767 42.2921L280.705 71.1607H284.655C286.232 71.1607 287.559 70.6111 288.637 69.5119C289.716 68.4128 290.255 67.0959 290.255 65.5612V47.2072C290.255 45.8592 289.757 44.6874 288.762 43.692C287.766 42.6758 286.584 42.1884 285.215 42.2299ZM314.768 79.6222C312.508 79.6222 310.424 79.0415 308.516 77.8801C306.628 76.7187 305.104 75.1737 303.943 73.2449C302.802 71.2955 302.232 69.1594 302.232 66.8366L302.294 46.6473C302.294 44.283 302.864 42.1573 304.005 40.27C305.125 38.3621 306.639 36.8378 308.547 35.6971C310.455 34.5357 312.529 33.955 314.768 33.955C317.091 33.955 319.175 34.5254 321.021 35.666C322.888 36.8066 324.381 38.3413 325.501 40.27C326.641 42.178 327.212 44.3038 327.212 46.6473L327.274 66.8366C327.274 69.1594 326.714 71.2851 325.594 73.2138C324.453 75.1633 322.939 76.7187 321.052 77.8801C319.165 79.0415 317.07 79.6222 314.768 79.6222ZM314.768 71.9384C316.054 71.9384 317.174 71.4199 318.128 70.383C319.082 69.3253 319.559 68.1432 319.559 66.8366L319.497 46.6473C319.497 45.237 319.051 44.0445 318.159 43.0698C317.267 42.0951 316.137 41.6077 314.768 41.6077C313.462 41.6077 312.342 42.0847 311.409 43.0387C310.475 43.9927 310.009 45.1955 310.009 46.6473V66.8366C310.009 68.2261 310.475 69.429 311.409 70.4452C312.342 71.4407 313.462 71.9384 314.768 71.9384ZM356.111 79H348.894C348.728 79 348.645 78.8963 348.645 78.6889L348.708 34.9194C348.708 34.7535 348.811 34.6705 349.019 34.6705H356.111C356.319 34.6705 356.423 34.7535 356.423 34.9194L356.36 52.2468H365.911V34.9194C365.911 34.7535 365.994 34.6705 366.159 34.6705H373.252C373.46 34.6705 373.563 34.7535 373.563 34.9194L373.688 78.6889C373.688 78.8963 373.584 79 373.377 79H366.222C366.014 79 365.911 78.8963 365.911 78.6889V59.9617H356.36V78.6889C356.36 78.8963 356.277 79 356.111 79ZM392.477 79H385.291C385.104 79 385.011 78.8963 385.011 78.6889V42.3543H376.736C376.529 42.3543 376.425 42.2506 376.425 42.0432L376.487 34.9194C376.487 34.7535 376.57 34.6705 376.736 34.6705H400.939C401.167 34.6705 401.281 34.7535 401.281 34.9194V42.0432C401.281 42.2506 401.198 42.3543 401.032 42.3543H392.664L392.726 78.6889C392.726 78.8963 392.643 79 392.477 79ZM411.858 79H404.641C404.475 79 404.392 78.8963 404.392 78.6889L404.516 34.9194C404.516 34.7535 404.599 34.6705 404.765 34.6705H412.542C412.708 34.6705 412.853 34.7535 412.978 34.9194L418.795 43.3187L424.581 34.9194C424.705 34.7535 424.861 34.6705 425.048 34.6705H432.856C433.043 34.6705 433.136 34.7535 433.136 34.9194L433.26 78.6889C433.26 78.8963 433.177 79 433.011 79H425.794C425.628 79 425.545 78.8963 425.545 78.6889L425.483 46.1806L418.795 55.8865L412.169 46.1806L412.107 78.6889C412.107 78.8963 412.024 79 411.858 79ZM459.454 79H438.86C438.694 79 438.611 78.8963 438.611 78.6889L438.673 34.9816C438.673 34.7742 438.777 34.6705 438.984 34.6705H446.077C446.284 34.6705 446.388 34.7742 446.388 34.9816L446.326 71.1607H459.454C459.661 71.1607 459.765 71.2644 459.765 71.4718V78.6889C459.765 78.8963 459.661 79 459.454 79Z" fill="#C19D3E"/>
<path d="M23.3624 78H2.76865C2.60274 78 2.51978 77.8963 2.51978 77.6889L2.582 33.9194C2.582 33.7535 2.66495 33.6705 2.83086 33.6705H23.3002C23.4661 33.6705 23.5491 33.7742 23.5491 33.9816V41.1054C23.5491 41.2714 23.4661 41.3543 23.3002 41.3543H10.2347V51.309H23.3002C23.4661 51.309 23.5491 51.392 23.5491 51.5579L23.6113 58.775C23.6113 58.9409 23.5283 59.0239 23.3624 59.0239H10.2347V70.1607H23.3624C23.5283 70.1607 23.6113 70.2644 23.6113 70.4718V77.7511C23.6113 77.917 23.5283 78 23.3624 78ZM40.0987 78.6222C37.8382 78.6222 35.7539 78.0415 33.8459 76.8801C31.9587 75.7187 30.4448 74.1737 29.3041 72.2449C28.1842 70.2955 27.6243 68.1594 27.6243 65.8366V62.9124C27.6243 62.6843 27.728 62.5702 27.9353 62.5702H35.0903C35.2562 62.5702 35.3391 62.6843 35.3391 62.9124V65.8366C35.3391 67.2261 35.8058 68.429 36.739 69.4452C37.6723 70.4407 38.7922 70.9384 40.0987 70.9384C41.426 70.9384 42.5563 70.4303 43.4895 69.4141C44.4228 68.3771 44.8894 67.1846 44.8894 65.8366C44.8894 64.2812 43.8732 62.9228 41.8408 61.7614C41.509 61.554 41.0735 61.3052 40.5342 61.0148C40.0158 60.7037 39.3936 60.3512 38.6677 59.9571C37.9419 59.5631 37.2368 59.1794 36.5524 58.8061C35.868 58.4121 35.2043 58.0388 34.5614 57.6862C32.2387 56.3174 30.507 54.6065 29.3663 52.5533C28.2464 50.4794 27.6865 48.1567 27.6865 45.585C27.6865 43.2208 28.2672 41.0847 29.4285 39.1767C30.5899 37.2895 32.1039 35.7963 33.9704 34.6971C35.8576 33.5772 37.9004 33.0173 40.0987 33.0173C42.3593 33.0173 44.4332 33.5772 46.3204 34.6971C48.2076 35.8378 49.7112 37.3517 50.8311 39.2389C51.9718 41.1262 52.5421 43.2415 52.5421 45.585V50.8113C52.5421 50.9772 52.4591 51.0601 52.2932 51.0601H45.1383C44.9724 51.0601 44.8894 50.9772 44.8894 50.8113L44.8272 45.585C44.8272 44.0918 44.3606 42.8786 43.4273 41.9454C42.4941 41.0121 41.3845 40.5455 40.0987 40.5455C38.7922 40.5455 37.6723 41.0432 36.739 42.0387C35.8058 43.0342 35.3391 44.2163 35.3391 45.585C35.3391 46.9746 35.6295 48.1359 36.2102 49.0692C36.8116 50.0024 37.9004 50.8942 39.4766 51.7445C39.6425 51.8275 40.0261 52.0349 40.6276 52.3667C41.229 52.6985 41.8926 53.0718 42.6185 53.4866C43.3651 53.8806 44.0391 54.2436 44.6406 54.5754C45.242 54.8865 45.6049 55.0731 45.7293 55.1353C47.8447 56.3174 49.5142 57.7692 50.7378 59.4905C51.9821 61.2118 52.6043 63.3272 52.6043 65.8366C52.6043 68.2631 52.0443 70.4407 50.9244 72.3694C49.7838 74.2981 48.2699 75.8224 46.3826 76.9423C44.4954 78.0622 42.4007 78.6222 40.0987 78.6222ZM70.6161 78H63.43C63.2434 78 63.15 77.8963 63.15 77.6889V41.3543H54.8752C54.6678 41.3543 54.5641 41.2506 54.5641 41.0432L54.6263 33.9194C54.6263 33.7535 54.7093 33.6705 54.8752 33.6705H79.0775C79.3057 33.6705 79.4197 33.7535 79.4197 33.9194V41.0432C79.4197 41.2506 79.3368 41.3543 79.1709 41.3543H70.8027L70.8649 77.6889C70.8649 77.8963 70.782 78 70.6161 78ZM89.9966 78H82.7795C82.6135 78 82.5306 77.8963 82.5306 77.6889L82.655 33.9194C82.655 33.7535 82.738 33.6705 82.9039 33.6705H95.7828C98.0848 33.6705 100.2 34.2305 102.129 35.3504C104.058 36.4703 105.592 37.9739 106.733 39.8611C107.894 41.7483 108.475 43.8845 108.475 46.2694C108.475 47.8249 108.236 49.2351 107.759 50.5002C107.282 51.7653 106.723 52.8333 106.08 53.7043C105.457 54.5754 104.887 55.2183 104.369 55.6331C106.671 58.184 107.822 61.1807 107.822 64.6234L107.884 77.6889C107.884 77.8963 107.78 78 107.573 78H100.356C100.19 78 100.107 77.9378 100.107 77.8133V64.6234C100.107 63.0887 99.5676 61.7614 98.4892 60.6415C97.4108 59.5216 96.0835 58.9617 94.5073 58.9617H90.3077L90.2455 77.6889C90.2455 77.8963 90.1625 78 89.9966 78ZM95.7828 41.2921H90.3077V51.309H95.7828C97.0893 51.309 98.2507 50.8216 99.2669 49.8469C100.304 48.8722 100.822 47.6797 100.822 46.2694C100.822 44.9214 100.325 43.76 99.3291 42.7853C98.3336 41.7898 97.1515 41.2921 95.7828 41.2921ZM124.994 78.6222C122.754 78.6222 120.68 78.0415 118.772 76.8801C116.864 75.7187 115.34 74.1633 114.199 72.2138C113.079 70.2436 112.519 68.0972 112.519 65.7744L112.644 33.9194C112.644 33.7535 112.726 33.6705 112.892 33.6705H120.047C120.213 33.6705 120.296 33.7535 120.296 33.9194V65.7744C120.296 67.2054 120.752 68.429 121.665 69.4452C122.577 70.4407 123.687 70.9384 124.994 70.9384C126.362 70.9384 127.503 70.4407 128.415 69.4452C129.328 68.429 129.784 67.2054 129.784 65.7744V33.9194C129.784 33.7535 129.867 33.6705 130.033 33.6705H137.188C137.354 33.6705 137.437 33.7535 137.437 33.9194L137.561 65.7744C137.561 68.1179 137.001 70.2747 135.881 72.2449C134.741 74.1944 133.227 75.7498 131.34 76.9112C129.452 78.0518 127.337 78.6222 124.994 78.6222ZM156.164 78H148.978C148.791 78 148.698 77.8963 148.698 77.6889V41.3543H140.423C140.216 41.3543 140.112 41.2506 140.112 41.0432L140.174 33.9194C140.174 33.7535 140.257 33.6705 140.423 33.6705H164.626C164.854 33.6705 164.968 33.7535 164.968 33.9194V41.0432C164.968 41.2506 164.885 41.3543 164.719 41.3543H156.351L156.413 77.6889C156.413 77.8963 156.33 78 156.164 78ZM179.807 78.6222C177.567 78.6222 175.493 78.0415 173.585 76.8801C171.677 75.7187 170.153 74.1633 169.012 72.2138C167.892 70.2436 167.332 68.0972 167.332 65.7744L167.457 33.9194C167.457 33.7535 167.539 33.6705 167.705 33.6705H174.86C175.026 33.6705 175.109 33.7535 175.109 33.9194V65.7744C175.109 67.2054 175.565 68.429 176.478 69.4452C177.39 70.4407 178.5 70.9384 179.807 70.9384C181.175 70.9384 182.316 70.4407 183.228 69.4452C184.141 68.429 184.597 67.2054 184.597 65.7744V33.9194C184.597 33.7535 184.68 33.6705 184.846 33.6705H192.001C192.167 33.6705 192.25 33.7535 192.25 33.9194L192.374 65.7744C192.374 68.1179 191.814 70.2747 190.694 72.2449C189.554 74.1944 188.04 75.7498 186.153 76.9112C184.265 78.0518 182.15 78.6222 179.807 78.6222ZM204.849 78H197.632C197.466 78 197.383 77.8963 197.383 77.6889L197.507 33.9194C197.507 33.7535 197.59 33.6705 197.756 33.6705H210.635C212.937 33.6705 215.052 34.2305 216.981 35.3504C218.91 36.4703 220.444 37.9739 221.585 39.8611C222.747 41.7483 223.327 43.8845 223.327 46.2694C223.327 47.8249 223.089 49.2351 222.612 50.5002C222.135 51.7653 221.575 52.8333 220.932 53.7043C220.31 54.5754 219.739 55.2183 219.221 55.6331C221.523 58.184 222.674 61.1807 222.674 64.6234L222.736 77.6889C222.736 77.8963 222.632 78 222.425 78H215.208C215.042 78 214.959 77.9378 214.959 77.8133V64.6234C214.959 63.0887 214.42 61.7614 213.341 60.6415C212.263 59.5216 210.936 58.9617 209.36 58.9617H205.16L205.098 77.6889C205.098 77.8963 205.015 78 204.849 78ZM210.635 41.2921H205.16V51.309H210.635C211.942 51.309 213.103 50.8216 214.119 49.8469C215.156 48.8722 215.675 47.6797 215.675 46.2694C215.675 44.9214 215.177 43.76 214.181 42.7853C213.186 41.7898 212.004 41.2921 210.635 41.2921ZM224.665 77.6889L232.566 33.9194C232.608 33.7535 232.712 33.6705 232.877 33.6705H242.117C242.283 33.6705 242.386 33.7535 242.428 33.9194L250.018 77.6889C250.039 77.8963 249.956 78 249.769 78H242.708C242.5 78 242.386 77.8963 242.366 77.6889L241.681 73.0227H233.002L232.318 77.6889C232.297 77.8963 232.193 78 232.006 78H224.914C224.748 78 224.665 77.8963 224.665 77.6889ZM237.139 48.3226L234.277 66.2099H240.406L237.793 48.3226L237.419 45.9584L237.139 48.3226ZM282.278 77.9378L270.861 78C270.653 78 270.55 77.8963 270.55 77.6889L270.674 33.9194C270.674 33.7535 270.757 33.6705 270.923 33.6705L282.838 33.6083C285.202 33.5461 287.338 34.0853 289.246 35.226C291.175 36.3666 292.709 37.9116 293.85 39.8611C295.011 41.7898 295.592 43.9259 295.592 46.2694V64.5612C295.592 67.0084 295.001 69.2482 293.819 71.2806C292.616 73.2923 291.019 74.8995 289.028 76.1024C287.037 77.2845 284.787 77.8963 282.278 77.9378ZM282.838 41.2299L278.389 41.2921L278.327 70.1607H282.278C283.854 70.1607 285.181 69.6111 286.259 68.5119C287.338 67.4128 287.877 66.0959 287.877 64.5612V46.2072C287.877 44.8592 287.379 43.6874 286.384 42.692C285.388 41.6758 284.206 41.1884 282.838 41.2299ZM312.391 78.6222C310.13 78.6222 308.046 78.0415 306.138 76.8801C304.25 75.7187 302.726 74.1737 301.565 72.2449C300.424 70.2955 299.854 68.1594 299.854 65.8366L299.916 45.6473C299.916 43.283 300.486 41.1573 301.627 39.27C302.747 37.3621 304.261 35.8378 306.169 34.6971C308.077 33.5357 310.151 32.955 312.391 32.955C314.713 32.955 316.798 33.5254 318.643 34.666C320.51 35.8066 322.003 37.3413 323.123 39.27C324.264 41.178 324.834 43.3038 324.834 45.6473L324.896 65.8366C324.896 68.1594 324.336 70.2851 323.216 72.2138C322.076 74.1633 320.562 75.7187 318.674 76.8801C316.787 78.0415 314.693 78.6222 312.391 78.6222ZM312.391 70.9384C313.676 70.9384 314.796 70.4199 315.75 69.383C316.704 68.3253 317.181 67.1432 317.181 65.8366L317.119 45.6473C317.119 44.237 316.673 43.0445 315.781 42.0698C314.89 41.0951 313.759 40.6077 312.391 40.6077C311.084 40.6077 309.964 41.0847 309.031 42.0387C308.098 42.9927 307.631 44.1955 307.631 45.6473V65.8366C307.631 67.2261 308.098 68.429 309.031 69.4452C309.964 70.4407 311.084 70.9384 312.391 70.9384ZM353.734 78H346.516C346.351 78 346.268 77.8963 346.268 77.6889L346.33 33.9194C346.33 33.7535 346.433 33.6705 346.641 33.6705H353.734C353.941 33.6705 354.045 33.7535 354.045 33.9194L353.982 51.2468H363.533V33.9194C363.533 33.7535 363.616 33.6705 363.782 33.6705H370.874C371.082 33.6705 371.185 33.7535 371.185 33.9194L371.31 77.6889C371.31 77.8963 371.206 78 370.999 78H363.844C363.636 78 363.533 77.8963 363.533 77.6889V58.9617H353.982V77.6889C353.982 77.8963 353.9 78 353.734 78ZM390.099 78H382.913C382.727 78 382.633 77.8963 382.633 77.6889V41.3543H374.358C374.151 41.3543 374.047 41.2506 374.047 41.0432L374.11 33.9194C374.11 33.7535 374.193 33.6705 374.358 33.6705H398.561C398.789 33.6705 398.903 33.7535 398.903 33.9194V41.0432C398.903 41.2506 398.82 41.3543 398.654 41.3543H390.286L390.348 77.6889C390.348 77.8963 390.265 78 390.099 78ZM409.48 78H402.263C402.097 78 402.014 77.8963 402.014 77.6889L402.138 33.9194C402.138 33.7535 402.221 33.6705 402.387 33.6705H410.164C410.33 33.6705 410.475 33.7535 410.6 33.9194L416.417 42.3187L422.203 33.9194C422.328 33.7535 422.483 33.6705 422.67 33.6705H430.478C430.665 33.6705 430.758 33.7535 430.758 33.9194L430.882 77.6889C430.882 77.8963 430.799 78 430.634 78H423.416C423.25 78 423.168 77.8963 423.168 77.6889L423.105 45.1806L416.417 54.8865L409.791 45.1806L409.729 77.6889C409.729 77.8963 409.646 78 409.48 78ZM457.076 78H436.482C436.316 78 436.233 77.8963 436.233 77.6889L436.295 33.9816C436.295 33.7742 436.399 33.6705 436.606 33.6705H443.699C443.906 33.6705 444.01 33.7742 444.01 33.9816L443.948 70.1607H457.076C457.283 70.1607 457.387 70.2644 457.387 70.4718V77.6889C457.387 77.8963 457.283 78 457.076 78Z" fill="white"/>
</svg>
