<svg width="311" height="115" viewBox="0 0 311 115" fill="none" xmlns="http://www.w3.org/2000/svg">
<path d="M9.12412 77.6889L17.0257 33.9194C17.0671 33.7535 17.1708 33.6705 17.3367 33.6705H26.5759C26.7418 33.6705 26.8455 33.7535 26.887 33.9194L34.4775 77.6889C34.4982 77.8963 34.4153 78 34.2286 78H27.167C26.9596 78 26.8455 77.8963 26.8248 77.6889L26.1404 73.0227H17.4612L16.7768 77.6889C16.7561 77.8963 16.6524 78 16.4657 78H9.37299C9.20708 78 9.12412 77.8963 9.12412 77.6889ZM21.5986 48.3226L18.7366 66.2099H24.865L22.2519 48.3226L21.8786 45.9584L21.5986 48.3226ZM45.3965 78H39.0193C38.6875 78 38.5216 77.8548 38.5216 77.5645L38.4593 34.1683C38.4593 33.8364 38.6253 33.6705 38.9571 33.6705H44.7121L55.4756 58.775L55.1646 34.1683C55.1646 33.8364 55.3512 33.6705 55.7245 33.6705H62.0395C62.2884 33.6705 62.4128 33.8364 62.4128 34.1683L62.475 77.6267C62.475 77.8756 62.3713 78 62.1639 78H56.5644L45.521 54.5443L45.9876 77.5023C45.9876 77.8341 45.7906 78 45.3965 78ZM75.5406 78H68.3234C68.116 78 68.0123 77.8963 68.0123 77.6889L68.0745 33.9194C68.0745 33.7535 68.1575 33.6705 68.3234 33.6705H75.4783C75.6442 33.6705 75.7272 33.7535 75.7272 33.9194L75.7894 77.6889C75.7894 77.8963 75.7065 78 75.5406 78ZM88.3261 78H81.9489C81.6171 78 81.4512 77.8548 81.4512 77.5645L81.3889 34.1683C81.3889 33.8364 81.5548 33.6705 81.8867 33.6705H87.6417L98.4052 58.775L98.0941 34.1683C98.0941 33.8364 98.2808 33.6705 98.6541 33.6705H104.969C105.218 33.6705 105.342 33.8364 105.342 34.1683L105.405 77.6267C105.405 77.8756 105.301 78 105.094 78H99.494L88.4505 54.5443L88.9172 77.5023C88.9172 77.8341 88.7201 78 88.3261 78ZM118.408 78H111.191C111.025 78 110.942 77.8963 110.942 77.6889L111.004 33.9194C111.004 33.7535 111.108 33.6705 111.315 33.6705H118.408C118.615 33.6705 118.719 33.7535 118.719 33.9194L118.657 51.2468H128.207V33.9194C128.207 33.7535 128.29 33.6705 128.456 33.6705H135.549C135.756 33.6705 135.86 33.7535 135.86 33.9194L135.984 77.6889C135.984 77.8963 135.88 78 135.673 78H128.518C128.311 78 128.207 77.8963 128.207 77.6889V58.9617H118.657V77.6889C118.657 77.8963 118.574 78 118.408 78ZM139.033 77.6889L146.934 33.9194C146.976 33.7535 147.08 33.6705 147.245 33.6705H156.485C156.651 33.6705 156.754 33.7535 156.796 33.9194L164.386 77.6889C164.407 77.8963 164.324 78 164.137 78H157.076C156.868 78 156.754 77.8963 156.733 77.6889L156.049 73.0227H147.37L146.685 77.6889C146.665 77.8963 146.561 78 146.374 78H139.282C139.116 78 139.033 77.8963 139.033 77.6889ZM151.507 48.3226L148.645 66.2099H154.774L152.161 48.3226L151.787 45.9584L151.507 48.3226ZM175.834 78H168.617C168.451 78 168.368 77.8963 168.368 77.6889L168.492 33.9194C168.492 33.7535 168.575 33.6705 168.741 33.6705H176.518C176.684 33.6705 176.83 33.7535 176.954 33.9194L182.771 42.3187L188.557 33.9194C188.682 33.7535 188.837 33.6705 189.024 33.6705H196.832C197.019 33.6705 197.112 33.7535 197.112 33.9194L197.237 77.6889C197.237 77.8963 197.154 78 196.988 78H189.771C189.605 78 189.522 77.8963 189.522 77.6889L189.46 45.1806L182.771 54.8865L176.145 45.1806L176.083 77.6889C176.083 77.8963 176 78 175.834 78ZM223.43 78H202.836C202.67 78 202.587 77.8963 202.587 77.6889L202.649 33.9194C202.649 33.7535 202.732 33.6705 202.898 33.6705H223.368C223.534 33.6705 223.617 33.7742 223.617 33.9816V41.1054C223.617 41.2714 223.534 41.3543 223.368 41.3543H210.302V51.309H223.368C223.534 51.309 223.617 51.392 223.617 51.5579L223.679 58.775C223.679 58.9409 223.596 59.0239 223.43 59.0239H210.302V70.1607H223.43C223.596 70.1607 223.679 70.2644 223.679 70.4718V77.7511C223.679 77.917 223.596 78 223.43 78ZM236.278 78H229.9C229.569 78 229.403 77.8548 229.403 77.5645L229.34 34.1683C229.34 33.8364 229.506 33.6705 229.838 33.6705H235.593L246.357 58.775L246.046 34.1683C246.046 33.8364 246.232 33.6705 246.606 33.6705H252.921C253.17 33.6705 253.294 33.8364 253.294 34.1683L253.356 77.6267C253.356 77.8756 253.252 78 253.045 78H247.446L236.402 54.5443L236.869 77.5023C236.869 77.8341 236.672 78 236.278 78ZM272.488 78H265.302C265.115 78 265.022 77.8963 265.022 77.6889V41.3543H256.747C256.54 41.3543 256.436 41.2506 256.436 41.0432L256.498 33.9194C256.498 33.7535 256.581 33.6705 256.747 33.6705H280.949C281.177 33.6705 281.291 33.7535 281.291 33.9194V41.0432C281.291 41.2506 281.209 41.3543 281.043 41.3543H272.674L272.737 77.6889C272.737 77.8963 272.654 78 272.488 78ZM296.192 78.6222C293.932 78.6222 291.848 78.0415 289.94 76.8801C288.052 75.7187 286.528 74.1737 285.367 72.2449C284.226 70.2955 283.656 68.1594 283.656 65.8366L283.718 45.6473C283.718 43.283 284.288 41.1573 285.429 39.27C286.549 37.3621 288.063 35.8378 289.971 34.6971C291.879 33.5357 293.953 32.955 296.192 32.955C298.515 32.955 300.599 33.5254 302.445 34.666C304.312 35.8066 305.805 37.3413 306.925 39.27C308.065 41.178 308.636 43.3038 308.636 45.6473L308.698 65.8366C308.698 68.1594 308.138 70.2851 307.018 72.2138C305.878 74.1633 304.364 75.7187 302.476 76.8801C300.589 78.0415 298.494 78.6222 296.192 78.6222ZM296.192 70.9384C297.478 70.9384 298.598 70.4199 299.552 69.383C300.506 68.3253 300.983 67.1432 300.983 65.8366L300.921 45.6473C300.921 44.237 300.475 43.0445 299.583 42.0698C298.691 41.0951 297.561 40.6077 296.192 40.6077C294.886 40.6077 293.766 41.0847 292.833 42.0387C291.899 42.9927 291.433 44.1955 291.433 45.6473V65.8366C291.433 67.2261 291.899 68.429 292.833 69.4452C293.766 70.4407 294.886 70.9384 296.192 70.9384Z" fill="#C19D3E"/>
<path d="M6.77397 77.6889L14.6755 33.9194C14.717 33.7535 14.8207 33.6705 14.9866 33.6705H24.2258C24.3917 33.6705 24.4954 33.7535 24.5369 33.9194L32.1273 77.6889C32.148 77.8963 32.0651 78 31.8784 78H24.8168C24.6094 78 24.4954 77.8963 24.4746 77.6889L23.7903 73.0227H15.111L14.4266 77.6889C14.4059 77.8963 14.3022 78 14.1155 78H7.02283C6.85692 78 6.77397 77.8963 6.77397 77.6889ZM19.2484 48.3226L16.3865 66.2099H22.5148L19.9017 48.3226L19.5284 45.9584L19.2484 48.3226ZM43.0464 78H36.6691C36.3373 78 36.1714 77.8548 36.1714 77.5645L36.1092 34.1683C36.1092 33.8364 36.2751 33.6705 36.6069 33.6705H42.362L53.1255 58.775L52.8144 34.1683C52.8144 33.8364 53.001 33.6705 53.3743 33.6705H59.6894C59.9382 33.6705 60.0627 33.8364 60.0627 34.1683L60.1249 77.6267C60.1249 77.8756 60.0212 78 59.8138 78H54.2143L43.1708 54.5443L43.6374 77.5023C43.6374 77.8341 43.4404 78 43.0464 78ZM73.1904 78H65.9732C65.7659 78 65.6622 77.8963 65.6622 77.6889L65.7244 33.9194C65.7244 33.7535 65.8073 33.6705 65.9732 33.6705H73.1282C73.2941 33.6705 73.377 33.7535 73.377 33.9194L73.4393 77.6889C73.4393 77.8963 73.3563 78 73.1904 78ZM85.976 78H79.5987C79.2669 78 79.101 77.8548 79.101 77.5645L79.0388 34.1683C79.0388 33.8364 79.2047 33.6705 79.5365 33.6705H85.2916L96.0551 58.775L95.744 34.1683C95.744 33.8364 95.9306 33.6705 96.3039 33.6705H102.619C102.868 33.6705 102.992 33.8364 102.992 34.1683L103.054 77.6267C103.054 77.8756 102.951 78 102.743 78H97.1439L86.1004 54.5443L86.567 77.5023C86.567 77.8341 86.37 78 85.976 78ZM116.058 78H108.841C108.675 78 108.592 77.8963 108.592 77.6889L108.654 33.9194C108.654 33.7535 108.758 33.6705 108.965 33.6705H116.058C116.265 33.6705 116.369 33.7535 116.369 33.9194L116.307 51.2468H125.857V33.9194C125.857 33.7535 125.94 33.6705 126.106 33.6705H133.198C133.406 33.6705 133.51 33.7535 133.51 33.9194L133.634 77.6889C133.634 77.8963 133.53 78 133.323 78H126.168C125.961 78 125.857 77.8963 125.857 77.6889V58.9617H116.307V77.6889C116.307 77.8963 116.224 78 116.058 78ZM136.683 77.6889L144.584 33.9194C144.626 33.7535 144.729 33.6705 144.895 33.6705H154.134C154.3 33.6705 154.404 33.7535 154.446 33.9194L162.036 77.6889C162.057 77.8963 161.974 78 161.787 78H154.726C154.518 78 154.404 77.8963 154.383 77.6889L153.699 73.0227H145.02L144.335 77.6889C144.315 77.8963 144.211 78 144.024 78H136.932C136.766 78 136.683 77.8963 136.683 77.6889ZM149.157 48.3226L146.295 66.2099H152.423L149.81 48.3226L149.437 45.9584L149.157 48.3226ZM173.484 78H166.267C166.101 78 166.018 77.8963 166.018 77.6889L166.142 33.9194C166.142 33.7535 166.225 33.6705 166.391 33.6705H174.168C174.334 33.6705 174.479 33.7535 174.604 33.9194L180.421 42.3187L186.207 33.9194C186.332 33.7535 186.487 33.6705 186.674 33.6705H194.482C194.669 33.6705 194.762 33.7535 194.762 33.9194L194.886 77.6889C194.886 77.8963 194.803 78 194.638 78H187.42C187.255 78 187.172 77.8963 187.172 77.6889L187.109 45.1806L180.421 54.8865L173.795 45.1806L173.733 77.6889C173.733 77.8963 173.65 78 173.484 78ZM221.08 78H200.486C200.32 78 200.237 77.8963 200.237 77.6889L200.299 33.9194C200.299 33.7535 200.382 33.6705 200.548 33.6705H221.018C221.183 33.6705 221.266 33.7742 221.266 33.9816V41.1054C221.266 41.2714 221.183 41.3543 221.018 41.3543H207.952V51.309H221.018C221.183 51.309 221.266 51.392 221.266 51.5579L221.329 58.775C221.329 58.9409 221.246 59.0239 221.08 59.0239H207.952V70.1607H221.08C221.246 70.1607 221.329 70.2644 221.329 70.4718V77.7511C221.329 77.917 221.246 78 221.08 78ZM233.927 78H227.55C227.218 78 227.053 77.8548 227.053 77.5645L226.99 34.1683C226.99 33.8364 227.156 33.6705 227.488 33.6705H233.243L244.007 58.775L243.696 34.1683C243.696 33.8364 243.882 33.6705 244.255 33.6705H250.57C250.819 33.6705 250.944 33.8364 250.944 34.1683L251.006 77.6267C251.006 77.8756 250.902 78 250.695 78H245.095L234.052 54.5443L234.519 77.5023C234.519 77.8341 234.322 78 233.927 78ZM270.138 78H262.952C262.765 78 262.672 77.8963 262.672 77.6889V41.3543H254.397C254.189 41.3543 254.086 41.2506 254.086 41.0432L254.148 33.9194C254.148 33.7535 254.231 33.6705 254.397 33.6705H278.599C278.827 33.6705 278.941 33.7535 278.941 33.9194V41.0432C278.941 41.2506 278.858 41.3543 278.692 41.3543H270.324L270.387 77.6889C270.387 77.8963 270.304 78 270.138 78ZM293.842 78.6222C291.582 78.6222 289.497 78.0415 287.589 76.8801C285.702 75.7187 284.178 74.1737 283.017 72.2449C281.876 70.2955 281.306 68.1594 281.306 65.8366L281.368 45.6473C281.368 43.283 281.938 41.1573 283.079 39.27C284.199 37.3621 285.713 35.8378 287.621 34.6971C289.529 33.5357 291.602 32.955 293.842 32.955C296.165 32.955 298.249 33.5254 300.095 34.666C301.962 35.8066 303.455 37.3413 304.575 39.27C305.715 41.178 306.286 43.3038 306.286 45.6473L306.348 65.8366C306.348 68.1594 305.788 70.2851 304.668 72.2138C303.527 74.1633 302.013 75.7187 300.126 76.8801C298.239 78.0415 296.144 78.6222 293.842 78.6222ZM293.842 70.9384C295.128 70.9384 296.248 70.4199 297.202 69.383C298.156 68.3253 298.633 67.1432 298.633 65.8366L298.571 45.6473C298.571 44.237 298.125 43.0445 297.233 42.0698C296.341 41.0951 295.211 40.6077 293.842 40.6077C292.536 40.6077 291.416 41.0847 290.483 42.0387C289.549 42.9927 289.083 44.1955 289.083 45.6473V65.8366C289.083 67.2261 289.549 68.429 290.483 69.4452C291.416 70.4407 292.536 70.9384 293.842 70.9384Z" fill="white"/>
</svg>
