<svg width="458" height="120" viewBox="0 0 458 120" fill="none" xmlns="http://www.w3.org/2000/svg">
<path d="M121.145 79.0478C118.884 79.0478 116.8 78.4671 114.892 77.3057C113.005 76.1443 111.481 74.5993 110.319 72.6705C109.178 70.7211 108.608 68.585 108.608 66.2622L108.67 46.0729C108.67 43.7086 109.241 41.5829 110.381 39.6956C111.501 37.7877 113.015 36.2633 114.923 35.1227C116.831 33.9613 118.905 33.3806 121.145 33.3806C123.468 33.3806 125.552 33.951 127.398 35.0916C129.264 36.2322 130.757 37.7669 131.877 39.6956C133.018 41.6036 133.588 43.7294 133.588 46.0729L133.65 66.2622C133.65 68.585 133.09 70.7107 131.971 72.6394C130.83 74.5889 129.316 76.1443 127.429 77.3057C125.542 78.4671 123.447 79.0478 121.145 79.0478ZM121.145 71.364C122.431 71.364 123.551 70.8455 124.505 69.8086C125.459 68.7509 125.936 67.5688 125.936 66.2622L125.873 46.0729C125.873 44.6626 125.427 43.4701 124.536 42.4954C123.644 41.5207 122.514 41.0333 121.145 41.0333C119.838 41.0333 118.718 41.5103 117.785 42.4643C116.852 43.4183 116.385 44.6211 116.385 46.0729V66.2622C116.385 67.6517 116.852 68.8546 117.785 69.8708C118.718 70.8663 119.838 71.364 121.145 71.364ZM175.989 82.5008L171.603 78.0523C170.047 78.7159 168.45 79.0478 166.812 79.0478C164.551 79.0478 162.478 78.4774 160.59 77.3368C158.682 76.1962 157.148 74.6511 155.986 72.7017C154.846 70.7315 154.275 68.585 154.275 66.2622L154.338 46.0729C154.338 43.8123 154.897 41.7177 156.017 39.789C157.117 37.8602 158.61 36.3152 160.497 35.1538C162.384 33.9717 164.489 33.3806 166.812 33.3806C169.073 33.3806 171.146 33.9406 173.034 35.0605C174.921 36.2011 176.424 37.7254 177.544 39.6334C178.685 41.5414 179.255 43.6879 179.255 46.0729L179.318 66.2622C179.318 67.4858 179.141 68.6783 178.789 69.8397C178.457 70.9803 178.011 72.038 177.451 73.0127L181.402 77.0257C181.609 77.1916 181.63 77.3368 181.464 77.4612L176.456 82.5008C176.31 82.6252 176.155 82.6252 175.989 82.5008ZM166.812 71.364C168.264 71.364 169.425 70.8248 170.296 69.7464C171.167 68.6472 171.603 67.4858 171.603 66.2622L171.54 46.0729C171.54 44.7041 171.095 43.522 170.203 42.5265C169.311 41.531 168.181 41.0333 166.812 41.0333C165.381 41.0333 164.23 41.5414 163.359 42.5576C162.488 43.5738 162.052 44.7456 162.052 46.0729V66.2622C162.052 67.7969 162.55 69.0309 163.546 69.9641C164.541 70.8974 165.63 71.364 166.812 71.364ZM196.427 79.0478C194.187 79.0478 192.113 78.4671 190.206 77.3057C188.298 76.1443 186.773 74.5889 185.633 72.6394C184.513 70.6692 183.953 68.5228 183.953 66.2L184.077 34.345C184.077 34.1791 184.16 34.0961 184.326 34.0961H191.481C191.647 34.0961 191.73 34.1791 191.73 34.345V66.2C191.73 67.631 192.186 68.8546 193.099 69.8708C194.011 70.8663 195.121 71.364 196.427 71.364C197.796 71.364 198.937 70.8663 199.849 69.8708C200.762 68.8546 201.218 67.631 201.218 66.2V34.345C201.218 34.1791 201.301 34.0961 201.467 34.0961H208.622C208.788 34.0961 208.871 34.1791 208.871 34.345L208.995 66.2C208.995 68.5435 208.435 70.7003 207.315 72.6705C206.174 74.62 204.661 76.1754 202.773 77.3368C200.886 78.4774 198.771 79.0478 196.427 79.0478ZM234.846 78.4256H214.252C214.086 78.4256 214.003 78.3219 214.003 78.1145L214.066 34.345C214.066 34.1791 214.149 34.0961 214.315 34.0961H234.784C234.95 34.0961 235.033 34.1998 235.033 34.4072V41.531C235.033 41.6969 234.95 41.7799 234.784 41.7799H221.718V51.7346H234.784C234.95 51.7346 235.033 51.8175 235.033 51.9835L235.095 59.2006C235.095 59.3665 235.012 59.4495 234.846 59.4495H221.718V70.5863H234.846C235.012 70.5863 235.095 70.69 235.095 70.8974V78.1767C235.095 78.3426 235.012 78.4256 234.846 78.4256ZM278.149 78.4256H257.555C257.389 78.4256 257.306 78.3219 257.306 78.1145L257.369 34.345C257.369 34.1791 257.451 34.0961 257.617 34.0961H278.087C278.253 34.0961 278.336 34.1998 278.336 34.4072V41.531C278.336 41.6969 278.253 41.7799 278.087 41.7799H265.021V51.7346H278.087C278.253 51.7346 278.336 51.8175 278.336 51.9835L278.398 59.2006C278.398 59.3665 278.315 59.4495 278.149 59.4495H265.021V70.5863H278.149C278.315 70.5863 278.398 70.69 278.398 70.8974V78.1767C278.398 78.3426 278.315 78.4256 278.149 78.4256ZM308.075 78.4256H300.858C300.692 78.4256 300.609 78.3219 300.609 78.1145L300.671 34.345C300.671 34.1791 300.775 34.0961 300.982 34.0961H308.075C308.283 34.0961 308.386 34.1791 308.386 34.345L308.324 51.6724H317.874V34.345C317.874 34.1791 317.957 34.0961 318.123 34.0961H325.216C325.423 34.0961 325.527 34.1791 325.527 34.345L325.651 78.1145C325.651 78.3219 325.548 78.4256 325.34 78.4256H318.185C317.978 78.4256 317.874 78.3219 317.874 78.1145V59.3873H308.324V78.1145C308.324 78.3219 308.241 78.4256 308.075 78.4256ZM344.441 78.4256H337.255C337.068 78.4256 336.975 78.3219 336.975 78.1145V41.7799H328.7C328.493 41.7799 328.389 41.6762 328.389 41.4688L328.451 34.345C328.451 34.1791 328.534 34.0961 328.7 34.0961H352.902C353.131 34.0961 353.245 34.1791 353.245 34.345V41.4688C353.245 41.6762 353.162 41.7799 352.996 41.7799H344.628L344.69 78.1145C344.69 78.3219 344.607 78.4256 344.441 78.4256ZM363.821 78.4256H356.604C356.438 78.4256 356.355 78.3219 356.355 78.1145L356.48 34.345C356.48 34.1791 356.563 34.0961 356.729 34.0961H364.506C364.672 34.0961 364.817 34.1791 364.941 34.345L370.759 42.7443L376.545 34.345C376.669 34.1791 376.825 34.0961 377.011 34.0961H384.82C385.006 34.0961 385.1 34.1791 385.1 34.345L385.224 78.1145C385.224 78.3219 385.141 78.4256 384.975 78.4256H377.758C377.592 78.4256 377.509 78.3219 377.509 78.1145L377.447 45.6062L370.759 55.3121L364.133 45.6062L364.07 78.1145C364.07 78.3219 363.987 78.4256 363.821 78.4256ZM411.417 78.4256H390.824C390.658 78.4256 390.575 78.3219 390.575 78.1145L390.637 34.4072C390.637 34.1998 390.741 34.0961 390.948 34.0961H398.041C398.248 34.0961 398.352 34.1998 398.352 34.4072L398.29 70.5863H411.417C411.625 70.5863 411.728 70.69 411.728 70.8974V78.1145C411.728 78.3219 411.625 78.4256 411.417 78.4256ZM446.788 66.6977H439.726C439.498 66.6977 439.384 66.6148 439.384 66.4489V62.9958C439.384 61.2952 439.778 59.5946 440.566 57.8941C441.354 56.1727 442.432 54.6277 443.801 53.2589C444.444 52.616 444.994 52.056 445.45 51.5791C445.927 51.0813 446.311 50.6562 446.601 50.3036C447.202 49.5985 447.586 48.9556 447.752 48.3749C447.918 47.7735 448.001 47.0683 448.001 46.2595C448.001 44.7663 447.555 43.522 446.663 42.5265C445.771 41.531 444.641 41.0333 443.272 41.0333C441.924 41.0333 440.794 41.531 439.882 42.5265C438.969 43.522 438.513 44.7663 438.513 46.2595V50.8947C438.513 51.0606 438.43 51.1435 438.264 51.1435H431.047C430.881 51.1435 430.798 51.0606 430.798 50.8947V46.2595C430.798 43.8745 431.368 41.7073 432.509 39.7579C433.629 37.8084 435.132 36.2633 437.02 35.1227C438.907 33.9613 440.991 33.3806 443.272 33.3806C445.574 33.3806 447.669 33.951 449.556 35.0916C451.443 36.2322 452.937 37.7877 454.036 39.7579C455.156 41.7073 455.716 43.8745 455.716 46.2595C455.716 47.6075 455.571 48.8415 455.28 49.9614C454.969 51.0398 454.409 52.1701 453.6 53.3522C452.791 54.5136 451.599 55.9653 450.023 57.7074C448.965 58.7858 448.208 59.7502 447.752 60.6005C447.316 61.4508 447.099 62.384 447.099 63.4002V66.4489C447.099 66.6148 446.995 66.6977 446.788 66.6977ZM446.788 78.4256H439.726C439.498 78.4256 439.384 78.3219 439.384 78.1145V71.0218C439.384 70.8559 439.498 70.7729 439.726 70.7729H446.788C446.995 70.7729 447.099 70.8559 447.099 71.0218V78.1145C447.099 78.3219 446.995 78.4256 446.788 78.4256Z" fill="#C19D3E"/>
<path d="M118.625 78.6222C116.364 78.6222 114.28 78.0415 112.372 76.8801C110.485 75.7187 108.961 74.1737 107.799 72.2449C106.659 70.2955 106.088 68.1594 106.088 65.8366L106.151 45.6473C106.151 43.283 106.721 41.1573 107.861 39.27C108.981 37.3621 110.495 35.8378 112.403 34.6971C114.311 33.5357 116.385 32.955 118.625 32.955C120.948 32.955 123.032 33.5254 124.878 34.666C126.744 35.8066 128.237 37.3413 129.357 39.27C130.498 41.178 131.068 43.3038 131.068 45.6473L131.131 65.8366C131.131 68.1594 130.571 70.2851 129.451 72.2138C128.31 74.1633 126.796 75.7187 124.909 76.8801C123.022 78.0415 120.927 78.6222 118.625 78.6222ZM118.625 70.9384C119.911 70.9384 121.031 70.4199 121.985 69.383C122.939 68.3253 123.416 67.1432 123.416 65.8366L123.353 45.6473C123.353 44.237 122.908 43.0445 122.016 42.0698C121.124 41.0951 119.994 40.6077 118.625 40.6077C117.318 40.6077 116.199 41.0847 115.265 42.0387C114.332 42.9927 113.865 44.1955 113.865 45.6473V65.8366C113.865 67.2261 114.332 68.429 115.265 69.4452C116.199 70.4407 117.318 70.9384 118.625 70.9384ZM173.469 82.0752L169.083 77.6267C167.527 78.2903 165.93 78.6222 164.292 78.6222C162.032 78.6222 159.958 78.0518 158.07 76.9112C156.162 75.7706 154.628 74.2255 153.466 72.2761C152.326 70.3059 151.755 68.1594 151.755 65.8366L151.818 45.6473C151.818 43.3867 152.378 41.2921 153.498 39.3634C154.597 37.4346 156.09 35.8896 157.977 34.7282C159.864 33.5461 161.969 32.955 164.292 32.955C166.553 32.955 168.627 33.515 170.514 34.6349C172.401 35.7755 173.905 37.2998 175.025 39.2078C176.165 41.1158 176.735 43.2623 176.735 45.6473L176.798 65.8366C176.798 67.0602 176.621 68.2527 176.269 69.4141C175.937 70.5547 175.491 71.6124 174.931 72.5871L178.882 76.6001C179.089 76.766 179.11 76.9112 178.944 77.0356L173.936 82.0752C173.791 82.1996 173.635 82.1996 173.469 82.0752ZM164.292 70.9384C165.744 70.9384 166.905 70.3992 167.776 69.3208C168.647 68.2216 169.083 67.0602 169.083 65.8366L169.021 45.6473C169.021 44.2785 168.575 43.0964 167.683 42.1009C166.791 41.1054 165.661 40.6077 164.292 40.6077C162.861 40.6077 161.71 41.1158 160.839 42.132C159.968 43.1482 159.533 44.32 159.533 45.6473V65.8366C159.533 67.3713 160.03 68.6053 161.026 69.5385C162.021 70.4718 163.11 70.9384 164.292 70.9384ZM193.907 78.6222C191.668 78.6222 189.594 78.0415 187.686 76.8801C185.778 75.7187 184.253 74.1633 183.113 72.2138C181.993 70.2436 181.433 68.0972 181.433 65.7744L181.557 33.9194C181.557 33.7535 181.64 33.6705 181.806 33.6705H188.961C189.127 33.6705 189.21 33.7535 189.21 33.9194V65.7744C189.21 67.2054 189.666 68.429 190.579 69.4452C191.491 70.4407 192.601 70.9384 193.907 70.9384C195.276 70.9384 196.417 70.4407 197.329 69.4452C198.242 68.429 198.698 67.2054 198.698 65.7744V33.9194C198.698 33.7535 198.781 33.6705 198.947 33.6705H206.102C206.268 33.6705 206.351 33.7535 206.351 33.9194L206.475 65.7744C206.475 68.1179 205.915 70.2747 204.795 72.2449C203.655 74.1944 202.141 75.7498 200.253 76.9112C198.366 78.0518 196.251 78.6222 193.907 78.6222ZM232.326 78H211.732C211.567 78 211.484 77.8963 211.484 77.6889L211.546 33.9194C211.546 33.7535 211.629 33.6705 211.795 33.6705H232.264C232.43 33.6705 232.513 33.7742 232.513 33.9816V41.1054C232.513 41.2714 232.43 41.3543 232.264 41.3543H219.198V51.309H232.264C232.43 51.309 232.513 51.392 232.513 51.5579L232.575 58.775C232.575 58.9409 232.492 59.0239 232.326 59.0239H219.198V70.1607H232.326C232.492 70.1607 232.575 70.2644 232.575 70.4718V77.7511C232.575 77.917 232.492 78 232.326 78ZM275.629 78H255.035C254.869 78 254.786 77.8963 254.786 77.6889L254.849 33.9194C254.849 33.7535 254.932 33.6705 255.098 33.6705H275.567C275.733 33.6705 275.816 33.7742 275.816 33.9816V41.1054C275.816 41.2714 275.733 41.3543 275.567 41.3543H262.501V51.309H275.567C275.733 51.309 275.816 51.392 275.816 51.5579L275.878 58.775C275.878 58.9409 275.795 59.0239 275.629 59.0239H262.501V70.1607H275.629C275.795 70.1607 275.878 70.2644 275.878 70.4718V77.7511C275.878 77.917 275.795 78 275.629 78ZM305.555 78H298.338C298.172 78 298.089 77.8963 298.089 77.6889L298.152 33.9194C298.152 33.7535 298.255 33.6705 298.463 33.6705H305.555C305.763 33.6705 305.866 33.7535 305.866 33.9194L305.804 51.2468H315.354V33.9194C315.354 33.7535 315.437 33.6705 315.603 33.6705H322.696C322.903 33.6705 323.007 33.7535 323.007 33.9194L323.132 77.6889C323.132 77.8963 323.028 78 322.821 78H315.666C315.458 78 315.354 77.8963 315.354 77.6889V58.9617H305.804V77.6889C305.804 77.8963 305.721 78 305.555 78ZM341.921 78H334.735C334.548 78 334.455 77.8963 334.455 77.6889V41.3543H326.18C325.973 41.3543 325.869 41.2506 325.869 41.0432L325.931 33.9194C325.931 33.7535 326.014 33.6705 326.18 33.6705H350.383C350.611 33.6705 350.725 33.7535 350.725 33.9194V41.0432C350.725 41.2506 350.642 41.3543 350.476 41.3543H342.108L342.17 77.6889C342.17 77.8963 342.087 78 341.921 78ZM361.302 78H354.084C353.919 78 353.836 77.8963 353.836 77.6889L353.96 33.9194C353.96 33.7535 354.043 33.6705 354.209 33.6705H361.986C362.152 33.6705 362.297 33.7535 362.421 33.9194L368.239 42.3187L374.025 33.9194C374.149 33.7535 374.305 33.6705 374.492 33.6705H382.3C382.486 33.6705 382.58 33.7535 382.58 33.9194L382.704 77.6889C382.704 77.8963 382.621 78 382.455 78H375.238C375.072 78 374.989 77.8963 374.989 77.6889L374.927 45.1806L368.239 54.8865L361.613 45.1806L361.55 77.6889C361.55 77.8963 361.468 78 361.302 78ZM408.897 78H388.304C388.138 78 388.055 77.8963 388.055 77.6889L388.117 33.9816C388.117 33.7742 388.221 33.6705 388.428 33.6705H395.521C395.728 33.6705 395.832 33.7742 395.832 33.9816L395.77 70.1607H408.897C409.105 70.1607 409.209 70.2644 409.209 70.4718V77.6889C409.209 77.8963 409.105 78 408.897 78ZM444.268 66.2721H437.206C436.978 66.2721 436.864 66.1892 436.864 66.0233V62.5702C436.864 60.8696 437.258 59.169 438.046 57.4685C438.834 55.7471 439.913 54.2021 441.281 52.8333C441.924 52.1904 442.474 51.6304 442.93 51.1535C443.407 50.6557 443.791 50.2306 444.081 49.878C444.682 49.1729 445.066 48.53 445.232 47.9493C445.398 47.3479 445.481 46.6427 445.481 45.8339C445.481 44.3407 445.035 43.0964 444.143 42.1009C443.251 41.1054 442.121 40.6077 440.752 40.6077C439.404 40.6077 438.274 41.1054 437.362 42.1009C436.449 43.0964 435.993 44.3407 435.993 45.8339V50.4691C435.993 50.635 435.91 50.7179 435.744 50.7179H428.527C428.361 50.7179 428.278 50.635 428.278 50.4691V45.8339C428.278 43.4489 428.848 41.2817 429.989 39.3323C431.109 37.3828 432.612 35.8378 434.5 34.6971C436.387 33.5357 438.471 32.955 440.752 32.955C443.054 32.955 445.149 33.5254 447.036 34.666C448.924 35.8066 450.417 37.3621 451.516 39.3323C452.636 41.2817 453.196 43.4489 453.196 45.8339C453.196 47.1819 453.051 48.4159 452.76 49.5358C452.449 50.6142 451.889 51.7445 451.08 52.9266C450.272 54.088 449.079 55.5397 447.503 57.2818C446.445 58.3602 445.688 59.3246 445.232 60.1749C444.797 61.0252 444.579 61.9584 444.579 62.9746V66.0233C444.579 66.1892 444.475 66.2721 444.268 66.2721ZM444.268 78H437.206C436.978 78 436.864 77.8963 436.864 77.6889V70.5962C436.864 70.4303 436.978 70.3473 437.206 70.3473H444.268C444.475 70.3473 444.579 70.4303 444.579 70.5962V77.6889C444.579 77.8963 444.475 78 444.268 78Z" fill="white"/>
<path d="M271.283 30.8965H268.391L274.897 16L279.235 18.7931L271.283 30.8965Z" fill="#C19D3E"/>
<path d="M269.283 30.8965H266.391L272.897 16L277.235 18.7931L269.283 30.8965Z" fill="white"/>
</svg>
