<svg width="1077" height="115" viewBox="0 0 1077 115" fill="none" xmlns="http://www.w3.org/2000/svg">
<path d="M96.5741 78H89.357C89.1911 78 89.1081 77.8963 89.1081 77.6889L89.2325 33.9194C89.2325 33.7535 89.3155 33.6705 89.4814 33.6705H97.2585C97.4244 33.6705 97.5696 33.7535 97.694 33.9194L103.511 42.3187L109.297 33.9194C109.422 33.7535 109.577 33.6705 109.764 33.6705H117.572C117.759 33.6705 117.852 33.7535 117.852 33.9194L117.977 77.6889C117.977 77.8963 117.894 78 117.728 78H110.511C110.345 78 110.262 77.8963 110.262 77.6889L110.2 45.1806L103.511 54.8865L96.8852 45.1806L96.823 77.6889C96.823 77.8963 96.74 78 96.5741 78ZM135.117 78.6222C132.857 78.6222 130.773 78.0415 128.865 76.8801C126.977 75.7187 125.453 74.1737 124.292 72.2449C123.151 70.2955 122.581 68.1594 122.581 65.8366L122.643 45.6473C122.643 43.283 123.213 41.1573 124.354 39.27C125.474 37.3621 126.988 35.8378 128.896 34.6971C130.804 33.5357 132.878 32.955 135.117 32.955C137.44 32.955 139.524 33.5254 141.37 34.666C143.237 35.8066 144.73 37.3413 145.85 39.27C146.99 41.178 147.561 43.3038 147.561 45.6473L147.623 65.8366C147.623 68.1594 147.063 70.2851 145.943 72.2138C144.803 74.1633 143.289 75.7187 141.401 76.8801C139.514 78.0415 137.419 78.6222 135.117 78.6222ZM135.117 70.9384C136.403 70.9384 137.523 70.4199 138.477 69.383C139.431 68.3253 139.908 67.1432 139.908 65.8366L139.846 45.6473C139.846 44.237 139.4 43.0445 138.508 42.0698C137.616 41.0951 136.486 40.6077 135.117 40.6077C133.811 40.6077 132.691 41.0847 131.758 42.0387C130.824 42.9927 130.358 44.1955 130.358 45.6473V65.8366C130.358 67.2261 130.824 68.429 131.758 69.4452C132.691 70.4407 133.811 70.9384 135.117 70.9384ZM159.382 78H153.005C152.673 78 152.507 77.8548 152.507 77.5645L152.445 34.1683C152.445 33.8364 152.611 33.6705 152.943 33.6705H158.698L169.461 58.775L169.15 34.1683C169.15 33.8364 169.337 33.6705 169.71 33.6705H176.025C176.274 33.6705 176.398 33.8364 176.398 34.1683L176.46 77.6267C176.46 77.8756 176.357 78 176.149 78H170.55L159.506 54.5443L159.973 77.5023C159.973 77.8341 159.776 78 159.382 78ZM195.592 78H188.406C188.219 78 188.126 77.8963 188.126 77.6889V41.3543H179.851C179.644 41.3543 179.54 41.2506 179.54 41.0432L179.602 33.9194C179.602 33.7535 179.685 33.6705 179.851 33.6705H204.054C204.282 33.6705 204.396 33.7535 204.396 33.9194V41.0432C204.396 41.2506 204.313 41.3543 204.147 41.3543H195.779L195.841 77.6889C195.841 77.8963 195.758 78 195.592 78ZM205.36 77.6889L213.262 33.9194C213.303 33.7535 213.407 33.6705 213.573 33.6705H222.812C222.978 33.6705 223.082 33.7535 223.123 33.9194L230.714 77.6889C230.734 77.8963 230.651 78 230.465 78H223.403C223.196 78 223.082 77.8963 223.061 77.6889L222.376 73.0227H213.697L213.013 77.6889C212.992 77.8963 212.888 78 212.702 78H205.609C205.443 78 205.36 77.8963 205.36 77.6889ZM217.835 48.3226L214.973 66.2099H221.101L218.488 48.3226L218.115 45.9584L217.835 48.3226ZM241.633 78H235.255C234.924 78 234.758 77.8548 234.758 77.5645L234.695 34.1683C234.695 33.8364 234.861 33.6705 235.193 33.6705H240.948L251.712 58.775L251.401 34.1683C251.401 33.8364 251.587 33.6705 251.961 33.6705H258.276C258.524 33.6705 258.649 33.8364 258.649 34.1683L258.711 77.6267C258.711 77.8756 258.607 78 258.4 78H252.8L241.757 54.5443L242.224 77.5023C242.224 77.8341 242.027 78 241.633 78ZM275.976 77.9378L264.559 78C264.352 78 264.248 77.8963 264.248 77.6889L264.373 33.9194C264.373 33.7535 264.456 33.6705 264.622 33.6705L276.536 33.6083C278.9 33.5461 281.037 34.0853 282.945 35.226C284.873 36.3666 286.408 37.9116 287.549 39.8611C288.71 41.7898 289.291 43.9259 289.291 46.2694V64.5612C289.291 67.0084 288.7 69.2482 287.517 71.2806C286.315 73.2923 284.718 74.8995 282.727 76.1024C280.736 77.2845 278.486 77.8963 275.976 77.9378ZM276.536 41.2299L272.088 41.2921L272.025 70.1607H275.976C277.552 70.1607 278.88 69.6111 279.958 68.5119C281.037 67.4128 281.576 66.0959 281.576 64.5612V46.2072C281.576 44.8592 281.078 43.6874 280.083 42.692C279.087 41.6758 277.905 41.1884 276.536 41.2299ZM306.089 78.6222C303.829 78.6222 301.744 78.0415 299.836 76.8801C297.949 75.7187 296.425 74.1737 295.263 72.2449C294.123 70.2955 293.552 68.1594 293.552 65.8366L293.615 45.6473C293.615 43.283 294.185 41.1573 295.326 39.27C296.446 37.3621 297.959 35.8378 299.867 34.6971C301.775 33.5357 303.849 32.955 306.089 32.955C308.412 32.955 310.496 33.5254 312.342 34.666C314.208 35.8066 315.702 37.3413 316.822 39.27C317.962 41.178 318.533 43.3038 318.533 45.6473L318.595 65.8366C318.595 68.1594 318.035 70.2851 316.915 72.2138C315.774 74.1633 314.26 75.7187 312.373 76.8801C310.486 78.0415 308.391 78.6222 306.089 78.6222ZM306.089 70.9384C307.375 70.9384 308.495 70.4199 309.449 69.383C310.403 68.3253 310.88 67.1432 310.88 65.8366L310.818 45.6473C310.818 44.237 310.372 43.0445 309.48 42.0698C308.588 41.0951 307.458 40.6077 306.089 40.6077C304.783 40.6077 303.663 41.0847 302.729 42.0387C301.796 42.9927 301.33 44.1955 301.33 45.6473V65.8366C301.33 67.2261 301.796 68.429 302.729 69.4452C303.663 70.4407 304.783 70.9384 306.089 70.9384ZM351.694 78.6222C349.454 78.6222 347.38 78.0415 345.472 76.8801C343.564 75.7187 342.04 74.1633 340.899 72.2138C339.78 70.2436 339.22 68.0972 339.22 65.7744L339.344 33.9194C339.344 33.7535 339.427 33.6705 339.593 33.6705H346.748C346.914 33.6705 346.997 33.7535 346.997 33.9194V65.7744C346.997 67.2054 347.453 68.429 348.365 69.4452C349.278 70.4407 350.388 70.9384 351.694 70.9384C353.063 70.9384 354.203 70.4407 355.116 69.4452C356.029 68.429 356.485 67.2054 356.485 65.7744V33.9194C356.485 33.7535 356.568 33.6705 356.734 33.6705H363.889C364.054 33.6705 364.137 33.7535 364.137 33.9194L364.262 65.7744C364.262 68.1179 363.702 70.2747 362.582 72.2449C361.441 74.1944 359.927 75.7498 358.04 76.9112C356.153 78.0518 354.038 78.6222 351.694 78.6222ZM376.736 78H369.519C369.353 78 369.27 77.8963 369.27 77.6889L369.395 33.9194C369.395 33.7535 369.478 33.6705 369.644 33.6705H377.421C377.587 33.6705 377.732 33.7535 377.856 33.9194L383.674 42.3187L389.46 33.9194C389.584 33.7535 389.74 33.6705 389.926 33.6705H397.735C397.921 33.6705 398.014 33.7535 398.014 33.9194L398.139 77.6889C398.139 77.8963 398.056 78 397.89 78H390.673C390.507 78 390.424 77.8963 390.424 77.6889L390.362 45.1806L383.674 54.8865L377.047 45.1806L376.985 77.6889C376.985 77.8963 376.902 78 376.736 78ZM427.505 78H420.288C420.122 78 420.039 77.8963 420.039 77.6889L420.164 33.9194C420.164 33.7535 420.247 33.6705 420.413 33.6705H428.19C428.356 33.6705 428.501 33.7535 428.625 33.9194L434.442 42.3187L440.229 33.9194C440.353 33.7535 440.509 33.6705 440.695 33.6705H448.503C448.69 33.6705 448.783 33.7535 448.783 33.9194L448.908 77.6889C448.908 77.8963 448.825 78 448.659 78H441.442C441.276 78 441.193 77.8963 441.193 77.6889L441.131 45.1806L434.442 54.8865L427.816 45.1806L427.754 77.6889C427.754 77.8963 427.671 78 427.505 78ZM465.986 78.6222C463.747 78.6222 461.673 78.0415 459.765 76.8801C457.857 75.7187 456.332 74.1633 455.192 72.2138C454.072 70.2436 453.512 68.0972 453.512 65.7744L453.636 33.9194C453.636 33.7535 453.719 33.6705 453.885 33.6705H461.04C461.206 33.6705 461.289 33.7535 461.289 33.9194V65.7744C461.289 67.2054 461.745 68.429 462.658 69.4452C463.57 70.4407 464.68 70.9384 465.986 70.9384C467.355 70.9384 468.496 70.4407 469.408 69.4452C470.321 68.429 470.777 67.2054 470.777 65.7744V33.9194C470.777 33.7535 470.86 33.6705 471.026 33.6705H478.181C478.347 33.6705 478.43 33.7535 478.43 33.9194L478.554 65.7744C478.554 68.1179 477.994 70.2747 476.874 72.2449C475.734 74.1944 474.22 75.7498 472.332 76.9112C470.445 78.0518 468.33 78.6222 465.986 78.6222ZM490.5 78H484.123C483.791 78 483.625 77.8548 483.625 77.5645L483.563 34.1683C483.563 33.8364 483.729 33.6705 484.06 33.6705H489.815L500.579 58.775L500.268 34.1683C500.268 33.8364 500.454 33.6705 500.828 33.6705H507.143C507.392 33.6705 507.516 33.8364 507.516 34.1683L507.578 77.6267C507.578 77.8756 507.475 78 507.267 78H501.668L490.624 54.5443L491.091 77.5023C491.091 77.8341 490.894 78 490.5 78ZM524.843 77.9378L513.427 78C513.219 78 513.116 77.8963 513.116 77.6889L513.24 33.9194C513.24 33.7535 513.323 33.6705 513.489 33.6705L525.403 33.6083C527.768 33.5461 529.904 34.0853 531.812 35.226C533.74 36.3666 535.275 37.9116 536.416 39.8611C537.577 41.7898 538.158 43.9259 538.158 46.2694V64.5612C538.158 67.0084 537.567 69.2482 536.385 71.2806C535.182 73.2923 533.585 74.8995 531.594 76.1024C529.603 77.2845 527.353 77.8963 524.843 77.9378ZM525.403 41.2299L520.955 41.2921L520.893 70.1607H524.843C526.42 70.1607 527.747 69.6111 528.825 68.5119C529.904 67.4128 530.443 66.0959 530.443 64.5612V46.2072C530.443 44.8592 529.945 43.6874 528.95 42.692C527.954 41.6758 526.772 41.1884 525.403 41.2299ZM554.956 78.6222C552.696 78.6222 550.612 78.0415 548.704 76.8801C546.816 75.7187 545.292 74.1737 544.131 72.2449C542.99 70.2955 542.42 68.1594 542.42 65.8366L542.482 45.6473C542.482 43.283 543.052 41.1573 544.193 39.27C545.313 37.3621 546.827 35.8378 548.735 34.6971C550.643 33.5357 552.717 32.955 554.956 32.955C557.279 32.955 559.363 33.5254 561.209 34.666C563.076 35.8066 564.569 37.3413 565.689 39.27C566.829 41.178 567.4 43.3038 567.4 45.6473L567.462 65.8366C567.462 68.1594 566.902 70.2851 565.782 72.2138C564.641 74.1633 563.127 75.7187 561.24 76.8801C559.353 78.0415 557.258 78.6222 554.956 78.6222ZM554.956 70.9384C556.242 70.9384 557.362 70.4199 558.316 69.383C559.27 68.3253 559.747 67.1432 559.747 65.8366L559.685 45.6473C559.685 44.237 559.239 43.0445 558.347 42.0698C557.455 41.0951 556.325 40.6077 554.956 40.6077C553.65 40.6077 552.53 41.0847 551.597 42.0387C550.663 42.9927 550.197 44.1955 550.197 45.6473V65.8366C550.197 67.2261 550.663 68.429 551.597 69.4452C552.53 70.4407 553.65 70.9384 554.956 70.9384ZM600.561 77.9378L589.144 78C588.937 78 588.833 77.8963 588.833 77.6889L588.958 33.9194C588.958 33.7535 589.041 33.6705 589.207 33.6705L601.121 33.6083C603.485 33.5461 605.622 34.0853 607.53 35.226C609.458 36.3666 610.993 37.9116 612.134 39.8611C613.295 41.7898 613.876 43.9259 613.876 46.2694V64.5612C613.876 67.0084 613.285 69.2482 612.102 71.2806C610.9 73.2923 609.303 74.8995 607.312 76.1024C605.321 77.2845 603.071 77.8963 600.561 77.9378ZM601.121 41.2299L596.673 41.2921L596.61 70.1607H600.561C602.137 70.1607 603.465 69.6111 604.543 68.5119C605.622 67.4128 606.161 66.0959 606.161 64.5612V46.2072C606.161 44.8592 605.663 43.6874 604.668 42.692C603.672 41.6758 602.49 41.1884 601.121 41.2299ZM626.412 78H619.195C618.988 78 618.884 77.8963 618.884 77.6889L618.946 33.9194C618.946 33.7535 619.029 33.6705 619.195 33.6705H626.35C626.516 33.6705 626.599 33.7535 626.599 33.9194L626.661 77.6889C626.661 77.8963 626.578 78 626.412 78ZM643.926 78.6222C641.624 78.6222 639.55 78.0518 637.705 76.9112C635.838 75.7706 634.335 74.2359 633.194 72.3072C632.074 70.3784 631.514 68.2216 631.514 65.8366V45.6473C631.514 43.3245 632.084 41.2091 633.225 39.3012C634.345 37.3724 635.849 35.8378 637.736 34.6971C639.623 33.5357 641.687 32.955 643.926 32.955C646.27 32.955 648.385 33.515 650.273 34.6349C652.16 35.7755 653.653 37.2998 654.752 39.2078C655.872 41.1158 656.432 43.2623 656.432 45.6473V48.5715C656.432 48.7374 656.328 48.8203 656.121 48.8203H648.966C648.8 48.8203 648.717 48.7374 648.717 48.5715V46.145C648.717 44.5274 648.261 43.1897 647.348 42.132C646.436 41.0743 645.295 40.5455 643.926 40.5455C642.703 40.5455 641.614 41.0536 640.66 42.0698C639.706 43.086 639.229 44.2785 639.229 45.6473V65.8366C639.229 67.2261 639.696 68.429 640.629 69.4452C641.562 70.4407 642.661 70.9384 643.926 70.9384C645.295 70.9384 646.436 70.451 647.348 69.4763C648.261 68.4808 648.717 67.2676 648.717 65.8366V62.6947H644.269C644.04 62.6947 643.926 62.591 643.926 62.3836V55.2598C643.926 55.0524 644.04 54.9487 644.269 54.9487H656.183C656.349 54.9487 656.432 55.0524 656.432 55.2598V65.8366C656.432 68.2216 655.872 70.3784 654.752 72.3072C653.611 74.2359 652.108 75.7706 650.241 76.9112C648.375 78.0518 646.27 78.6222 643.926 78.6222ZM668.471 78H661.254C661.046 78 660.943 77.8963 660.943 77.6889L661.005 33.9194C661.005 33.7535 661.088 33.6705 661.254 33.6705H668.409C668.575 33.6705 668.658 33.7535 668.658 33.9194L668.72 77.6889C668.72 77.8963 668.637 78 668.471 78ZM687.914 78H680.728C680.541 78 680.448 77.8963 680.448 77.6889V41.3543H672.173C671.965 41.3543 671.862 41.2506 671.862 41.0432L671.924 33.9194C671.924 33.7535 672.007 33.6705 672.173 33.6705H696.375C696.603 33.6705 696.717 33.7535 696.717 33.9194V41.0432C696.717 41.2506 696.634 41.3543 696.468 41.3543H688.1L688.163 77.6889C688.163 77.8963 688.08 78 687.914 78ZM697.682 77.6889L705.583 33.9194C705.625 33.7535 705.728 33.6705 705.894 33.6705H715.134C715.299 33.6705 715.403 33.7535 715.445 33.9194L723.035 77.6889C723.056 77.8963 722.973 78 722.786 78H715.725C715.517 78 715.403 77.8963 715.382 77.6889L714.698 73.0227H706.019L705.334 77.6889C705.314 77.8963 705.21 78 705.023 78H697.931C697.765 78 697.682 77.8963 697.682 77.6889ZM710.156 48.3226L707.294 66.2099H713.423L710.809 48.3226L710.436 45.9584L710.156 48.3226ZM747.86 78H727.266C727.1 78 727.017 77.8963 727.017 77.6889L727.079 33.9816C727.079 33.7742 727.183 33.6705 727.39 33.6705H734.483C734.69 33.6705 734.794 33.7742 734.794 33.9816L734.732 70.1607H747.86C748.067 70.1607 748.171 70.2644 748.171 70.4718V77.6889C748.171 77.8963 748.067 78 747.86 78ZM780.617 78.6222C778.315 78.6222 776.21 78.0415 774.302 76.8801C772.414 75.7187 770.911 74.1633 769.791 72.2138C768.692 70.2436 768.142 68.0557 768.142 65.65L768.204 45.7717C768.204 43.4075 768.744 41.2714 769.822 39.3634C770.9 37.4346 772.383 35.8896 774.271 34.7282C776.179 33.5461 778.294 32.955 780.617 32.955C782.981 32.955 785.086 33.5254 786.932 34.666C788.798 35.8066 790.281 37.3517 791.38 39.3012C792.5 41.2299 793.06 43.3867 793.06 45.7717V48.6959C793.06 48.8618 792.977 48.9448 792.811 48.9448H785.656C785.49 48.9448 785.407 48.8618 785.407 48.6959V45.7717C785.407 44.3615 784.951 43.1482 784.039 42.132C783.126 41.1158 781.985 40.6077 780.617 40.6077C779.103 40.6077 777.941 41.1262 777.133 42.1631C776.324 43.2001 775.919 44.4029 775.919 45.7717V65.65C775.919 67.2054 776.376 68.4808 777.288 69.4763C778.201 70.451 779.31 70.9384 780.617 70.9384C781.985 70.9384 783.126 70.3992 784.039 69.3208C784.951 68.2216 785.407 66.998 785.407 65.65V62.6947C785.407 62.5288 785.49 62.4458 785.656 62.4458H792.873C793.039 62.4458 793.122 62.5288 793.122 62.6947V65.65C793.122 68.0349 792.562 70.2125 791.442 72.1827C790.302 74.1322 788.798 75.698 786.932 76.8801C785.065 78.0415 782.96 78.6222 780.617 78.6222ZM809.547 78.6222C807.287 78.6222 805.203 78.0415 803.295 76.8801C801.407 75.7187 799.883 74.1737 798.722 72.2449C797.581 70.2955 797.011 68.1594 797.011 65.8366L797.073 45.6473C797.073 43.283 797.643 41.1573 798.784 39.27C799.904 37.3621 801.418 35.8378 803.326 34.6971C805.234 33.5357 807.308 32.955 809.547 32.955C811.87 32.955 813.954 33.5254 815.8 34.666C817.667 35.8066 819.16 37.3413 820.28 39.27C821.421 41.178 821.991 43.3038 821.991 45.6473L822.053 65.8366C822.053 68.1594 821.493 70.2851 820.373 72.2138C819.233 74.1633 817.719 75.7187 815.831 76.8801C813.944 78.0415 811.849 78.6222 809.547 78.6222ZM809.547 70.9384C810.833 70.9384 811.953 70.4199 812.907 69.383C813.861 68.3253 814.338 67.1432 814.338 65.8366L814.276 45.6473C814.276 44.237 813.83 43.0445 812.938 42.0698C812.047 41.0951 810.916 40.6077 809.547 40.6077C808.241 40.6077 807.121 41.0847 806.188 42.0387C805.255 42.9927 804.788 44.1955 804.788 45.6473V65.8366C804.788 67.2261 805.255 68.429 806.188 69.4452C807.121 70.4407 808.241 70.9384 809.547 70.9384ZM834.341 78H827.124C826.958 78 826.875 77.8963 826.875 77.6889L826.999 33.9194C826.999 33.7535 827.082 33.6705 827.248 33.6705H835.025C835.191 33.6705 835.336 33.7535 835.461 33.9194L841.278 42.3187L847.064 33.9194C847.189 33.7535 847.344 33.6705 847.531 33.6705H855.339C855.526 33.6705 855.619 33.7535 855.619 33.9194L855.743 77.6889C855.743 77.8963 855.661 78 855.495 78H848.277C848.112 78 848.029 77.8963 848.029 77.6889L847.966 45.1806L841.278 54.8865L834.652 45.1806L834.59 77.6889C834.59 77.8963 834.507 78 834.341 78ZM885.11 78H877.893C877.727 78 877.644 77.8963 877.644 77.6889L877.706 33.9194C877.706 33.7535 877.81 33.6705 878.017 33.6705H885.11C885.317 33.6705 885.421 33.7535 885.421 33.9194L885.359 51.2468H894.909V33.9194C894.909 33.7535 894.992 33.6705 895.158 33.6705H902.25C902.458 33.6705 902.562 33.7535 902.562 33.9194L902.686 77.6889C902.686 77.8963 902.582 78 902.375 78H895.22C895.013 78 894.909 77.8963 894.909 77.6889V58.9617H885.359V77.6889C885.359 77.8963 885.276 78 885.11 78ZM921.475 78H914.289C914.103 78 914.009 77.8963 914.009 77.6889V41.3543H905.735C905.527 41.3543 905.424 41.2506 905.424 41.0432L905.486 33.9194C905.486 33.7535 905.569 33.6705 905.735 33.6705H929.937C930.165 33.6705 930.279 33.7535 930.279 33.9194V41.0432C930.279 41.2506 930.196 41.3543 930.03 41.3543H921.662L921.724 77.6889C921.724 77.8963 921.641 78 921.475 78ZM940.856 78H933.639C933.473 78 933.39 77.8963 933.39 77.6889L933.514 33.9194C933.514 33.7535 933.597 33.6705 933.763 33.6705H941.54C941.706 33.6705 941.852 33.7535 941.976 33.9194L947.793 42.3187L953.579 33.9194C953.704 33.7535 953.859 33.6705 954.046 33.6705H961.854C962.041 33.6705 962.134 33.7535 962.134 33.9194L962.259 77.6889C962.259 77.8963 962.176 78 962.01 78H954.793C954.627 78 954.544 77.8963 954.544 77.6889L954.482 45.1806L947.793 54.8865L941.167 45.1806L941.105 77.6889C941.105 77.8963 941.022 78 940.856 78ZM988.452 78H967.858C967.692 78 967.609 77.8963 967.609 77.6889L967.671 33.9816C967.671 33.7742 967.775 33.6705 967.983 33.6705H975.075C975.283 33.6705 975.386 33.7742 975.386 33.9816L975.324 70.1607H988.452C988.659 70.1607 988.763 70.2644 988.763 70.4718V77.6889C988.763 77.8963 988.659 78 988.452 78Z" fill="#C19D3E"/>
<path d="M93.0741 78H85.857C85.6911 78 85.6081 77.8963 85.6081 77.6889L85.7325 33.9194C85.7325 33.7535 85.8155 33.6705 85.9814 33.6705H93.7585C93.9244 33.6705 94.0696 33.7535 94.194 33.9194L100.011 42.3187L105.797 33.9194C105.922 33.7535 106.077 33.6705 106.264 33.6705H114.072C114.259 33.6705 114.352 33.7535 114.352 33.9194L114.477 77.6889C114.477 77.8963 114.394 78 114.228 78H107.011C106.845 78 106.762 77.8963 106.762 77.6889L106.7 45.1806L100.011 54.8865L93.3852 45.1806L93.323 77.6889C93.323 77.8963 93.24 78 93.0741 78ZM131.617 78.6222C129.357 78.6222 127.273 78.0415 125.365 76.8801C123.477 75.7187 121.953 74.1737 120.792 72.2449C119.651 70.2955 119.081 68.1594 119.081 65.8366L119.143 45.6473C119.143 43.283 119.713 41.1573 120.854 39.27C121.974 37.3621 123.488 35.8378 125.396 34.6971C127.304 33.5357 129.378 32.955 131.617 32.955C133.94 32.955 136.024 33.5254 137.87 34.666C139.737 35.8066 141.23 37.3413 142.35 39.27C143.49 41.178 144.061 43.3038 144.061 45.6473L144.123 65.8366C144.123 68.1594 143.563 70.2851 142.443 72.2138C141.303 74.1633 139.789 75.7187 137.901 76.8801C136.014 78.0415 133.919 78.6222 131.617 78.6222ZM131.617 70.9384C132.903 70.9384 134.023 70.4199 134.977 69.383C135.931 68.3253 136.408 67.1432 136.408 65.8366L136.346 45.6473C136.346 44.237 135.9 43.0445 135.008 42.0698C134.116 41.0951 132.986 40.6077 131.617 40.6077C130.311 40.6077 129.191 41.0847 128.258 42.0387C127.324 42.9927 126.858 44.1955 126.858 45.6473V65.8366C126.858 67.2261 127.324 68.429 128.258 69.4452C129.191 70.4407 130.311 70.9384 131.617 70.9384ZM155.882 78H149.505C149.173 78 149.007 77.8548 149.007 77.5645L148.945 34.1683C148.945 33.8364 149.111 33.6705 149.443 33.6705H155.198L165.961 58.775L165.65 34.1683C165.65 33.8364 165.837 33.6705 166.21 33.6705H172.525C172.774 33.6705 172.898 33.8364 172.898 34.1683L172.96 77.6267C172.96 77.8756 172.857 78 172.649 78H167.05L156.006 54.5443L156.473 77.5023C156.473 77.8341 156.276 78 155.882 78ZM192.092 78H184.906C184.719 78 184.626 77.8963 184.626 77.6889V41.3543H176.351C176.144 41.3543 176.04 41.2506 176.04 41.0432L176.102 33.9194C176.102 33.7535 176.185 33.6705 176.351 33.6705H200.554C200.782 33.6705 200.896 33.7535 200.896 33.9194V41.0432C200.896 41.2506 200.813 41.3543 200.647 41.3543H192.279L192.341 77.6889C192.341 77.8963 192.258 78 192.092 78ZM201.86 77.6889L209.762 33.9194C209.803 33.7535 209.907 33.6705 210.073 33.6705H219.312C219.478 33.6705 219.582 33.7535 219.623 33.9194L227.214 77.6889C227.234 77.8963 227.151 78 226.965 78H219.903C219.696 78 219.582 77.8963 219.561 77.6889L218.876 73.0227H210.197L209.513 77.6889C209.492 77.8963 209.388 78 209.202 78H202.109C201.943 78 201.86 77.8963 201.86 77.6889ZM214.335 48.3226L211.473 66.2099H217.601L214.988 48.3226L214.615 45.9584L214.335 48.3226ZM238.133 78H231.755C231.424 78 231.258 77.8548 231.258 77.5645L231.195 34.1683C231.195 33.8364 231.361 33.6705 231.693 33.6705H237.448L248.212 58.775L247.901 34.1683C247.901 33.8364 248.087 33.6705 248.461 33.6705H254.776C255.024 33.6705 255.149 33.8364 255.149 34.1683L255.211 77.6267C255.211 77.8756 255.107 78 254.9 78H249.3L238.257 54.5443L238.724 77.5023C238.724 77.8341 238.527 78 238.133 78ZM272.476 77.9378L261.059 78C260.852 78 260.748 77.8963 260.748 77.6889L260.873 33.9194C260.873 33.7535 260.956 33.6705 261.122 33.6705L273.036 33.6083C275.4 33.5461 277.537 34.0853 279.445 35.226C281.373 36.3666 282.908 37.9116 284.049 39.8611C285.21 41.7898 285.791 43.9259 285.791 46.2694V64.5612C285.791 67.0084 285.2 69.2482 284.017 71.2806C282.815 73.2923 281.218 74.8995 279.227 76.1024C277.236 77.2845 274.986 77.8963 272.476 77.9378ZM273.036 41.2299L268.588 41.2921L268.525 70.1607H272.476C274.052 70.1607 275.38 69.6111 276.458 68.5119C277.537 67.4128 278.076 66.0959 278.076 64.5612V46.2072C278.076 44.8592 277.578 43.6874 276.583 42.692C275.587 41.6758 274.405 41.1884 273.036 41.2299ZM302.589 78.6222C300.329 78.6222 298.244 78.0415 296.336 76.8801C294.449 75.7187 292.925 74.1737 291.763 72.2449C290.623 70.2955 290.052 68.1594 290.052 65.8366L290.115 45.6473C290.115 43.283 290.685 41.1573 291.826 39.27C292.946 37.3621 294.46 35.8378 296.367 34.6971C298.275 33.5357 300.349 32.955 302.589 32.955C304.912 32.955 306.996 33.5254 308.842 34.666C310.708 35.8066 312.202 37.3413 313.322 39.27C314.462 41.178 315.033 43.3038 315.033 45.6473L315.095 65.8366C315.095 68.1594 314.535 70.2851 313.415 72.2138C312.274 74.1633 310.76 75.7187 308.873 76.8801C306.986 78.0415 304.891 78.6222 302.589 78.6222ZM302.589 70.9384C303.875 70.9384 304.995 70.4199 305.949 69.383C306.903 68.3253 307.38 67.1432 307.38 65.8366L307.318 45.6473C307.318 44.237 306.872 43.0445 305.98 42.0698C305.088 41.0951 303.958 40.6077 302.589 40.6077C301.283 40.6077 300.163 41.0847 299.229 42.0387C298.296 42.9927 297.83 44.1955 297.83 45.6473V65.8366C297.83 67.2261 298.296 68.429 299.229 69.4452C300.163 70.4407 301.283 70.9384 302.589 70.9384ZM348.194 78.6222C345.954 78.6222 343.88 78.0415 341.972 76.8801C340.064 75.7187 338.54 74.1633 337.399 72.2138C336.28 70.2436 335.72 68.0972 335.72 65.7744L335.844 33.9194C335.844 33.7535 335.927 33.6705 336.093 33.6705H343.248C343.414 33.6705 343.497 33.7535 343.497 33.9194V65.7744C343.497 67.2054 343.953 68.429 344.865 69.4452C345.778 70.4407 346.888 70.9384 348.194 70.9384C349.563 70.9384 350.703 70.4407 351.616 69.4452C352.529 68.429 352.985 67.2054 352.985 65.7744V33.9194C352.985 33.7535 353.068 33.6705 353.234 33.6705H360.389C360.554 33.6705 360.637 33.7535 360.637 33.9194L360.762 65.7744C360.762 68.1179 360.202 70.2747 359.082 72.2449C357.941 74.1944 356.427 75.7498 354.54 76.9112C352.653 78.0518 350.538 78.6222 348.194 78.6222ZM373.236 78H366.019C365.853 78 365.77 77.8963 365.77 77.6889L365.895 33.9194C365.895 33.7535 365.978 33.6705 366.144 33.6705H373.921C374.087 33.6705 374.232 33.7535 374.356 33.9194L380.174 42.3187L385.96 33.9194C386.084 33.7535 386.24 33.6705 386.426 33.6705H394.235C394.421 33.6705 394.514 33.7535 394.514 33.9194L394.639 77.6889C394.639 77.8963 394.556 78 394.39 78H387.173C387.007 78 386.924 77.8963 386.924 77.6889L386.862 45.1806L380.174 54.8865L373.547 45.1806L373.485 77.6889C373.485 77.8963 373.402 78 373.236 78ZM424.005 78H416.788C416.622 78 416.539 77.8963 416.539 77.6889L416.664 33.9194C416.664 33.7535 416.747 33.6705 416.913 33.6705H424.69C424.856 33.6705 425.001 33.7535 425.125 33.9194L430.942 42.3187L436.729 33.9194C436.853 33.7535 437.009 33.6705 437.195 33.6705H445.003C445.19 33.6705 445.283 33.7535 445.283 33.9194L445.408 77.6889C445.408 77.8963 445.325 78 445.159 78H437.942C437.776 78 437.693 77.8963 437.693 77.6889L437.631 45.1806L430.942 54.8865L424.316 45.1806L424.254 77.6889C424.254 77.8963 424.171 78 424.005 78ZM462.486 78.6222C460.247 78.6222 458.173 78.0415 456.265 76.8801C454.357 75.7187 452.832 74.1633 451.692 72.2138C450.572 70.2436 450.012 68.0972 450.012 65.7744L450.136 33.9194C450.136 33.7535 450.219 33.6705 450.385 33.6705H457.54C457.706 33.6705 457.789 33.7535 457.789 33.9194V65.7744C457.789 67.2054 458.245 68.429 459.158 69.4452C460.07 70.4407 461.18 70.9384 462.486 70.9384C463.855 70.9384 464.996 70.4407 465.908 69.4452C466.821 68.429 467.277 67.2054 467.277 65.7744V33.9194C467.277 33.7535 467.36 33.6705 467.526 33.6705H474.681C474.847 33.6705 474.93 33.7535 474.93 33.9194L475.054 65.7744C475.054 68.1179 474.494 70.2747 473.374 72.2449C472.234 74.1944 470.72 75.7498 468.832 76.9112C466.945 78.0518 464.83 78.6222 462.486 78.6222ZM487 78H480.623C480.291 78 480.125 77.8548 480.125 77.5645L480.063 34.1683C480.063 33.8364 480.229 33.6705 480.56 33.6705H486.315L497.079 58.775L496.768 34.1683C496.768 33.8364 496.954 33.6705 497.328 33.6705H503.643C503.892 33.6705 504.016 33.8364 504.016 34.1683L504.078 77.6267C504.078 77.8756 503.975 78 503.767 78H498.168L487.124 54.5443L487.591 77.5023C487.591 77.8341 487.394 78 487 78ZM521.343 77.9378L509.927 78C509.719 78 509.616 77.8963 509.616 77.6889L509.74 33.9194C509.74 33.7535 509.823 33.6705 509.989 33.6705L521.903 33.6083C524.268 33.5461 526.404 34.0853 528.312 35.226C530.24 36.3666 531.775 37.9116 532.916 39.8611C534.077 41.7898 534.658 43.9259 534.658 46.2694V64.5612C534.658 67.0084 534.067 69.2482 532.885 71.2806C531.682 73.2923 530.085 74.8995 528.094 76.1024C526.103 77.2845 523.853 77.8963 521.343 77.9378ZM521.903 41.2299L517.455 41.2921L517.393 70.1607H521.343C522.92 70.1607 524.247 69.6111 525.325 68.5119C526.404 67.4128 526.943 66.0959 526.943 64.5612V46.2072C526.943 44.8592 526.445 43.6874 525.45 42.692C524.454 41.6758 523.272 41.1884 521.903 41.2299ZM551.456 78.6222C549.196 78.6222 547.112 78.0415 545.204 76.8801C543.316 75.7187 541.792 74.1737 540.631 72.2449C539.49 70.2955 538.92 68.1594 538.92 65.8366L538.982 45.6473C538.982 43.283 539.552 41.1573 540.693 39.27C541.813 37.3621 543.327 35.8378 545.235 34.6971C547.143 33.5357 549.217 32.955 551.456 32.955C553.779 32.955 555.863 33.5254 557.709 34.666C559.576 35.8066 561.069 37.3413 562.189 39.27C563.329 41.178 563.9 43.3038 563.9 45.6473L563.962 65.8366C563.962 68.1594 563.402 70.2851 562.282 72.2138C561.141 74.1633 559.627 75.7187 557.74 76.8801C555.853 78.0415 553.758 78.6222 551.456 78.6222ZM551.456 70.9384C552.742 70.9384 553.862 70.4199 554.816 69.383C555.77 68.3253 556.247 67.1432 556.247 65.8366L556.185 45.6473C556.185 44.237 555.739 43.0445 554.847 42.0698C553.955 41.0951 552.825 40.6077 551.456 40.6077C550.15 40.6077 549.03 41.0847 548.097 42.0387C547.163 42.9927 546.697 44.1955 546.697 45.6473V65.8366C546.697 67.2261 547.163 68.429 548.097 69.4452C549.03 70.4407 550.15 70.9384 551.456 70.9384ZM597.061 77.9378L585.644 78C585.437 78 585.333 77.8963 585.333 77.6889L585.458 33.9194C585.458 33.7535 585.541 33.6705 585.707 33.6705L597.621 33.6083C599.985 33.5461 602.122 34.0853 604.03 35.226C605.958 36.3666 607.493 37.9116 608.634 39.8611C609.795 41.7898 610.376 43.9259 610.376 46.2694V64.5612C610.376 67.0084 609.785 69.2482 608.602 71.2806C607.4 73.2923 605.803 74.8995 603.812 76.1024C601.821 77.2845 599.571 77.8963 597.061 77.9378ZM597.621 41.2299L593.173 41.2921L593.111 70.1607H597.061C598.637 70.1607 599.965 69.6111 601.043 68.5119C602.122 67.4128 602.661 66.0959 602.661 64.5612V46.2072C602.661 44.8592 602.163 43.6874 601.168 42.692C600.172 41.6758 598.99 41.1884 597.621 41.2299ZM622.912 78H615.695C615.488 78 615.384 77.8963 615.384 77.6889L615.446 33.9194C615.446 33.7535 615.529 33.6705 615.695 33.6705H622.85C623.016 33.6705 623.099 33.7535 623.099 33.9194L623.161 77.6889C623.161 77.8963 623.078 78 622.912 78ZM640.426 78.6222C638.124 78.6222 636.05 78.0518 634.205 76.9112C632.338 75.7706 630.835 74.2359 629.694 72.3072C628.574 70.3784 628.014 68.2216 628.014 65.8366V45.6473C628.014 43.3245 628.584 41.2091 629.725 39.3012C630.845 37.3724 632.349 35.8378 634.236 34.6971C636.123 33.5357 638.187 32.955 640.426 32.955C642.77 32.955 644.885 33.515 646.773 34.6349C648.66 35.7755 650.153 37.2998 651.252 39.2078C652.372 41.1158 652.932 43.2623 652.932 45.6473V48.5715C652.932 48.7374 652.828 48.8203 652.621 48.8203H645.466C645.3 48.8203 645.217 48.7374 645.217 48.5715V46.145C645.217 44.5274 644.761 43.1897 643.848 42.132C642.936 41.0743 641.795 40.5455 640.426 40.5455C639.203 40.5455 638.114 41.0536 637.16 42.0698C636.206 43.086 635.729 44.2785 635.729 45.6473V65.8366C635.729 67.2261 636.196 68.429 637.129 69.4452C638.062 70.4407 639.161 70.9384 640.426 70.9384C641.795 70.9384 642.936 70.451 643.848 69.4763C644.761 68.4808 645.217 67.2676 645.217 65.8366V62.6947H640.769C640.54 62.6947 640.426 62.591 640.426 62.3836V55.2598C640.426 55.0524 640.54 54.9487 640.769 54.9487H652.683C652.849 54.9487 652.932 55.0524 652.932 55.2598V65.8366C652.932 68.2216 652.372 70.3784 651.252 72.3072C650.111 74.2359 648.608 75.7706 646.741 76.9112C644.875 78.0518 642.77 78.6222 640.426 78.6222ZM664.971 78H657.754C657.546 78 657.443 77.8963 657.443 77.6889L657.505 33.9194C657.505 33.7535 657.588 33.6705 657.754 33.6705H664.909C665.075 33.6705 665.158 33.7535 665.158 33.9194L665.22 77.6889C665.22 77.8963 665.137 78 664.971 78ZM684.414 78H677.228C677.041 78 676.948 77.8963 676.948 77.6889V41.3543H668.673C668.465 41.3543 668.362 41.2506 668.362 41.0432L668.424 33.9194C668.424 33.7535 668.507 33.6705 668.673 33.6705H692.875C693.103 33.6705 693.217 33.7535 693.217 33.9194V41.0432C693.217 41.2506 693.134 41.3543 692.968 41.3543H684.6L684.663 77.6889C684.663 77.8963 684.58 78 684.414 78ZM694.182 77.6889L702.083 33.9194C702.125 33.7535 702.228 33.6705 702.394 33.6705H711.634C711.799 33.6705 711.903 33.7535 711.945 33.9194L719.535 77.6889C719.556 77.8963 719.473 78 719.286 78H712.225C712.017 78 711.903 77.8963 711.882 77.6889L711.198 73.0227H702.519L701.834 77.6889C701.814 77.8963 701.71 78 701.523 78H694.431C694.265 78 694.182 77.8963 694.182 77.6889ZM706.656 48.3226L703.794 66.2099H709.923L707.309 48.3226L706.936 45.9584L706.656 48.3226ZM744.36 78H723.766C723.6 78 723.517 77.8963 723.517 77.6889L723.579 33.9816C723.579 33.7742 723.683 33.6705 723.89 33.6705H730.983C731.19 33.6705 731.294 33.7742 731.294 33.9816L731.232 70.1607H744.36C744.567 70.1607 744.671 70.2644 744.671 70.4718V77.6889C744.671 77.8963 744.567 78 744.36 78ZM777.117 78.6222C774.815 78.6222 772.71 78.0415 770.802 76.8801C768.914 75.7187 767.411 74.1633 766.291 72.2138C765.192 70.2436 764.642 68.0557 764.642 65.65L764.704 45.7717C764.704 43.4075 765.244 41.2714 766.322 39.3634C767.4 37.4346 768.883 35.8896 770.771 34.7282C772.679 33.5461 774.794 32.955 777.117 32.955C779.481 32.955 781.586 33.5254 783.432 34.666C785.298 35.8066 786.781 37.3517 787.88 39.3012C789 41.2299 789.56 43.3867 789.56 45.7717V48.6959C789.56 48.8618 789.477 48.9448 789.311 48.9448H782.156C781.99 48.9448 781.907 48.8618 781.907 48.6959V45.7717C781.907 44.3615 781.451 43.1482 780.539 42.132C779.626 41.1158 778.485 40.6077 777.117 40.6077C775.603 40.6077 774.441 41.1262 773.633 42.1631C772.824 43.2001 772.419 44.4029 772.419 45.7717V65.65C772.419 67.2054 772.876 68.4808 773.788 69.4763C774.701 70.451 775.81 70.9384 777.117 70.9384C778.485 70.9384 779.626 70.3992 780.539 69.3208C781.451 68.2216 781.907 66.998 781.907 65.65V62.6947C781.907 62.5288 781.99 62.4458 782.156 62.4458H789.373C789.539 62.4458 789.622 62.5288 789.622 62.6947V65.65C789.622 68.0349 789.062 70.2125 787.942 72.1827C786.802 74.1322 785.298 75.698 783.432 76.8801C781.565 78.0415 779.46 78.6222 777.117 78.6222ZM806.047 78.6222C803.787 78.6222 801.703 78.0415 799.795 76.8801C797.907 75.7187 796.383 74.1737 795.222 72.2449C794.081 70.2955 793.511 68.1594 793.511 65.8366L793.573 45.6473C793.573 43.283 794.143 41.1573 795.284 39.27C796.404 37.3621 797.918 35.8378 799.826 34.6971C801.734 33.5357 803.808 32.955 806.047 32.955C808.37 32.955 810.454 33.5254 812.3 34.666C814.167 35.8066 815.66 37.3413 816.78 39.27C817.921 41.178 818.491 43.3038 818.491 45.6473L818.553 65.8366C818.553 68.1594 817.993 70.2851 816.873 72.2138C815.733 74.1633 814.219 75.7187 812.331 76.8801C810.444 78.0415 808.349 78.6222 806.047 78.6222ZM806.047 70.9384C807.333 70.9384 808.453 70.4199 809.407 69.383C810.361 68.3253 810.838 67.1432 810.838 65.8366L810.776 45.6473C810.776 44.237 810.33 43.0445 809.438 42.0698C808.547 41.0951 807.416 40.6077 806.047 40.6077C804.741 40.6077 803.621 41.0847 802.688 42.0387C801.755 42.9927 801.288 44.1955 801.288 45.6473V65.8366C801.288 67.2261 801.755 68.429 802.688 69.4452C803.621 70.4407 804.741 70.9384 806.047 70.9384ZM830.841 78H823.624C823.458 78 823.375 77.8963 823.375 77.6889L823.499 33.9194C823.499 33.7535 823.582 33.6705 823.748 33.6705H831.525C831.691 33.6705 831.836 33.7535 831.961 33.9194L837.778 42.3187L843.564 33.9194C843.689 33.7535 843.844 33.6705 844.031 33.6705H851.839C852.026 33.6705 852.119 33.7535 852.119 33.9194L852.243 77.6889C852.243 77.8963 852.161 78 851.995 78H844.777C844.612 78 844.529 77.8963 844.529 77.6889L844.466 45.1806L837.778 54.8865L831.152 45.1806L831.09 77.6889C831.09 77.8963 831.007 78 830.841 78ZM881.61 78H874.393C874.227 78 874.144 77.8963 874.144 77.6889L874.206 33.9194C874.206 33.7535 874.31 33.6705 874.517 33.6705H881.61C881.817 33.6705 881.921 33.7535 881.921 33.9194L881.859 51.2468H891.409V33.9194C891.409 33.7535 891.492 33.6705 891.658 33.6705H898.75C898.958 33.6705 899.062 33.7535 899.062 33.9194L899.186 77.6889C899.186 77.8963 899.082 78 898.875 78H891.72C891.513 78 891.409 77.8963 891.409 77.6889V58.9617H881.859V77.6889C881.859 77.8963 881.776 78 881.61 78ZM917.975 78H910.789C910.603 78 910.509 77.8963 910.509 77.6889V41.3543H902.235C902.027 41.3543 901.924 41.2506 901.924 41.0432L901.986 33.9194C901.986 33.7535 902.069 33.6705 902.235 33.6705H926.437C926.665 33.6705 926.779 33.7535 926.779 33.9194V41.0432C926.779 41.2506 926.696 41.3543 926.53 41.3543H918.162L918.224 77.6889C918.224 77.8963 918.141 78 917.975 78ZM937.356 78H930.139C929.973 78 929.89 77.8963 929.89 77.6889L930.014 33.9194C930.014 33.7535 930.097 33.6705 930.263 33.6705H938.04C938.206 33.6705 938.352 33.7535 938.476 33.9194L944.293 42.3187L950.079 33.9194C950.204 33.7535 950.359 33.6705 950.546 33.6705H958.354C958.541 33.6705 958.634 33.7535 958.634 33.9194L958.759 77.6889C958.759 77.8963 958.676 78 958.51 78H951.293C951.127 78 951.044 77.8963 951.044 77.6889L950.982 45.1806L944.293 54.8865L937.667 45.1806L937.605 77.6889C937.605 77.8963 937.522 78 937.356 78ZM984.952 78H964.358C964.192 78 964.109 77.8963 964.109 77.6889L964.171 33.9816C964.171 33.7742 964.275 33.6705 964.483 33.6705H971.575C971.783 33.6705 971.886 33.7742 971.886 33.9816L971.824 70.1607H984.952C985.159 70.1607 985.263 70.2644 985.263 70.4718V77.6889C985.263 77.8963 985.159 78 984.952 78Z" fill="white"/>
</svg>
