<svg width="447" height="115" viewBox="0 0 447 115" fill="none" xmlns="http://www.w3.org/2000/svg">
<path d="M12.9858 78H5.83086C5.62347 78 5.51978 77.8963 5.51978 77.6889L5.64421 33.9194C5.64421 33.7535 5.72717 33.6705 5.89308 33.6705H18.1498C22.0487 33.6705 25.1284 34.863 27.389 37.248C29.6703 39.6122 30.8109 42.8371 30.8109 46.9227C30.8109 49.9091 30.2198 52.5119 29.0377 54.7309C27.8349 56.9292 26.2795 58.6298 24.3715 59.8327C22.4635 61.0356 20.3896 61.637 18.1498 61.637H13.2969V77.6889C13.2969 77.8963 13.1932 78 12.9858 78ZM18.1498 41.2299L13.2969 41.2921V53.9221H18.1498C19.4978 53.9221 20.6696 53.2792 21.665 51.9934C22.6605 50.6868 23.1582 48.9966 23.1582 46.9227C23.1582 45.2636 22.7124 43.9052 21.8206 42.8475C20.9288 41.7691 19.7052 41.2299 18.1498 41.2299ZM42.601 78H35.3838C35.2179 78 35.135 77.8963 35.135 77.6889L35.2594 33.9194C35.2594 33.7535 35.3424 33.6705 35.5083 33.6705H48.3872C50.6892 33.6705 52.8045 34.2305 54.7333 35.3504C56.662 36.4703 58.1967 37.9739 59.3373 39.8611C60.4987 41.7483 61.0794 43.8845 61.0794 46.2694C61.0794 47.8249 60.8409 49.2351 60.3639 50.5002C59.8869 51.7653 59.3269 52.8333 58.684 53.7043C58.0619 54.5754 57.4915 55.2183 56.9731 55.6331C59.2751 58.184 60.4261 61.1807 60.4261 64.6234L60.4883 77.6889C60.4883 77.8963 60.3846 78 60.1772 78H52.9601C52.7942 78 52.7112 77.9378 52.7112 77.8133V64.6234C52.7112 63.0887 52.172 61.7614 51.0936 60.6415C50.0152 59.5216 48.6879 58.9617 47.1117 58.9617H42.9121L42.8499 77.6889C42.8499 77.8963 42.7669 78 42.601 78ZM48.3872 41.2921H42.9121V51.309H48.3872C49.6937 51.309 50.8551 50.8216 51.8713 49.8469C52.9082 48.8722 53.4267 47.6797 53.4267 46.2694C53.4267 44.9214 52.929 43.76 51.9335 42.7853C50.938 41.7898 49.7559 41.2921 48.3872 41.2921ZM73.3983 78H66.1812C65.9738 78 65.8701 77.8963 65.8701 77.6889L65.9323 33.9194C65.9323 33.7535 66.0152 33.6705 66.1812 33.6705H73.3361C73.502 33.6705 73.585 33.7535 73.585 33.9194L73.6472 77.6889C73.6472 77.8963 73.5642 78 73.3983 78ZM86.1839 78H79.8066C79.4748 78 79.3089 77.8548 79.3089 77.5645L79.2467 34.1683C79.2467 33.8364 79.4126 33.6705 79.7444 33.6705H85.4995L96.263 58.775L95.9519 34.1683C95.9519 33.8364 96.1385 33.6705 96.5118 33.6705H102.827C103.076 33.6705 103.2 33.8364 103.2 34.1683L103.262 77.6267C103.262 77.8756 103.159 78 102.951 78H97.3518L86.3083 54.5443L86.7749 77.5023C86.7749 77.8341 86.5779 78 86.1839 78ZM120.528 78.6222C118.226 78.6222 116.121 78.0415 114.213 76.8801C112.325 75.7187 110.822 74.1633 109.702 72.2138C108.603 70.2436 108.053 68.0557 108.053 65.65L108.115 45.7717C108.115 43.4075 108.654 41.2714 109.733 39.3634C110.811 37.4346 112.294 35.8896 114.181 34.7282C116.089 33.5461 118.205 32.955 120.528 32.955C122.892 32.955 124.997 33.5254 126.843 34.666C128.709 35.8066 130.192 37.3517 131.291 39.3012C132.411 41.2299 132.971 43.3867 132.971 45.7717V48.6959C132.971 48.8618 132.888 48.9448 132.722 48.9448H125.567C125.401 48.9448 125.318 48.8618 125.318 48.6959V45.7717C125.318 44.3615 124.862 43.1482 123.949 42.132C123.037 41.1158 121.896 40.6077 120.528 40.6077C119.014 40.6077 117.852 41.1262 117.043 42.1631C116.235 43.2001 115.83 44.4029 115.83 45.7717V65.65C115.83 67.2054 116.286 68.4808 117.199 69.4763C118.111 70.451 119.221 70.9384 120.528 70.9384C121.896 70.9384 123.037 70.3992 123.949 69.3208C124.862 68.2216 125.318 66.998 125.318 65.65V62.6947C125.318 62.5288 125.401 62.4458 125.567 62.4458H132.784C132.95 62.4458 133.033 62.5288 133.033 62.6947V65.65C133.033 68.0349 132.473 70.2125 131.353 72.1827C130.213 74.1322 128.709 75.698 126.843 76.8801C124.976 78.0415 122.871 78.6222 120.528 78.6222ZM145.196 78H137.979C137.772 78 137.668 77.8963 137.668 77.6889L137.73 33.9194C137.73 33.7535 137.813 33.6705 137.979 33.6705H145.134C145.3 33.6705 145.383 33.7535 145.383 33.9194L145.445 77.6889C145.445 77.8963 145.362 78 145.196 78ZM158.511 78H151.356C151.149 78 151.045 77.8963 151.045 77.6889L151.169 33.9194C151.169 33.7535 151.252 33.6705 151.418 33.6705H163.675C167.574 33.6705 170.654 34.863 172.914 37.248C175.195 39.6122 176.336 42.8371 176.336 46.9227C176.336 49.9091 175.745 52.5119 174.563 54.7309C173.36 56.9292 171.805 58.6298 169.897 59.8327C167.989 61.0356 165.915 61.637 163.675 61.637H158.822V77.6889C158.822 77.8963 158.718 78 158.511 78ZM163.675 41.2299L158.822 41.2921V53.9221H163.675C165.023 53.9221 166.195 53.2792 167.19 51.9934C168.186 50.6868 168.683 48.9966 168.683 46.9227C168.683 45.2636 168.237 43.9052 167.346 42.8475C166.454 41.7691 165.23 41.2299 163.675 41.2299ZM178.514 77.6889L186.415 33.9194C186.457 33.7535 186.56 33.6705 186.726 33.6705H195.965C196.131 33.6705 196.235 33.7535 196.276 33.9194L203.867 77.6889C203.888 77.8963 203.805 78 203.618 78H196.556C196.349 78 196.235 77.8963 196.214 77.6889L195.53 73.0227H186.851L186.166 77.6889C186.146 77.8963 186.042 78 185.855 78H178.762C178.597 78 178.514 77.8963 178.514 77.6889ZM190.988 48.3226L188.126 66.2099H194.254L191.641 48.3226L191.268 45.9584L190.988 48.3226ZM215.377 78H208.16C207.953 78 207.849 77.8963 207.849 77.6889L207.911 33.9194C207.911 33.7535 207.994 33.6705 208.16 33.6705H215.315C215.481 33.6705 215.564 33.7535 215.564 33.9194L215.626 77.6889C215.626 77.8963 215.543 78 215.377 78ZM232.051 78.6222C229.791 78.6222 227.706 78.0415 225.798 76.8801C223.911 75.7187 222.397 74.1737 221.257 72.2449C220.137 70.2955 219.577 68.1594 219.577 65.8366V62.9124C219.577 62.6843 219.68 62.5702 219.888 62.5702H227.043C227.209 62.5702 227.292 62.6843 227.292 62.9124V65.8366C227.292 67.2261 227.758 68.429 228.691 69.4452C229.625 70.4407 230.745 70.9384 232.051 70.9384C233.378 70.9384 234.509 70.4303 235.442 69.4141C236.375 68.3771 236.842 67.1846 236.842 65.8366C236.842 64.2812 235.826 62.9228 233.793 61.7614C233.461 61.554 233.026 61.3052 232.487 61.0148C231.968 60.7037 231.346 60.3512 230.62 59.9571C229.894 59.5631 229.189 59.1794 228.505 58.8061C227.82 58.4121 227.157 58.0388 226.514 57.6862C224.191 56.3174 222.459 54.6065 221.319 52.5533C220.199 50.4794 219.639 48.1567 219.639 45.585C219.639 43.2208 220.22 41.0847 221.381 39.1767C222.542 37.2895 224.056 35.7963 225.923 34.6971C227.81 33.5772 229.853 33.0173 232.051 33.0173C234.312 33.0173 236.386 33.5772 238.273 34.6971C240.16 35.8378 241.664 37.3517 242.784 39.2389C243.924 41.1262 244.494 43.2415 244.494 45.585V50.8113C244.494 50.9772 244.412 51.0601 244.246 51.0601H237.091C236.925 51.0601 236.842 50.9772 236.842 50.8113L236.78 45.585C236.78 44.0918 236.313 42.8786 235.38 41.9454C234.446 41.0121 233.337 40.5455 232.051 40.5455C230.745 40.5455 229.625 41.0432 228.691 42.0387C227.758 43.0342 227.292 44.2163 227.292 45.585C227.292 46.9746 227.582 48.1359 228.163 49.0692C228.764 50.0024 229.853 50.8942 231.429 51.7445C231.595 51.8275 231.979 52.0349 232.58 52.3667C233.181 52.6985 233.845 53.0718 234.571 53.4866C235.318 53.8806 235.992 54.2436 236.593 54.5754C237.194 54.8865 237.557 55.0731 237.682 55.1353C239.797 56.3174 241.467 57.7692 242.69 59.4905C243.935 61.2118 244.557 63.3272 244.557 65.8366C244.557 68.2631 243.997 70.4407 242.877 72.3694C241.736 74.2981 240.222 75.8224 238.335 76.9423C236.448 78.0622 234.353 78.6222 232.051 78.6222ZM279.118 78H271.932C271.745 78 271.652 77.8963 271.652 77.6889V41.3543H263.377C263.17 41.3543 263.066 41.2506 263.066 41.0432L263.128 33.9194C263.128 33.7535 263.211 33.6705 263.377 33.6705H287.58C287.808 33.6705 287.922 33.7535 287.922 33.9194V41.0432C287.922 41.2506 287.839 41.3543 287.673 41.3543H279.305L279.367 77.6889C279.367 77.8963 279.284 78 279.118 78ZM288.886 77.6889L296.788 33.9194C296.829 33.7535 296.933 33.6705 297.099 33.6705H306.338C306.504 33.6705 306.608 33.7535 306.649 33.9194L314.24 77.6889C314.26 77.8963 314.177 78 313.991 78H306.929C306.722 78 306.608 77.8963 306.587 77.6889L305.902 73.0227H297.223L296.539 77.6889C296.518 77.8963 296.414 78 296.228 78H289.135C288.969 78 288.886 77.8963 288.886 77.6889ZM301.361 48.3226L298.499 66.2099H304.627L302.014 48.3226L301.641 45.9584L301.361 48.3226ZM329.887 78.6222C327.585 78.6222 325.511 78.0518 323.665 76.9112C321.799 75.7706 320.295 74.2359 319.155 72.3072C318.035 70.3784 317.475 68.2216 317.475 65.8366V45.6473C317.475 43.3245 318.045 41.2091 319.186 39.3012C320.306 37.3724 321.809 35.8378 323.696 34.6971C325.584 33.5357 327.647 32.955 329.887 32.955C332.231 32.955 334.346 33.515 336.233 34.6349C338.12 35.7755 339.614 37.2998 340.713 39.2078C341.833 41.1158 342.393 43.2623 342.393 45.6473V48.5715C342.393 48.7374 342.289 48.8203 342.082 48.8203H334.927C334.761 48.8203 334.678 48.7374 334.678 48.5715V46.145C334.678 44.5274 334.221 43.1897 333.309 42.132C332.396 41.0743 331.256 40.5455 329.887 40.5455C328.663 40.5455 327.575 41.0536 326.621 42.0698C325.667 43.086 325.19 44.2785 325.19 45.6473V65.8366C325.19 67.2261 325.656 68.429 326.59 69.4452C327.523 70.4407 328.622 70.9384 329.887 70.9384C331.256 70.9384 332.396 70.451 333.309 69.4763C334.221 68.4808 334.678 67.2676 334.678 65.8366V62.6947H330.229C330.001 62.6947 329.887 62.591 329.887 62.3836V55.2598C329.887 55.0524 330.001 54.9487 330.229 54.9487H342.144C342.31 54.9487 342.393 55.0524 342.393 55.2598V65.8366C342.393 68.2216 341.833 70.3784 340.713 72.3072C339.572 74.2359 338.069 75.7706 336.202 76.9112C334.336 78.0518 332.231 78.6222 329.887 78.6222ZM357.729 78.6222C355.469 78.6222 353.384 78.0415 351.476 76.8801C349.589 75.7187 348.075 74.1737 346.934 72.2449C345.815 70.2955 345.255 68.1594 345.255 65.8366V62.9124C345.255 62.6843 345.358 62.5702 345.566 62.5702H352.721C352.887 62.5702 352.969 62.6843 352.969 62.9124V65.8366C352.969 67.2261 353.436 68.429 354.369 69.4452C355.303 70.4407 356.422 70.9384 357.729 70.9384C359.056 70.9384 360.187 70.4303 361.12 69.4141C362.053 68.3771 362.52 67.1846 362.52 65.8366C362.52 64.2812 361.504 62.9228 359.471 61.7614C359.139 61.554 358.704 61.3052 358.165 61.0148C357.646 60.7037 357.024 60.3512 356.298 59.9571C355.572 59.5631 354.867 59.1794 354.183 58.8061C353.498 58.4121 352.835 58.0388 352.192 57.6862C349.869 56.3174 348.137 54.6065 346.997 52.5533C345.877 50.4794 345.317 48.1567 345.317 45.585C345.317 43.2208 345.897 41.0847 347.059 39.1767C348.22 37.2895 349.734 35.7963 351.601 34.6971C353.488 33.5772 355.531 33.0173 357.729 33.0173C359.99 33.0173 362.063 33.5772 363.951 34.6971C365.838 35.8378 367.342 37.3517 368.461 39.2389C369.602 41.1262 370.172 43.2415 370.172 45.585V50.8113C370.172 50.9772 370.089 51.0601 369.924 51.0601H362.769C362.603 51.0601 362.52 50.9772 362.52 50.8113L362.458 45.585C362.458 44.0918 361.991 42.8786 361.058 41.9454C360.124 41.0121 359.015 40.5455 357.729 40.5455C356.422 40.5455 355.303 41.0432 354.369 42.0387C353.436 43.0342 352.969 44.2163 352.969 45.585C352.969 46.9746 353.26 48.1359 353.84 49.0692C354.442 50.0024 355.531 50.8942 357.107 51.7445C357.273 51.8275 357.656 52.0349 358.258 52.3667C358.859 52.6985 359.523 53.0718 360.249 53.4866C360.995 53.8806 361.669 54.2436 362.271 54.5754C362.872 54.8865 363.235 55.0731 363.36 55.1353C365.475 56.3174 367.145 57.7692 368.368 59.4905C369.612 61.2118 370.235 63.3272 370.235 65.8366C370.235 68.2631 369.675 70.4407 368.555 72.3694C367.414 74.2981 365.9 75.8224 364.013 76.9423C362.126 78.0622 360.031 78.6222 357.729 78.6222Z" fill="#C19D3E"/>
<path d="M9.9858 78H2.83086C2.62347 78 2.51978 77.8963 2.51978 77.6889L2.64421 33.9194C2.64421 33.7535 2.72717 33.6705 2.89308 33.6705H15.1498C19.0487 33.6705 22.1284 34.863 24.389 37.248C26.6703 39.6122 27.8109 42.8371 27.8109 46.9227C27.8109 49.9091 27.2198 52.5119 26.0377 54.7309C24.8349 56.9292 23.2795 58.6298 21.3715 59.8327C19.4635 61.0356 17.3896 61.637 15.1498 61.637H10.2969V77.6889C10.2969 77.8963 10.1932 78 9.9858 78ZM15.1498 41.2299L10.2969 41.2921V53.9221H15.1498C16.4978 53.9221 17.6696 53.2792 18.665 51.9934C19.6605 50.6868 20.1582 48.9966 20.1582 46.9227C20.1582 45.2636 19.7124 43.9052 18.8206 42.8475C17.9288 41.7691 16.7052 41.2299 15.1498 41.2299ZM39.1033 78H31.8861C31.7202 78 31.6372 77.8963 31.6372 77.6889L31.7617 33.9194C31.7617 33.7535 31.8446 33.6705 32.0105 33.6705H44.8894C47.1914 33.6705 49.3068 34.2305 51.2355 35.3504C53.1643 36.4703 54.6989 37.9739 55.8396 39.8611C57.001 41.7483 57.5816 43.8845 57.5816 46.2694C57.5816 47.8249 57.3431 49.2351 56.8662 50.5002C56.3892 51.7653 55.8292 52.8333 55.1863 53.7043C54.5641 54.5754 53.9938 55.2183 53.4753 55.6331C55.7774 58.184 56.9284 61.1807 56.9284 64.6234L56.9906 77.6889C56.9906 77.8963 56.8869 78 56.6795 78H49.4624C49.2964 78 49.2135 77.9378 49.2135 77.8133V64.6234C49.2135 63.0887 48.6743 61.7614 47.5958 60.6415C46.5174 59.5216 45.1901 58.9617 43.614 58.9617H39.4143L39.3521 77.6889C39.3521 77.8963 39.2692 78 39.1033 78ZM44.8894 41.2921H39.4143V51.309H44.8894C46.196 51.309 47.3574 50.8216 48.3736 49.8469C49.4105 48.8722 49.929 47.6797 49.929 46.2694C49.929 44.9214 49.4312 43.76 48.4358 42.7853C47.4403 41.7898 46.2582 41.2921 44.8894 41.2921ZM69.9006 78H62.6834C62.476 78 62.3723 77.8963 62.3723 77.6889L62.4346 33.9194C62.4346 33.7535 62.5175 33.6705 62.6834 33.6705H69.8384C70.0043 33.6705 70.0872 33.7535 70.0872 33.9194L70.1494 77.6889C70.1494 77.8963 70.0665 78 69.9006 78ZM82.6861 78H76.3089C75.9771 78 75.8112 77.8548 75.8112 77.5645L75.749 34.1683C75.749 33.8364 75.9149 33.6705 76.2467 33.6705H82.0017L92.7652 58.775L92.4542 34.1683C92.4542 33.8364 92.6408 33.6705 93.0141 33.6705H99.3291C99.578 33.6705 99.7024 33.8364 99.7024 34.1683L99.7646 77.6267C99.7646 77.8756 99.6609 78 99.4536 78H93.854L82.8106 54.5443L83.2772 77.5023C83.2772 77.8341 83.0802 78 82.6861 78ZM117.03 78.6222C114.728 78.6222 112.623 78.0415 110.715 76.8801C108.828 75.7187 107.324 74.1633 106.204 72.2138C105.105 70.2436 104.555 68.0557 104.555 65.65L104.618 45.7717C104.618 43.4075 105.157 41.2714 106.235 39.3634C107.314 37.4346 108.796 35.8896 110.684 34.7282C112.592 33.5461 114.707 32.955 117.03 32.955C119.394 32.955 121.499 33.5254 123.345 34.666C125.211 35.8066 126.694 37.3517 127.793 39.3012C128.913 41.2299 129.473 43.3867 129.473 45.7717V48.6959C129.473 48.8618 129.39 48.9448 129.224 48.9448H122.069C121.903 48.9448 121.82 48.8618 121.82 48.6959V45.7717C121.82 44.3615 121.364 43.1482 120.452 42.132C119.539 41.1158 118.399 40.6077 117.03 40.6077C115.516 40.6077 114.354 41.1262 113.546 42.1631C112.737 43.2001 112.332 44.4029 112.332 45.7717V65.65C112.332 67.2054 112.789 68.4808 113.701 69.4763C114.614 70.451 115.723 70.9384 117.03 70.9384C118.399 70.9384 119.539 70.3992 120.452 69.3208C121.364 68.2216 121.82 66.998 121.82 65.65V62.6947C121.82 62.5288 121.903 62.4458 122.069 62.4458H129.287C129.452 62.4458 129.535 62.5288 129.535 62.6947V65.65C129.535 68.0349 128.975 70.2125 127.856 72.1827C126.715 74.1322 125.211 75.698 123.345 76.8801C121.478 78.0415 119.373 78.6222 117.03 78.6222ZM141.699 78H134.482C134.274 78 134.171 77.8963 134.171 77.6889L134.233 33.9194C134.233 33.7535 134.316 33.6705 134.482 33.6705H141.637C141.802 33.6705 141.885 33.7535 141.885 33.9194L141.948 77.6889C141.948 77.8963 141.865 78 141.699 78ZM155.013 78H147.858C147.651 78 147.547 77.8963 147.547 77.6889L147.672 33.9194C147.672 33.7535 147.755 33.6705 147.92 33.6705H160.177C164.076 33.6705 167.156 34.863 169.416 37.248C171.698 39.6122 172.838 42.8371 172.838 46.9227C172.838 49.9091 172.247 52.5119 171.065 54.7309C169.862 56.9292 168.307 58.6298 166.399 59.8327C164.491 61.0356 162.417 61.637 160.177 61.637H155.324V77.6889C155.324 77.8963 155.221 78 155.013 78ZM160.177 41.2299L155.324 41.2921V53.9221H160.177C161.525 53.9221 162.697 53.2792 163.692 51.9934C164.688 50.6868 165.186 48.9966 165.186 46.9227C165.186 45.2636 164.74 43.9052 163.848 42.8475C162.956 41.7691 161.733 41.2299 160.177 41.2299ZM175.016 77.6889L182.917 33.9194C182.959 33.7535 183.063 33.6705 183.228 33.6705H192.468C192.634 33.6705 192.737 33.7535 192.779 33.9194L200.369 77.6889C200.39 77.8963 200.307 78 200.12 78H193.059C192.851 78 192.737 77.8963 192.717 77.6889L192.032 73.0227H183.353L182.669 77.6889C182.648 77.8963 182.544 78 182.357 78H175.265C175.099 78 175.016 77.8963 175.016 77.6889ZM187.49 48.3226L184.628 66.2099H190.757L188.144 48.3226L187.77 45.9584L187.49 48.3226ZM211.879 78H204.662C204.455 78 204.351 77.8963 204.351 77.6889L204.413 33.9194C204.413 33.7535 204.496 33.6705 204.662 33.6705H211.817C211.983 33.6705 212.066 33.7535 212.066 33.9194L212.128 77.6889C212.128 77.8963 212.045 78 211.879 78ZM228.553 78.6222C226.293 78.6222 224.209 78.0415 222.301 76.8801C220.413 75.7187 218.899 74.1737 217.759 72.2449C216.639 70.2955 216.079 68.1594 216.079 65.8366V62.9124C216.079 62.6843 216.183 62.5702 216.39 62.5702H223.545C223.711 62.5702 223.794 62.6843 223.794 62.9124V65.8366C223.794 67.2261 224.26 68.429 225.194 69.4452C226.127 70.4407 227.247 70.9384 228.553 70.9384C229.881 70.9384 231.011 70.4303 231.944 69.4141C232.877 68.3771 233.344 67.1846 233.344 65.8366C233.344 64.2812 232.328 62.9228 230.295 61.7614C229.964 61.554 229.528 61.3052 228.989 61.0148C228.47 60.7037 227.848 60.3512 227.122 59.9571C226.397 59.5631 225.691 59.1794 225.007 58.8061C224.323 58.4121 223.659 58.0388 223.016 57.6862C220.693 56.3174 218.962 54.6065 217.821 52.5533C216.701 50.4794 216.141 48.1567 216.141 45.585C216.141 43.2208 216.722 41.0847 217.883 39.1767C219.045 37.2895 220.559 35.7963 222.425 34.6971C224.312 33.5772 226.355 33.0173 228.553 33.0173C230.814 33.0173 232.888 33.5772 234.775 34.6971C236.662 35.8378 238.166 37.3517 239.286 39.2389C240.426 41.1262 240.997 43.2415 240.997 45.585V50.8113C240.997 50.9772 240.914 51.0601 240.748 51.0601H233.593C233.427 51.0601 233.344 50.9772 233.344 50.8113L233.282 45.585C233.282 44.0918 232.815 42.8786 231.882 41.9454C230.949 41.0121 229.839 40.5455 228.553 40.5455C227.247 40.5455 226.127 41.0432 225.194 42.0387C224.26 43.0342 223.794 44.2163 223.794 45.585C223.794 46.9746 224.084 48.1359 224.665 49.0692C225.266 50.0024 226.355 50.8942 227.931 51.7445C228.097 51.8275 228.481 52.0349 229.082 52.3667C229.684 52.6985 230.347 53.0718 231.073 53.4866C231.82 53.8806 232.494 54.2436 233.095 54.5754C233.697 54.8865 234.06 55.0731 234.184 55.1353C236.299 56.3174 237.969 57.7692 239.192 59.4905C240.437 61.2118 241.059 63.3272 241.059 65.8366C241.059 68.2631 240.499 70.4407 239.379 72.3694C238.238 74.2981 236.725 75.8224 234.837 76.9423C232.95 78.0622 230.855 78.6222 228.553 78.6222ZM275.62 78H268.434C268.248 78 268.154 77.8963 268.154 77.6889V41.3543H259.88C259.672 41.3543 259.568 41.2506 259.568 41.0432L259.631 33.9194C259.631 33.7535 259.714 33.6705 259.88 33.6705H284.082C284.31 33.6705 284.424 33.7535 284.424 33.9194V41.0432C284.424 41.2506 284.341 41.3543 284.175 41.3543H275.807L275.869 77.6889C275.869 77.8963 275.786 78 275.62 78ZM285.388 77.6889L293.29 33.9194C293.331 33.7535 293.435 33.6705 293.601 33.6705H302.84C303.006 33.6705 303.11 33.7535 303.151 33.9194L310.742 77.6889C310.763 77.8963 310.68 78 310.493 78H303.431C303.224 78 303.11 77.8963 303.089 77.6889L302.405 73.0227H293.725L293.041 77.6889C293.02 77.8963 292.917 78 292.73 78H285.637C285.471 78 285.388 77.8963 285.388 77.6889ZM297.863 48.3226L295.001 66.2099H301.129L298.516 48.3226L298.143 45.9584L297.863 48.3226ZM326.389 78.6222C324.087 78.6222 322.013 78.0518 320.168 76.9112C318.301 75.7706 316.798 74.2359 315.657 72.3072C314.537 70.3784 313.977 68.2216 313.977 65.8366V45.6473C313.977 43.3245 314.547 41.2091 315.688 39.3012C316.808 37.3724 318.312 35.8378 320.199 34.6971C322.086 33.5357 324.15 32.955 326.389 32.955C328.733 32.955 330.848 33.515 332.735 34.6349C334.623 35.7755 336.116 37.2998 337.215 39.2078C338.335 41.1158 338.895 43.2623 338.895 45.6473V48.5715C338.895 48.7374 338.791 48.8203 338.584 48.8203H331.429C331.263 48.8203 331.18 48.7374 331.18 48.5715V46.145C331.18 44.5274 330.724 43.1897 329.811 42.132C328.899 41.0743 327.758 40.5455 326.389 40.5455C325.166 40.5455 324.077 41.0536 323.123 42.0698C322.169 43.086 321.692 44.2785 321.692 45.6473V65.8366C321.692 67.2261 322.159 68.429 323.092 69.4452C324.025 70.4407 325.124 70.9384 326.389 70.9384C327.758 70.9384 328.899 70.451 329.811 69.4763C330.724 68.4808 331.18 67.2676 331.18 65.8366V62.6947H326.732C326.503 62.6947 326.389 62.591 326.389 62.3836V55.2598C326.389 55.0524 326.503 54.9487 326.732 54.9487H338.646C338.812 54.9487 338.895 55.0524 338.895 55.2598V65.8366C338.895 68.2216 338.335 70.3784 337.215 72.3072C336.074 74.2359 334.571 75.7706 332.704 76.9112C330.838 78.0518 328.733 78.6222 326.389 78.6222ZM354.231 78.6222C351.971 78.6222 349.887 78.0415 347.979 76.8801C346.091 75.7187 344.577 74.1737 343.437 72.2449C342.317 70.2955 341.757 68.1594 341.757 65.8366V62.9124C341.757 62.6843 341.861 62.5702 342.068 62.5702H349.223C349.389 62.5702 349.472 62.6843 349.472 62.9124V65.8366C349.472 67.2261 349.938 68.429 350.872 69.4452C351.805 70.4407 352.925 70.9384 354.231 70.9384C355.559 70.9384 356.689 70.4303 357.622 69.4141C358.555 68.3771 359.022 67.1846 359.022 65.8366C359.022 64.2812 358.006 62.9228 355.973 61.7614C355.642 61.554 355.206 61.3052 354.667 61.0148C354.148 60.7037 353.526 60.3512 352.8 59.9571C352.074 59.5631 351.369 59.1794 350.685 58.8061C350.001 58.4121 349.337 58.0388 348.694 57.6862C346.371 56.3174 344.64 54.6065 343.499 52.5533C342.379 50.4794 341.819 48.1567 341.819 45.585C341.819 43.2208 342.4 41.0847 343.561 39.1767C344.723 37.2895 346.236 35.7963 348.103 34.6971C349.99 33.5772 352.033 33.0173 354.231 33.0173C356.492 33.0173 358.566 33.5772 360.453 34.6971C362.34 35.8378 363.844 37.3517 364.964 39.2389C366.104 41.1262 366.675 43.2415 366.675 45.585V50.8113C366.675 50.9772 366.592 51.0601 366.426 51.0601H359.271C359.105 51.0601 359.022 50.9772 359.022 50.8113L358.96 45.585C358.96 44.0918 358.493 42.8786 357.56 41.9454C356.627 41.0121 355.517 40.5455 354.231 40.5455C352.925 40.5455 351.805 41.0432 350.872 42.0387C349.938 43.0342 349.472 44.2163 349.472 45.585C349.472 46.9746 349.762 48.1359 350.343 49.0692C350.944 50.0024 352.033 50.8942 353.609 51.7445C353.775 51.8275 354.159 52.0349 354.76 52.3667C355.362 52.6985 356.025 53.0718 356.751 53.4866C357.498 53.8806 358.172 54.2436 358.773 54.5754C359.375 54.8865 359.738 55.0731 359.862 55.1353C361.977 56.3174 363.647 57.7692 364.87 59.4905C366.115 61.2118 366.737 63.3272 366.737 65.8366C366.737 68.2631 366.177 70.4407 365.057 72.3694C363.916 74.2981 362.402 75.8224 360.515 76.9423C358.628 78.0622 356.533 78.6222 354.231 78.6222Z" fill="white"/>
</svg>
