<svg width="787" height="94" viewBox="0 0 787 94" fill="none" xmlns="http://www.w3.org/2000/svg">
<path d="M190.528 78.6222C188.226 78.6222 186.121 78.0415 184.213 76.8801C182.325 75.7187 180.822 74.1633 179.702 72.2138C178.603 70.2436 178.053 68.0557 178.053 65.65L178.115 45.7717C178.115 43.4075 178.655 41.2714 179.733 39.3634C180.811 37.4346 182.294 35.8896 184.181 34.7282C186.089 33.5461 188.205 32.955 190.528 32.955C192.892 32.955 194.997 33.5254 196.843 34.666C198.709 35.8066 200.192 37.3517 201.291 39.3012C202.411 41.2299 202.971 43.3867 202.971 45.7717V48.6959C202.971 48.8618 202.888 48.9448 202.722 48.9448H195.567C195.401 48.9448 195.318 48.8618 195.318 48.6959V45.7717C195.318 44.3615 194.862 43.1482 193.949 42.132C193.037 41.1158 191.896 40.6077 190.528 40.6077C189.014 40.6077 187.852 41.1262 187.043 42.1631C186.235 43.2001 185.83 44.4029 185.83 45.7717V65.65C185.83 67.2054 186.286 68.4808 187.199 69.4763C188.111 70.451 189.221 70.9384 190.528 70.9384C191.896 70.9384 193.037 70.3992 193.949 69.3208C194.862 68.2216 195.318 66.998 195.318 65.65V62.6947C195.318 62.5288 195.401 62.4458 195.567 62.4458H202.784C202.95 62.4458 203.033 62.5288 203.033 62.6947V65.65C203.033 68.0349 202.473 70.2125 201.353 72.1827C200.213 74.1322 198.709 75.698 196.843 76.8801C194.976 78.0415 192.871 78.6222 190.528 78.6222ZM219.458 78.6222C217.198 78.6222 215.114 78.0415 213.206 76.8801C211.318 75.7187 209.794 74.1737 208.633 72.2449C207.492 70.2955 206.922 68.1594 206.922 65.8366L206.984 45.6473C206.984 43.283 207.554 41.1573 208.695 39.27C209.815 37.3621 211.329 35.8378 213.237 34.6971C215.145 33.5357 217.219 32.955 219.458 32.955C221.781 32.955 223.865 33.5254 225.711 34.666C227.578 35.8066 229.071 37.3413 230.191 39.27C231.331 41.178 231.902 43.3038 231.902 45.6473L231.964 65.8366C231.964 68.1594 231.404 70.2851 230.284 72.2138C229.143 74.1633 227.63 75.7187 225.742 76.8801C223.855 78.0415 221.76 78.6222 219.458 78.6222ZM219.458 70.9384C220.744 70.9384 221.864 70.4199 222.818 69.383C223.772 68.3253 224.249 67.1432 224.249 65.8366L224.187 45.6473C224.187 44.237 223.741 43.0445 222.849 42.0698C221.957 41.0951 220.827 40.6077 219.458 40.6077C218.152 40.6077 217.032 41.0847 216.099 42.0387C215.165 42.9927 214.699 44.1955 214.699 45.6473V65.8366C214.699 67.2261 215.165 68.429 216.099 69.4452C217.032 70.4407 218.152 70.9384 219.458 70.9384ZM244.252 78H237.035C236.869 78 236.786 77.8963 236.786 77.6889L236.91 33.9194C236.91 33.7535 236.993 33.6705 237.159 33.6705H244.936C245.102 33.6705 245.247 33.7535 245.372 33.9194L251.189 42.3187L256.975 33.9194C257.1 33.7535 257.255 33.6705 257.442 33.6705H265.25C265.437 33.6705 265.53 33.7535 265.53 33.9194L265.654 77.6889C265.654 77.8963 265.571 78 265.405 78H258.188C258.022 78 257.939 77.8963 257.939 77.6889L257.877 45.1806L251.189 54.8865L244.563 45.1806L244.501 77.6889C244.501 77.8963 244.418 78 244.252 78ZM282.795 78.6222C280.535 78.6222 278.45 78.0415 276.542 76.8801C274.655 75.7187 273.131 74.1737 271.969 72.2449C270.829 70.2955 270.258 68.1594 270.258 65.8366L270.321 45.6473C270.321 43.283 270.891 41.1573 272.032 39.27C273.151 37.3621 274.665 35.8378 276.573 34.6971C278.481 33.5357 280.555 32.955 282.795 32.955C285.118 32.955 287.202 33.5254 289.048 34.666C290.914 35.8066 292.408 37.3413 293.527 39.27C294.668 41.178 295.238 43.3038 295.238 45.6473L295.301 65.8366C295.301 68.1594 294.741 70.2851 293.621 72.2138C292.48 74.1633 290.966 75.7187 289.079 76.8801C287.192 78.0415 285.097 78.6222 282.795 78.6222ZM282.795 70.9384C284.081 70.9384 285.201 70.4199 286.155 69.383C287.109 68.3253 287.586 67.1432 287.586 65.8366L287.524 45.6473C287.524 44.237 287.078 43.0445 286.186 42.0698C285.294 41.0951 284.164 40.6077 282.795 40.6077C281.489 40.6077 280.369 41.0847 279.435 42.0387C278.502 42.9927 278.035 44.1955 278.035 45.6473V65.8366C278.035 67.2261 278.502 68.429 279.435 69.4452C280.369 70.4407 281.489 70.9384 282.795 70.9384ZM324.138 78H316.983C316.776 78 316.672 77.8963 316.672 77.6889L316.797 33.9194C316.797 33.7535 316.88 33.6705 317.045 33.6705H337.453C337.66 33.6705 337.764 33.7535 337.764 33.9194V41.1054C337.764 41.2714 337.681 41.3543 337.515 41.3543H324.449V51.2468H337.515C337.681 51.2468 337.764 51.3505 337.764 51.5579L337.826 58.775C337.826 58.9409 337.722 59.0239 337.515 59.0239H324.449V77.6889C324.449 77.8963 324.346 78 324.138 78ZM355.215 78.6222C352.976 78.6222 350.902 78.0415 348.994 76.8801C347.086 75.7187 345.561 74.1633 344.421 72.2138C343.301 70.2436 342.741 68.0972 342.741 65.7744L342.865 33.9194C342.865 33.7535 342.948 33.6705 343.114 33.6705H350.269C350.435 33.6705 350.518 33.7535 350.518 33.9194V65.7744C350.518 67.2054 350.974 68.429 351.887 69.4452C352.799 70.4407 353.909 70.9384 355.215 70.9384C356.584 70.9384 357.725 70.4407 358.637 69.4452C359.55 68.429 360.006 67.2054 360.006 65.7744V33.9194C360.006 33.7535 360.089 33.6705 360.255 33.6705H367.41C367.576 33.6705 367.659 33.7535 367.659 33.9194L367.783 65.7744C367.783 68.1179 367.223 70.2747 366.103 72.2449C364.963 74.1944 363.449 75.7498 361.562 76.9112C359.674 78.0518 357.559 78.6222 355.215 78.6222ZM379.729 78H373.352C373.02 78 372.854 77.8548 372.854 77.5645L372.792 34.1683C372.792 33.8364 372.958 33.6705 373.289 33.6705H379.044L389.808 58.775L389.497 34.1683C389.497 33.8364 389.684 33.6705 390.057 33.6705H396.372C396.621 33.6705 396.745 33.8364 396.745 34.1683L396.807 77.6267C396.807 77.8756 396.704 78 396.496 78H390.897L379.853 54.5443L380.32 77.5023C380.32 77.8341 380.123 78 379.729 78ZM414.073 78.6222C411.77 78.6222 409.665 78.0415 407.758 76.8801C405.87 75.7187 404.367 74.1633 403.247 72.2138C402.148 70.2436 401.598 68.0557 401.598 65.65L401.66 45.7717C401.66 43.4075 402.199 41.2714 403.278 39.3634C404.356 37.4346 405.839 35.8896 407.726 34.7282C409.634 33.5461 411.75 32.955 414.073 32.955C416.437 32.955 418.542 33.5254 420.388 34.666C422.254 35.8066 423.737 37.3517 424.836 39.3012C425.956 41.2299 426.516 43.3867 426.516 45.7717V48.6959C426.516 48.8618 426.433 48.9448 426.267 48.9448H419.112C418.946 48.9448 418.863 48.8618 418.863 48.6959V45.7717C418.863 44.3615 418.407 43.1482 417.494 42.132C416.582 41.1158 415.441 40.6077 414.073 40.6077C412.559 40.6077 411.397 41.1262 410.588 42.1631C409.78 43.2001 409.375 44.4029 409.375 45.7717V65.65C409.375 67.2054 409.831 68.4808 410.744 69.4763C411.656 70.451 412.766 70.9384 414.073 70.9384C415.441 70.9384 416.582 70.3992 417.494 69.3208C418.407 68.2216 418.863 66.998 418.863 65.65V62.6947C418.863 62.5288 418.946 62.4458 419.112 62.4458H426.329C426.495 62.4458 426.578 62.5288 426.578 62.6947V65.65C426.578 68.0349 426.018 70.2125 424.898 72.1827C423.758 74.1322 422.254 75.698 420.388 76.8801C418.521 78.0415 416.416 78.6222 414.073 78.6222ZM438.741 78H431.524C431.317 78 431.213 77.8963 431.213 77.6889L431.275 33.9194C431.275 33.7535 431.358 33.6705 431.524 33.6705H438.679C438.845 33.6705 438.928 33.7535 438.928 33.9194L438.99 77.6889C438.99 77.8963 438.907 78 438.741 78ZM456.38 78.6222C454.119 78.6222 452.035 78.0415 450.127 76.8801C448.24 75.7187 446.716 74.1737 445.554 72.2449C444.414 70.2955 443.843 68.1594 443.843 65.8366L443.905 45.6473C443.905 43.283 444.476 41.1573 445.616 39.27C446.736 37.3621 448.25 35.8378 450.158 34.6971C452.066 33.5357 454.14 32.955 456.38 32.955C458.703 32.955 460.787 33.5254 462.633 34.666C464.499 35.8066 465.992 37.3413 467.112 39.27C468.253 41.178 468.823 43.3038 468.823 45.6473L468.886 65.8366C468.886 68.1594 468.326 70.2851 467.206 72.2138C466.065 74.1633 464.551 75.7187 462.664 76.8801C460.777 78.0415 458.682 78.6222 456.38 78.6222ZM456.38 70.9384C457.666 70.9384 458.786 70.4199 459.74 69.383C460.694 68.3253 461.171 67.1432 461.171 65.8366L461.108 45.6473C461.108 44.237 460.663 43.0445 459.771 42.0698C458.879 41.0951 457.749 40.6077 456.38 40.6077C455.073 40.6077 453.953 41.0847 453.02 42.0387C452.087 42.9927 451.62 44.1955 451.62 45.6473V65.8366C451.62 67.2261 452.087 68.429 453.02 69.4452C453.953 70.4407 455.073 70.9384 456.38 70.9384ZM480.644 78H474.267C473.935 78 473.77 77.8548 473.77 77.5645L473.707 34.1683C473.707 33.8364 473.873 33.6705 474.205 33.6705H479.96L490.724 58.775L490.413 34.1683C490.413 33.8364 490.599 33.6705 490.972 33.6705H497.287C497.536 33.6705 497.661 33.8364 497.661 34.1683L497.723 77.6267C497.723 77.8756 497.619 78 497.412 78H491.812L480.769 54.5443L481.236 77.5023C481.236 77.8341 481.039 78 480.644 78ZM501.114 77.6889L509.015 33.9194C509.057 33.7535 509.161 33.6705 509.326 33.6705H518.566C518.732 33.6705 518.835 33.7535 518.877 33.9194L526.467 77.6889C526.488 77.8963 526.405 78 526.218 78H519.157C518.949 78 518.835 77.8963 518.814 77.6889L518.13 73.0227H509.451L508.766 77.6889C508.746 77.8963 508.642 78 508.455 78H501.363C501.197 78 501.114 77.8963 501.114 77.6889ZM513.588 48.3226L510.726 66.2099H516.855L514.242 48.3226L513.868 45.9584L513.588 48.3226ZM537.915 78H530.698C530.532 78 530.449 77.8963 530.449 77.6889L530.573 33.9194C530.573 33.7535 530.656 33.6705 530.822 33.6705H538.599C538.765 33.6705 538.91 33.7535 539.035 33.9194L544.852 42.3187L550.638 33.9194C550.763 33.7535 550.918 33.6705 551.105 33.6705H558.913C559.1 33.6705 559.193 33.7535 559.193 33.9194L559.318 77.6889C559.318 77.8963 559.235 78 559.069 78H551.852C551.686 78 551.603 77.8963 551.603 77.6889L551.54 45.1806L544.852 54.8865L538.226 45.1806L538.164 77.6889C538.164 77.8963 538.081 78 537.915 78ZM579.071 77.6889L586.973 33.9194C587.014 33.7535 587.118 33.6705 587.284 33.6705H596.523C596.689 33.6705 596.793 33.7535 596.834 33.9194L604.425 77.6889C604.446 77.8963 604.363 78 604.176 78H597.114C596.907 78 596.793 77.8963 596.772 77.6889L596.088 73.0227H587.408L586.724 77.6889C586.703 77.8963 586.6 78 586.413 78H579.32C579.154 78 579.071 77.8963 579.071 77.6889ZM591.546 48.3226L588.684 66.2099H594.812L592.199 48.3226L591.826 45.9584L591.546 48.3226ZM619.232 78.6222C616.972 78.6222 614.888 78.0415 612.98 76.8801C611.092 75.7187 609.578 74.1737 608.438 72.2449C607.318 70.2955 606.758 68.1594 606.758 65.8366V62.9124C606.758 62.6843 606.862 62.5702 607.069 62.5702H614.224C614.39 62.5702 614.473 62.6843 614.473 62.9124V65.8366C614.473 67.2261 614.939 68.429 615.873 69.4452C616.806 70.4407 617.926 70.9384 619.232 70.9384C620.56 70.9384 621.69 70.4303 622.623 69.4141C623.556 68.3771 624.023 67.1846 624.023 65.8366C624.023 64.2812 623.007 62.9228 620.974 61.7614C620.643 61.554 620.207 61.3052 619.668 61.0148C619.149 60.7037 618.527 60.3512 617.801 59.9571C617.075 59.5631 616.37 59.1794 615.686 58.8061C615.002 58.4121 614.338 58.0388 613.695 57.6862C611.372 56.3174 609.641 54.6065 608.5 52.5533C607.38 50.4794 606.82 48.1567 606.82 45.585C606.82 43.2208 607.401 41.0847 608.562 39.1767C609.724 37.2895 611.237 35.7963 613.104 34.6971C614.991 33.5772 617.034 33.0173 619.232 33.0173C621.493 33.0173 623.567 33.5772 625.454 34.6971C627.341 35.8378 628.845 37.3517 629.965 39.2389C631.105 41.1262 631.676 43.2415 631.676 45.585V50.8113C631.676 50.9772 631.593 51.0601 631.427 51.0601H624.272C624.106 51.0601 624.023 50.9772 624.023 50.8113L623.961 45.585C623.961 44.0918 623.494 42.8786 622.561 41.9454C621.628 41.0121 620.518 40.5455 619.232 40.5455C617.926 40.5455 616.806 41.0432 615.873 42.0387C614.939 43.0342 614.473 44.2163 614.473 45.585C614.473 46.9746 614.763 48.1359 615.344 49.0692C615.945 50.0024 617.034 50.8942 618.61 51.7445C618.776 51.8275 619.16 52.0349 619.761 52.3667C620.363 52.6985 621.026 53.0718 621.752 53.4866C622.499 53.8806 623.173 54.2436 623.774 54.5754C624.376 54.8865 624.739 55.0731 624.863 55.1353C626.978 56.3174 628.648 57.7692 629.871 59.4905C631.116 61.2118 631.738 63.3272 631.738 65.8366C631.738 68.2631 631.178 70.4407 630.058 72.3694C628.917 74.2981 627.403 75.8224 625.516 76.9423C623.629 78.0622 621.534 78.6222 619.232 78.6222ZM666.299 78H659.113C658.927 78 658.833 77.8963 658.833 77.6889V41.3543H650.559C650.351 41.3543 650.247 41.2506 650.247 41.0432L650.31 33.9194C650.31 33.7535 650.393 33.6705 650.559 33.6705H674.761C674.989 33.6705 675.103 33.7535 675.103 33.9194V41.0432C675.103 41.2506 675.02 41.3543 674.854 41.3543H666.486L666.548 77.6889C666.548 77.8963 666.465 78 666.299 78ZM676.067 77.6889L683.969 33.9194C684.01 33.7535 684.114 33.6705 684.28 33.6705H693.519C693.685 33.6705 693.789 33.7535 693.83 33.9194L701.421 77.6889C701.441 77.8963 701.359 78 701.172 78H694.11C693.903 78 693.789 77.8963 693.768 77.6889L693.084 73.0227H684.404L683.72 77.6889C683.699 77.8963 683.596 78 683.409 78H676.316C676.15 78 676.067 77.8963 676.067 77.6889ZM688.542 48.3226L685.68 66.2099H691.808L689.195 48.3226L688.822 45.9584L688.542 48.3226ZM717.068 78.6222C714.766 78.6222 712.692 78.0518 710.847 76.9112C708.98 75.7706 707.477 74.2359 706.336 72.3072C705.216 70.3784 704.656 68.2216 704.656 65.8366V45.6473C704.656 43.3245 705.226 41.2091 706.367 39.3012C707.487 37.3724 708.99 35.8378 710.878 34.6971C712.765 33.5357 714.828 32.955 717.068 32.955C719.412 32.955 721.527 33.515 723.414 34.6349C725.302 35.7755 726.795 37.2998 727.894 39.2078C729.014 41.1158 729.574 43.2623 729.574 45.6473V48.5715C729.574 48.7374 729.47 48.8203 729.263 48.8203H722.108C721.942 48.8203 721.859 48.7374 721.859 48.5715V46.145C721.859 44.5274 721.403 43.1897 720.49 42.132C719.578 41.0743 718.437 40.5455 717.068 40.5455C715.845 40.5455 714.756 41.0536 713.802 42.0698C712.848 43.086 712.371 44.2785 712.371 45.6473V65.8366C712.371 67.2261 712.838 68.429 713.771 69.4452C714.704 70.4407 715.803 70.9384 717.068 70.9384C718.437 70.9384 719.578 70.451 720.49 69.4763C721.403 68.4808 721.859 67.2676 721.859 65.8366V62.6947H717.41C717.182 62.6947 717.068 62.591 717.068 62.3836V55.2598C717.068 55.0524 717.182 54.9487 717.41 54.9487H729.325C729.491 54.9487 729.574 55.0524 729.574 55.2598V65.8366C729.574 68.2216 729.014 70.3784 727.894 72.3072C726.753 74.2359 725.25 75.7706 723.383 76.9112C721.517 78.0518 719.412 78.6222 717.068 78.6222ZM744.91 78.6222C742.65 78.6222 740.566 78.0415 738.658 76.8801C736.77 75.7187 735.256 74.1737 734.116 72.2449C732.996 70.2955 732.436 68.1594 732.436 65.8366V62.9124C732.436 62.6843 732.54 62.5702 732.747 62.5702H739.902C740.068 62.5702 740.151 62.6843 740.151 62.9124V65.8366C740.151 67.2261 740.617 68.429 741.551 69.4452C742.484 70.4407 743.604 70.9384 744.91 70.9384C746.238 70.9384 747.368 70.4303 748.301 69.4141C749.234 68.3771 749.701 67.1846 749.701 65.8366C749.701 64.2812 748.685 62.9228 746.652 61.7614C746.321 61.554 745.885 61.3052 745.346 61.0148C744.827 60.7037 744.205 60.3512 743.479 59.9571C742.753 59.5631 742.048 59.1794 741.364 58.8061C740.68 58.4121 740.016 58.0388 739.373 57.6862C737.05 56.3174 735.319 54.6065 734.178 52.5533C733.058 50.4794 732.498 48.1567 732.498 45.585C732.498 43.2208 733.079 41.0847 734.24 39.1767C735.402 37.2895 736.915 35.7963 738.782 34.6971C740.669 33.5772 742.712 33.0173 744.91 33.0173C747.171 33.0173 749.245 33.5772 751.132 34.6971C753.019 35.8378 754.523 37.3517 755.643 39.2389C756.783 41.1262 757.354 43.2415 757.354 45.585V50.8113C757.354 50.9772 757.271 51.0601 757.105 51.0601H749.95C749.784 51.0601 749.701 50.9772 749.701 50.8113L749.639 45.585C749.639 44.0918 749.172 42.8786 748.239 41.9454C747.306 41.0121 746.196 40.5455 744.91 40.5455C743.604 40.5455 742.484 41.0432 741.551 42.0387C740.617 43.0342 740.151 44.2163 740.151 45.585C740.151 46.9746 740.441 48.1359 741.022 49.0692C741.623 50.0024 742.712 50.8942 744.288 51.7445C744.454 51.8275 744.838 52.0349 745.439 52.3667C746.041 52.6985 746.704 53.0718 747.43 53.4866C748.177 53.8806 748.851 54.2436 749.452 54.5754C750.054 54.8865 750.417 55.0731 750.541 55.1353C752.656 56.3174 754.326 57.7692 755.549 59.4905C756.794 61.2118 757.416 63.3272 757.416 65.8366C757.416 68.2631 756.856 70.4407 755.736 72.3694C754.595 74.2981 753.081 75.8224 751.194 76.9423C749.307 78.0622 747.212 78.6222 744.91 78.6222ZM776.174 66.2721H769.113C768.884 66.2721 768.77 66.1892 768.77 66.0233V62.5702C768.77 60.8696 769.164 59.169 769.953 57.4685C770.741 55.7471 771.819 54.2021 773.188 52.8333C773.831 52.1904 774.38 51.6304 774.837 51.1535C775.314 50.6557 775.697 50.2306 775.988 49.878C776.589 49.1729 776.973 48.53 777.139 47.9493C777.305 47.3479 777.387 46.6427 777.387 45.8339C777.387 44.3407 776.942 43.0964 776.05 42.1009C775.158 41.1054 774.028 40.6077 772.659 40.6077C771.311 40.6077 770.181 41.1054 769.268 42.1009C768.356 43.0964 767.899 44.3407 767.899 45.8339V50.4691C767.899 50.635 767.816 50.7179 767.651 50.7179H760.433C760.267 50.7179 760.185 50.635 760.185 50.4691V45.8339C760.185 43.4489 760.755 41.2817 761.895 39.3323C763.015 37.3828 764.519 35.8378 766.406 34.6971C768.293 33.5357 770.378 32.955 772.659 32.955C774.961 32.955 777.056 33.5254 778.943 34.666C780.83 35.8066 782.323 37.3621 783.422 39.3323C784.542 41.2817 785.102 43.4489 785.102 45.8339C785.102 47.1819 784.957 48.4159 784.667 49.5358C784.356 50.6142 783.796 51.7445 782.987 52.9266C782.178 54.088 780.986 55.5397 779.41 57.2818C778.352 58.3602 777.595 59.3246 777.139 60.1749C776.703 61.0252 776.485 61.9584 776.485 62.9746V66.0233C776.485 66.1892 776.382 66.2721 776.174 66.2721ZM776.174 78H769.113C768.884 78 768.77 77.8963 768.77 77.6889V70.5962C768.77 70.4303 768.884 70.3473 769.113 70.3473H776.174C776.382 70.3473 776.485 70.4303 776.485 70.5962V77.6889C776.485 77.8963 776.382 78 776.174 78Z" fill="#C19D3E"/>
<path d="M187.528 78.6222C185.226 78.6222 183.121 78.0415 181.213 76.8801C179.325 75.7187 177.822 74.1633 176.702 72.2138C175.603 70.2436 175.053 68.0557 175.053 65.65L175.115 45.7717C175.115 43.4075 175.655 41.2714 176.733 39.3634C177.811 37.4346 179.294 35.8896 181.181 34.7282C183.089 33.5461 185.205 32.955 187.528 32.955C189.892 32.955 191.997 33.5254 193.843 34.666C195.709 35.8066 197.192 37.3517 198.291 39.3012C199.411 41.2299 199.971 43.3867 199.971 45.7717V48.6959C199.971 48.8618 199.888 48.9448 199.722 48.9448H192.567C192.401 48.9448 192.318 48.8618 192.318 48.6959V45.7717C192.318 44.3615 191.862 43.1482 190.949 42.132C190.037 41.1158 188.896 40.6077 187.528 40.6077C186.014 40.6077 184.852 41.1262 184.043 42.1631C183.235 43.2001 182.83 44.4029 182.83 45.7717V65.65C182.83 67.2054 183.286 68.4808 184.199 69.4763C185.111 70.451 186.221 70.9384 187.528 70.9384C188.896 70.9384 190.037 70.3992 190.949 69.3208C191.862 68.2216 192.318 66.998 192.318 65.65V62.6947C192.318 62.5288 192.401 62.4458 192.567 62.4458H199.784C199.95 62.4458 200.033 62.5288 200.033 62.6947V65.65C200.033 68.0349 199.473 70.2125 198.353 72.1827C197.213 74.1322 195.709 75.698 193.843 76.8801C191.976 78.0415 189.871 78.6222 187.528 78.6222ZM216.458 78.6222C214.198 78.6222 212.114 78.0415 210.206 76.8801C208.318 75.7187 206.794 74.1737 205.633 72.2449C204.492 70.2955 203.922 68.1594 203.922 65.8366L203.984 45.6473C203.984 43.283 204.554 41.1573 205.695 39.27C206.815 37.3621 208.329 35.8378 210.237 34.6971C212.145 33.5357 214.219 32.955 216.458 32.955C218.781 32.955 220.865 33.5254 222.711 34.666C224.578 35.8066 226.071 37.3413 227.191 39.27C228.331 41.178 228.902 43.3038 228.902 45.6473L228.964 65.8366C228.964 68.1594 228.404 70.2851 227.284 72.2138C226.143 74.1633 224.63 75.7187 222.742 76.8801C220.855 78.0415 218.76 78.6222 216.458 78.6222ZM216.458 70.9384C217.744 70.9384 218.864 70.4199 219.818 69.383C220.772 68.3253 221.249 67.1432 221.249 65.8366L221.187 45.6473C221.187 44.237 220.741 43.0445 219.849 42.0698C218.957 41.0951 217.827 40.6077 216.458 40.6077C215.152 40.6077 214.032 41.0847 213.099 42.0387C212.165 42.9927 211.699 44.1955 211.699 45.6473V65.8366C211.699 67.2261 212.165 68.429 213.099 69.4452C214.032 70.4407 215.152 70.9384 216.458 70.9384ZM241.252 78H234.035C233.869 78 233.786 77.8963 233.786 77.6889L233.91 33.9194C233.91 33.7535 233.993 33.6705 234.159 33.6705H241.936C242.102 33.6705 242.247 33.7535 242.372 33.9194L248.189 42.3187L253.975 33.9194C254.1 33.7535 254.255 33.6705 254.442 33.6705H262.25C262.437 33.6705 262.53 33.7535 262.53 33.9194L262.654 77.6889C262.654 77.8963 262.571 78 262.405 78H255.188C255.022 78 254.939 77.8963 254.939 77.6889L254.877 45.1806L248.189 54.8865L241.563 45.1806L241.501 77.6889C241.501 77.8963 241.418 78 241.252 78ZM279.795 78.6222C277.535 78.6222 275.45 78.0415 273.542 76.8801C271.655 75.7187 270.131 74.1737 268.969 72.2449C267.829 70.2955 267.258 68.1594 267.258 65.8366L267.321 45.6473C267.321 43.283 267.891 41.1573 269.032 39.27C270.151 37.3621 271.665 35.8378 273.573 34.6971C275.481 33.5357 277.555 32.955 279.795 32.955C282.118 32.955 284.202 33.5254 286.048 34.666C287.914 35.8066 289.408 37.3413 290.527 39.27C291.668 41.178 292.238 43.3038 292.238 45.6473L292.301 65.8366C292.301 68.1594 291.741 70.2851 290.621 72.2138C289.48 74.1633 287.966 75.7187 286.079 76.8801C284.192 78.0415 282.097 78.6222 279.795 78.6222ZM279.795 70.9384C281.081 70.9384 282.201 70.4199 283.155 69.383C284.109 68.3253 284.586 67.1432 284.586 65.8366L284.524 45.6473C284.524 44.237 284.078 43.0445 283.186 42.0698C282.294 41.0951 281.164 40.6077 279.795 40.6077C278.489 40.6077 277.369 41.0847 276.435 42.0387C275.502 42.9927 275.035 44.1955 275.035 45.6473V65.8366C275.035 67.2261 275.502 68.429 276.435 69.4452C277.369 70.4407 278.489 70.9384 279.795 70.9384ZM321.138 78H313.983C313.776 78 313.672 77.8963 313.672 77.6889L313.797 33.9194C313.797 33.7535 313.879 33.6705 314.045 33.6705H334.453C334.66 33.6705 334.764 33.7535 334.764 33.9194V41.1054C334.764 41.2714 334.681 41.3543 334.515 41.3543H321.449V51.2468H334.515C334.681 51.2468 334.764 51.3505 334.764 51.5579L334.826 58.775C334.826 58.9409 334.722 59.0239 334.515 59.0239H321.449V77.6889C321.449 77.8963 321.346 78 321.138 78ZM352.215 78.6222C349.976 78.6222 347.902 78.0415 345.994 76.8801C344.086 75.7187 342.561 74.1633 341.421 72.2138C340.301 70.2436 339.741 68.0972 339.741 65.7744L339.865 33.9194C339.865 33.7535 339.948 33.6705 340.114 33.6705H347.269C347.435 33.6705 347.518 33.7535 347.518 33.9194V65.7744C347.518 67.2054 347.974 68.429 348.887 69.4452C349.799 70.4407 350.909 70.9384 352.215 70.9384C353.584 70.9384 354.725 70.4407 355.637 69.4452C356.55 68.429 357.006 67.2054 357.006 65.7744V33.9194C357.006 33.7535 357.089 33.6705 357.255 33.6705H364.41C364.576 33.6705 364.659 33.7535 364.659 33.9194L364.783 65.7744C364.783 68.1179 364.223 70.2747 363.103 72.2449C361.963 74.1944 360.449 75.7498 358.562 76.9112C356.674 78.0518 354.559 78.6222 352.215 78.6222ZM376.729 78H370.352C370.02 78 369.854 77.8548 369.854 77.5645L369.792 34.1683C369.792 33.8364 369.958 33.6705 370.289 33.6705H376.044L386.808 58.775L386.497 34.1683C386.497 33.8364 386.684 33.6705 387.057 33.6705H393.372C393.621 33.6705 393.745 33.8364 393.745 34.1683L393.807 77.6267C393.807 77.8756 393.704 78 393.496 78H387.897L376.853 54.5443L377.32 77.5023C377.32 77.8341 377.123 78 376.729 78ZM411.073 78.6222C408.77 78.6222 406.665 78.0415 404.758 76.8801C402.87 75.7187 401.367 74.1633 400.247 72.2138C399.148 70.2436 398.598 68.0557 398.598 65.65L398.66 45.7717C398.66 43.4075 399.199 41.2714 400.278 39.3634C401.356 37.4346 402.839 35.8896 404.726 34.7282C406.634 33.5461 408.75 32.955 411.073 32.955C413.437 32.955 415.542 33.5254 417.388 34.666C419.254 35.8066 420.737 37.3517 421.836 39.3012C422.956 41.2299 423.516 43.3867 423.516 45.7717V48.6959C423.516 48.8618 423.433 48.9448 423.267 48.9448H416.112C415.946 48.9448 415.863 48.8618 415.863 48.6959V45.7717C415.863 44.3615 415.407 43.1482 414.494 42.132C413.582 41.1158 412.441 40.6077 411.073 40.6077C409.559 40.6077 408.397 41.1262 407.588 42.1631C406.78 43.2001 406.375 44.4029 406.375 45.7717V65.65C406.375 67.2054 406.831 68.4808 407.744 69.4763C408.656 70.451 409.766 70.9384 411.073 70.9384C412.441 70.9384 413.582 70.3992 414.494 69.3208C415.407 68.2216 415.863 66.998 415.863 65.65V62.6947C415.863 62.5288 415.946 62.4458 416.112 62.4458H423.329C423.495 62.4458 423.578 62.5288 423.578 62.6947V65.65C423.578 68.0349 423.018 70.2125 421.898 72.1827C420.758 74.1322 419.254 75.698 417.388 76.8801C415.521 78.0415 413.416 78.6222 411.073 78.6222ZM435.741 78H428.524C428.317 78 428.213 77.8963 428.213 77.6889L428.275 33.9194C428.275 33.7535 428.358 33.6705 428.524 33.6705H435.679C435.845 33.6705 435.928 33.7535 435.928 33.9194L435.99 77.6889C435.99 77.8963 435.907 78 435.741 78ZM453.38 78.6222C451.119 78.6222 449.035 78.0415 447.127 76.8801C445.24 75.7187 443.716 74.1737 442.554 72.2449C441.414 70.2955 440.843 68.1594 440.843 65.8366L440.905 45.6473C440.905 43.283 441.476 41.1573 442.616 39.27C443.736 37.3621 445.25 35.8378 447.158 34.6971C449.066 33.5357 451.14 32.955 453.38 32.955C455.703 32.955 457.787 33.5254 459.633 34.666C461.499 35.8066 462.992 37.3413 464.112 39.27C465.253 41.178 465.823 43.3038 465.823 45.6473L465.886 65.8366C465.886 68.1594 465.326 70.2851 464.206 72.2138C463.065 74.1633 461.551 75.7187 459.664 76.8801C457.777 78.0415 455.682 78.6222 453.38 78.6222ZM453.38 70.9384C454.666 70.9384 455.786 70.4199 456.74 69.383C457.694 68.3253 458.171 67.1432 458.171 65.8366L458.108 45.6473C458.108 44.237 457.663 43.0445 456.771 42.0698C455.879 41.0951 454.749 40.6077 453.38 40.6077C452.073 40.6077 450.953 41.0847 450.02 42.0387C449.087 42.9927 448.62 44.1955 448.62 45.6473V65.8366C448.62 67.2261 449.087 68.429 450.02 69.4452C450.953 70.4407 452.073 70.9384 453.38 70.9384ZM477.644 78H471.267C470.935 78 470.77 77.8548 470.77 77.5645L470.707 34.1683C470.707 33.8364 470.873 33.6705 471.205 33.6705H476.96L487.724 58.775L487.413 34.1683C487.413 33.8364 487.599 33.6705 487.972 33.6705H494.287C494.536 33.6705 494.661 33.8364 494.661 34.1683L494.723 77.6267C494.723 77.8756 494.619 78 494.412 78H488.812L477.769 54.5443L478.236 77.5023C478.236 77.8341 478.039 78 477.644 78ZM498.114 77.6889L506.015 33.9194C506.057 33.7535 506.161 33.6705 506.326 33.6705H515.566C515.732 33.6705 515.835 33.7535 515.877 33.9194L523.467 77.6889C523.488 77.8963 523.405 78 523.218 78H516.157C515.949 78 515.835 77.8963 515.814 77.6889L515.13 73.0227H506.451L505.766 77.6889C505.746 77.8963 505.642 78 505.455 78H498.363C498.197 78 498.114 77.8963 498.114 77.6889ZM510.588 48.3226L507.726 66.2099H513.855L511.242 48.3226L510.868 45.9584L510.588 48.3226ZM534.915 78H527.698C527.532 78 527.449 77.8963 527.449 77.6889L527.573 33.9194C527.573 33.7535 527.656 33.6705 527.822 33.6705H535.599C535.765 33.6705 535.91 33.7535 536.035 33.9194L541.852 42.3187L547.638 33.9194C547.763 33.7535 547.918 33.6705 548.105 33.6705H555.913C556.1 33.6705 556.193 33.7535 556.193 33.9194L556.318 77.6889C556.318 77.8963 556.235 78 556.069 78H548.852C548.686 78 548.603 77.8963 548.603 77.6889L548.541 45.1806L541.852 54.8865L535.226 45.1806L535.164 77.6889C535.164 77.8963 535.081 78 534.915 78ZM576.071 77.6889L583.973 33.9194C584.014 33.7535 584.118 33.6705 584.284 33.6705H593.523C593.689 33.6705 593.793 33.7535 593.834 33.9194L601.425 77.6889C601.446 77.8963 601.363 78 601.176 78H594.114C593.907 78 593.793 77.8963 593.772 77.6889L593.088 73.0227H584.409L583.724 77.6889C583.703 77.8963 583.6 78 583.413 78H576.32C576.154 78 576.071 77.8963 576.071 77.6889ZM588.546 48.3226L585.684 66.2099H591.812L589.199 48.3226L588.826 45.9584L588.546 48.3226ZM616.232 78.6222C613.972 78.6222 611.888 78.0415 609.98 76.8801C608.092 75.7187 606.578 74.1737 605.438 72.2449C604.318 70.2955 603.758 68.1594 603.758 65.8366V62.9124C603.758 62.6843 603.862 62.5702 604.069 62.5702H611.224C611.39 62.5702 611.473 62.6843 611.473 62.9124V65.8366C611.473 67.2261 611.939 68.429 612.873 69.4452C613.806 70.4407 614.926 70.9384 616.232 70.9384C617.56 70.9384 618.69 70.4303 619.623 69.4141C620.556 68.3771 621.023 67.1846 621.023 65.8366C621.023 64.2812 620.007 62.9228 617.974 61.7614C617.643 61.554 617.207 61.3052 616.668 61.0148C616.149 60.7037 615.527 60.3512 614.801 59.9571C614.076 59.5631 613.37 59.1794 612.686 58.8061C612.002 58.4121 611.338 58.0388 610.695 57.6862C608.372 56.3174 606.641 54.6065 605.5 52.5533C604.38 50.4794 603.82 48.1567 603.82 45.585C603.82 43.2208 604.401 41.0847 605.562 39.1767C606.724 37.2895 608.238 35.7963 610.104 34.6971C611.991 33.5772 614.034 33.0173 616.232 33.0173C618.493 33.0173 620.567 33.5772 622.454 34.6971C624.341 35.8378 625.845 37.3517 626.965 39.2389C628.105 41.1262 628.676 43.2415 628.676 45.585V50.8113C628.676 50.9772 628.593 51.0601 628.427 51.0601H621.272C621.106 51.0601 621.023 50.9772 621.023 50.8113L620.961 45.585C620.961 44.0918 620.494 42.8786 619.561 41.9454C618.628 41.0121 617.518 40.5455 616.232 40.5455C614.926 40.5455 613.806 41.0432 612.873 42.0387C611.939 43.0342 611.473 44.2163 611.473 45.585C611.473 46.9746 611.763 48.1359 612.344 49.0692C612.945 50.0024 614.034 50.8942 615.61 51.7445C615.776 51.8275 616.16 52.0349 616.761 52.3667C617.363 52.6985 618.026 53.0718 618.752 53.4866C619.499 53.8806 620.173 54.2436 620.774 54.5754C621.376 54.8865 621.739 55.0731 621.863 55.1353C623.978 56.3174 625.648 57.7692 626.871 59.4905C628.116 61.2118 628.738 63.3272 628.738 65.8366C628.738 68.2631 628.178 70.4407 627.058 72.3694C625.917 74.2981 624.404 75.8224 622.516 76.9423C620.629 78.0622 618.534 78.6222 616.232 78.6222ZM663.299 78H656.113C655.927 78 655.833 77.8963 655.833 77.6889V41.3543H647.559C647.351 41.3543 647.247 41.2506 647.247 41.0432L647.31 33.9194C647.31 33.7535 647.393 33.6705 647.559 33.6705H671.761C671.989 33.6705 672.103 33.7535 672.103 33.9194V41.0432C672.103 41.2506 672.02 41.3543 671.854 41.3543H663.486L663.548 77.6889C663.548 77.8963 663.465 78 663.299 78ZM673.067 77.6889L680.969 33.9194C681.01 33.7535 681.114 33.6705 681.28 33.6705H690.519C690.685 33.6705 690.789 33.7535 690.83 33.9194L698.421 77.6889C698.442 77.8963 698.359 78 698.172 78H691.11C690.903 78 690.789 77.8963 690.768 77.6889L690.084 73.0227H681.404L680.72 77.6889C680.699 77.8963 680.596 78 680.409 78H673.316C673.15 78 673.067 77.8963 673.067 77.6889ZM685.542 48.3226L682.68 66.2099H688.808L686.195 48.3226L685.822 45.9584L685.542 48.3226ZM714.068 78.6222C711.766 78.6222 709.692 78.0518 707.847 76.9112C705.98 75.7706 704.477 74.2359 703.336 72.3072C702.216 70.3784 701.656 68.2216 701.656 65.8366V45.6473C701.656 43.3245 702.226 41.2091 703.367 39.3012C704.487 37.3724 705.99 35.8378 707.878 34.6971C709.765 33.5357 711.828 32.955 714.068 32.955C716.412 32.955 718.527 33.515 720.414 34.6349C722.302 35.7755 723.795 37.2998 724.894 39.2078C726.014 41.1158 726.574 43.2623 726.574 45.6473V48.5715C726.574 48.7374 726.47 48.8203 726.263 48.8203H719.108C718.942 48.8203 718.859 48.7374 718.859 48.5715V46.145C718.859 44.5274 718.403 43.1897 717.49 42.132C716.578 41.0743 715.437 40.5455 714.068 40.5455C712.845 40.5455 711.756 41.0536 710.802 42.0698C709.848 43.086 709.371 44.2785 709.371 45.6473V65.8366C709.371 67.2261 709.838 68.429 710.771 69.4452C711.704 70.4407 712.803 70.9384 714.068 70.9384C715.437 70.9384 716.578 70.451 717.49 69.4763C718.403 68.4808 718.859 67.2676 718.859 65.8366V62.6947H714.41C714.182 62.6947 714.068 62.591 714.068 62.3836V55.2598C714.068 55.0524 714.182 54.9487 714.41 54.9487H726.325C726.491 54.9487 726.574 55.0524 726.574 55.2598V65.8366C726.574 68.2216 726.014 70.3784 724.894 72.3072C723.753 74.2359 722.25 75.7706 720.383 76.9112C718.517 78.0518 716.412 78.6222 714.068 78.6222ZM741.91 78.6222C739.65 78.6222 737.566 78.0415 735.658 76.8801C733.77 75.7187 732.256 74.1737 731.116 72.2449C729.996 70.2955 729.436 68.1594 729.436 65.8366V62.9124C729.436 62.6843 729.54 62.5702 729.747 62.5702H736.902C737.068 62.5702 737.151 62.6843 737.151 62.9124V65.8366C737.151 67.2261 737.617 68.429 738.551 69.4452C739.484 70.4407 740.604 70.9384 741.91 70.9384C743.238 70.9384 744.368 70.4303 745.301 69.4141C746.234 68.3771 746.701 67.1846 746.701 65.8366C746.701 64.2812 745.685 62.9228 743.652 61.7614C743.321 61.554 742.885 61.3052 742.346 61.0148C741.827 60.7037 741.205 60.3512 740.479 59.9571C739.753 59.5631 739.048 59.1794 738.364 58.8061C737.68 58.4121 737.016 58.0388 736.373 57.6862C734.05 56.3174 732.319 54.6065 731.178 52.5533C730.058 50.4794 729.498 48.1567 729.498 45.585C729.498 43.2208 730.079 41.0847 731.24 39.1767C732.402 37.2895 733.915 35.7963 735.782 34.6971C737.669 33.5772 739.712 33.0173 741.91 33.0173C744.171 33.0173 746.245 33.5772 748.132 34.6971C750.019 35.8378 751.523 37.3517 752.643 39.2389C753.783 41.1262 754.354 43.2415 754.354 45.585V50.8113C754.354 50.9772 754.271 51.0601 754.105 51.0601H746.95C746.784 51.0601 746.701 50.9772 746.701 50.8113L746.639 45.585C746.639 44.0918 746.172 42.8786 745.239 41.9454C744.306 41.0121 743.196 40.5455 741.91 40.5455C740.604 40.5455 739.484 41.0432 738.551 42.0387C737.617 43.0342 737.151 44.2163 737.151 45.585C737.151 46.9746 737.441 48.1359 738.022 49.0692C738.623 50.0024 739.712 50.8942 741.288 51.7445C741.454 51.8275 741.838 52.0349 742.439 52.3667C743.041 52.6985 743.704 53.0718 744.43 53.4866C745.177 53.8806 745.851 54.2436 746.452 54.5754C747.054 54.8865 747.417 55.0731 747.541 55.1353C749.656 56.3174 751.326 57.7692 752.549 59.4905C753.794 61.2118 754.416 63.3272 754.416 65.8366C754.416 68.2631 753.856 70.4407 752.736 72.3694C751.595 74.2981 750.081 75.8224 748.194 76.9423C746.307 78.0622 744.212 78.6222 741.91 78.6222ZM773.174 66.2721H766.113C765.884 66.2721 765.77 66.1892 765.77 66.0233V62.5702C765.77 60.8696 766.164 59.169 766.953 57.4685C767.741 55.7471 768.819 54.2021 770.188 52.8333C770.831 52.1904 771.38 51.6304 771.837 51.1535C772.314 50.6557 772.697 50.2306 772.988 49.878C773.589 49.1729 773.973 48.53 774.139 47.9493C774.305 47.3479 774.387 46.6427 774.387 45.8339C774.387 44.3407 773.942 43.0964 773.05 42.1009C772.158 41.1054 771.028 40.6077 769.659 40.6077C768.311 40.6077 767.181 41.1054 766.268 42.1009C765.356 43.0964 764.899 44.3407 764.899 45.8339V50.4691C764.899 50.635 764.816 50.7179 764.651 50.7179H757.433C757.267 50.7179 757.185 50.635 757.185 50.4691V45.8339C757.185 43.4489 757.755 41.2817 758.895 39.3323C760.015 37.3828 761.519 35.8378 763.406 34.6971C765.293 33.5357 767.378 32.955 769.659 32.955C771.961 32.955 774.056 33.5254 775.943 34.666C777.83 35.8066 779.323 37.3621 780.422 39.3323C781.542 41.2817 782.102 43.4489 782.102 45.8339C782.102 47.1819 781.957 48.4159 781.667 49.5358C781.356 50.6142 780.796 51.7445 779.987 52.9266C779.178 54.088 777.986 55.5397 776.41 57.2818C775.352 58.3602 774.595 59.3246 774.139 60.1749C773.703 61.0252 773.485 61.9584 773.485 62.9746V66.0233C773.485 66.1892 773.382 66.2721 773.174 66.2721ZM773.174 78H766.113C765.884 78 765.77 77.8963 765.77 77.6889V70.5962C765.77 70.4303 765.884 70.3473 766.113 70.3473H773.174C773.382 70.3473 773.485 70.4303 773.485 70.5962V77.6889C773.485 77.8963 773.382 78 773.174 78Z" fill="white"/>
</svg>
