<svg width="1136" height="250" viewBox="0 0 1136 250" fill="none" xmlns="http://www.w3.org/2000/svg">
<rect width="507" height="250" rx="28.6021" fill="#1F1F1F" fill-opacity="0.8"/>
<path d="M34.3408 131.668L23.1277 126.913V124.03L34.3408 119.25V122.633L27.126 125.478L34.3408 128.297V131.668ZM36.1458 123.479H37.9399V119.16H41.7972V123.479H44.1551V126.683H41.7972V129.617C41.7972 130.053 41.8612 130.408 41.9894 130.681C42.1175 130.946 42.3525 131.078 42.6942 131.078C42.9249 131.078 43.1214 131.027 43.2837 130.924C43.446 130.822 43.5443 130.754 43.5785 130.719L44.9112 133.487C44.8514 133.539 44.6635 133.633 44.3474 133.769C44.0398 133.906 43.6468 134.03 43.1684 134.141C42.69 134.252 42.156 134.308 41.5665 134.308C40.5157 134.308 39.6485 134.013 38.9651 133.423C38.2816 132.825 37.9399 131.907 37.9399 130.668V126.683H36.1458V123.479ZM54.5169 134V132.296C54.44 132.466 54.2435 132.714 53.9274 133.039C53.6198 133.364 53.2097 133.658 52.6971 133.923C52.1845 134.179 51.5865 134.308 50.903 134.308C49.8778 134.308 48.9808 134.06 48.2119 133.564C47.443 133.06 46.8449 132.39 46.4178 131.552C45.9906 130.707 45.777 129.771 45.777 128.746C45.777 127.721 45.9906 126.789 46.4178 125.952C46.8449 125.106 47.443 124.431 48.2119 123.927C48.9808 123.423 49.8778 123.171 50.903 123.171C51.5609 123.171 52.1375 123.278 52.6331 123.492C53.1286 123.697 53.5301 123.944 53.8377 124.235C54.1452 124.517 54.3588 124.777 54.4784 125.017V123.479H58.3485V134H54.5169ZM49.5959 128.746C49.5959 129.224 49.707 129.656 49.9291 130.04C50.1512 130.416 50.446 130.711 50.8133 130.924C51.1892 131.138 51.6036 131.245 52.0564 131.245C52.5263 131.245 52.9406 131.138 53.2994 130.924C53.6583 130.711 53.9402 130.416 54.1452 130.04C54.3588 129.656 54.4656 129.224 54.4656 128.746C54.4656 128.267 54.3588 127.84 54.1452 127.464C53.9402 127.08 53.6583 126.781 53.2994 126.567C52.9406 126.345 52.5263 126.234 52.0564 126.234C51.6036 126.234 51.1892 126.345 50.8133 126.567C50.446 126.781 50.1512 127.08 49.9291 127.464C49.707 127.84 49.5959 128.267 49.5959 128.746ZM60.7566 134V116.367H64.6523V125.017C64.7292 124.777 64.9257 124.517 65.2418 124.235C65.5665 123.944 65.9894 123.697 66.5105 123.492C67.0402 123.278 67.6382 123.171 68.3046 123.171C69.3298 123.171 70.2183 123.423 70.9701 123.927C71.7219 124.431 72.3029 125.106 72.713 125.952C73.123 126.789 73.3281 127.721 73.3281 128.746C73.3281 129.771 73.123 130.707 72.713 131.552C72.3029 132.39 71.7219 133.06 70.9701 133.564C70.2183 134.06 69.3298 134.308 68.3046 134.308C67.7407 134.308 67.2068 134.205 66.7027 134C66.2072 133.804 65.7758 133.551 65.4084 133.244C65.0496 132.928 64.7847 132.612 64.6139 132.296V134H60.7566ZM69.5092 128.746C69.5092 128.267 69.4024 127.84 69.1888 127.464C68.9838 127.08 68.6976 126.781 68.3302 126.567C67.9714 126.345 67.5656 126.234 67.1128 126.234C66.6429 126.234 66.22 126.345 65.8441 126.567C65.4768 126.781 65.1863 127.08 64.9727 127.464C64.7591 127.84 64.6523 128.267 64.6523 128.746C64.6523 129.224 64.7591 129.656 64.9727 130.04C65.1863 130.416 65.4768 130.711 65.8441 130.924C66.22 131.138 66.6429 131.245 67.1128 131.245C67.5656 131.245 67.9714 131.138 68.3302 130.924C68.6976 130.711 68.9838 130.416 69.1888 130.04C69.4024 129.656 69.5092 129.224 69.5092 128.746ZM79.0332 134H75.1246V116.367H79.0332V134ZM84.6461 129.566C84.6718 129.942 84.7914 130.275 85.0049 130.566C85.2185 130.856 85.5133 131.087 85.8892 131.258C86.2736 131.42 86.7264 131.501 87.2476 131.501C87.7431 131.501 88.1873 131.45 88.5803 131.347C88.9819 131.245 89.3279 131.117 89.6183 130.963C89.9174 130.809 90.148 130.651 90.3104 130.489L91.8225 132.898C91.6089 133.129 91.3057 133.355 90.9127 133.577C90.5282 133.791 90.0199 133.966 89.3877 134.103C88.7555 134.239 87.9567 134.308 86.9913 134.308C85.8294 134.308 84.7956 134.09 83.89 133.654C82.9844 133.218 82.2711 132.578 81.7499 131.732C81.2288 130.886 80.9682 129.852 80.9682 128.631C80.9682 127.605 81.1903 126.683 81.6346 125.862C82.0874 125.034 82.741 124.38 83.5953 123.902C84.4496 123.415 85.4791 123.171 86.6837 123.171C87.8285 123.171 88.8195 123.381 89.6568 123.799C90.5026 124.218 91.1519 124.842 91.6047 125.67C92.066 126.49 92.2967 127.516 92.2967 128.746C92.2967 128.814 92.2924 128.951 92.2839 129.156C92.2839 129.361 92.2753 129.498 92.2582 129.566H84.6461ZM88.6316 127.528C88.623 127.255 88.5504 126.986 88.4137 126.721C88.277 126.448 88.072 126.226 87.7986 126.055C87.5252 125.875 87.175 125.786 86.7478 125.786C86.3206 125.786 85.9575 125.871 85.6585 126.042C85.368 126.204 85.1459 126.418 84.9921 126.683C84.8383 126.947 84.7529 127.229 84.7358 127.528H88.6316ZM94.3867 131.668V128.297L101.602 125.478L94.3867 122.633V119.25L105.587 124.03V126.913L94.3867 131.668ZM119.541 131.668L108.327 126.913V124.03L119.541 119.25V122.633L112.326 125.478L119.541 128.297V131.668ZM121.345 123.479H123.14V119.16H126.997V123.479H129.355V126.683H126.997V129.617C126.997 130.053 127.061 130.408 127.189 130.681C127.317 130.946 127.552 131.078 127.894 131.078C128.125 131.078 128.321 131.027 128.483 130.924C128.646 130.822 128.744 130.754 128.778 130.719L130.111 133.487C130.051 133.539 129.863 133.633 129.547 133.769C129.24 133.906 128.847 134.03 128.368 134.141C127.89 134.252 127.356 134.308 126.766 134.308C125.715 134.308 124.848 134.013 124.165 133.423C123.481 132.825 123.14 131.907 123.14 130.668V126.683H121.345V123.479ZM135.116 134H131.22V123.479H135.116V125.106H135.052C135.12 124.91 135.287 124.662 135.552 124.363C135.817 124.056 136.188 123.782 136.667 123.543C137.145 123.295 137.73 123.171 138.422 123.171C138.909 123.171 139.358 123.248 139.768 123.402C140.178 123.547 140.477 123.688 140.665 123.825L139.153 126.99C139.033 126.845 138.82 126.695 138.512 126.542C138.213 126.379 137.837 126.298 137.384 126.298C136.863 126.298 136.432 126.431 136.09 126.695C135.757 126.96 135.509 127.281 135.347 127.657C135.193 128.032 135.116 128.387 135.116 128.72V134ZM141.792 131.668V128.297L149.007 125.478L141.792 122.633V119.25L152.993 124.03V126.913L141.792 131.668ZM166.946 131.668L155.733 126.913V124.03L166.946 119.25V122.633L159.731 125.478L166.946 128.297V131.668ZM168.751 123.479H170.545V119.16H174.402V123.479H176.76V126.683H174.402V129.617C174.402 130.053 174.466 130.408 174.595 130.681C174.723 130.946 174.958 131.078 175.299 131.078C175.53 131.078 175.727 131.027 175.889 130.924C176.051 130.822 176.149 130.754 176.184 130.719L177.516 133.487C177.457 133.539 177.269 133.633 176.953 133.769C176.645 133.906 176.252 134.03 175.774 134.141C175.295 134.252 174.761 134.308 174.172 134.308C173.121 134.308 172.254 134.013 171.57 133.423C170.887 132.825 170.545 131.907 170.545 130.668V126.683H168.751V123.479ZM186.289 123.171C187.024 123.171 187.741 123.321 188.442 123.62C189.143 123.919 189.719 124.393 190.172 125.042C190.625 125.683 190.851 126.529 190.851 127.58V134H186.955V128.22C186.955 127.469 186.785 126.905 186.443 126.529C186.11 126.144 185.653 125.952 185.072 125.952C184.687 125.952 184.32 126.055 183.97 126.26C183.619 126.456 183.333 126.738 183.111 127.106C182.897 127.464 182.791 127.879 182.791 128.349V134H178.882V116.367H182.791V125.029C182.885 124.748 183.094 124.466 183.419 124.184C183.752 123.893 184.166 123.654 184.662 123.466C185.166 123.27 185.708 123.171 186.289 123.171ZM193.227 131.668V128.297L200.442 125.478L193.227 122.633V119.25L204.428 124.03V126.913L193.227 131.668ZM207.245 117.084H211.077V134H207.245V117.084ZM213.153 123.479H214.947V119.16H218.804V123.479H221.162V126.683H218.804V129.617C218.804 130.053 218.868 130.408 218.997 130.681C219.125 130.946 219.36 131.078 219.701 131.078C219.932 131.078 220.129 131.027 220.291 130.924C220.453 130.822 220.551 130.754 220.586 130.719L221.918 133.487C221.859 133.539 221.671 133.633 221.355 133.769C221.047 133.906 220.654 134.03 220.176 134.141C219.697 134.252 219.163 134.308 218.574 134.308C217.523 134.308 216.656 134.013 215.972 133.423C215.289 132.825 214.947 131.907 214.947 130.668V126.683H213.153V123.479ZM226.462 129.566C226.488 129.942 226.607 130.275 226.821 130.566C227.035 130.856 227.329 131.087 227.705 131.258C228.09 131.42 228.542 131.501 229.064 131.501C229.559 131.501 230.003 131.45 230.396 131.347C230.798 131.245 231.144 131.117 231.434 130.963C231.733 130.809 231.964 130.651 232.126 130.489L233.639 132.898C233.425 133.129 233.122 133.355 232.729 133.577C232.344 133.791 231.836 133.966 231.204 134.103C230.571 134.239 229.773 134.308 228.807 134.308C227.645 134.308 226.612 134.09 225.706 133.654C224.8 133.218 224.087 132.578 223.566 131.732C223.045 130.886 222.784 129.852 222.784 128.631C222.784 127.605 223.006 126.683 223.451 125.862C223.903 125.034 224.557 124.38 225.411 123.902C226.266 123.415 227.295 123.171 228.5 123.171C229.645 123.171 230.636 123.381 231.473 123.799C232.319 124.218 232.968 124.842 233.421 125.67C233.882 126.49 234.113 127.516 234.113 128.746C234.113 128.814 234.108 128.951 234.1 129.156C234.1 129.361 234.091 129.498 234.074 129.566H226.462ZM230.448 127.528C230.439 127.255 230.366 126.986 230.23 126.721C230.093 126.448 229.888 126.226 229.615 126.055C229.341 125.875 228.991 125.786 228.564 125.786C228.137 125.786 227.774 125.871 227.474 126.042C227.184 126.204 226.962 126.418 226.808 126.683C226.654 126.947 226.569 127.229 226.552 127.528H230.448ZM250.594 123.171C251.388 123.171 252.089 123.338 252.696 123.671C253.302 123.996 253.776 124.5 254.118 125.183C254.468 125.867 254.643 126.747 254.643 127.823V134H250.812V128.413C250.812 127.678 250.701 127.084 250.479 126.631C250.256 126.179 249.817 125.952 249.159 125.952C248.766 125.952 248.42 126.055 248.121 126.26C247.822 126.465 247.591 126.751 247.429 127.118C247.266 127.477 247.185 127.909 247.185 128.413V134H243.61V128.413C243.61 127.678 243.486 127.084 243.238 126.631C242.999 126.179 242.572 125.952 241.957 125.952C241.564 125.952 241.218 126.055 240.919 126.26C240.62 126.456 240.389 126.738 240.227 127.106C240.073 127.464 239.996 127.9 239.996 128.413V134H236.126V123.479H239.996V124.978C240.098 124.713 240.321 124.444 240.662 124.171C241.013 123.889 241.444 123.654 241.957 123.466C242.469 123.27 243.012 123.171 243.584 123.171C244.208 123.171 244.729 123.265 245.148 123.453C245.566 123.633 245.908 123.876 246.173 124.184C246.446 124.491 246.664 124.824 246.826 125.183C246.946 124.876 247.181 124.568 247.531 124.261C247.89 123.944 248.334 123.684 248.864 123.479C249.402 123.274 249.979 123.171 250.594 123.171ZM268.165 131.668L256.951 126.913V124.03L268.165 119.25V122.633L260.95 125.478L268.165 128.297V131.668ZM278.62 116.367H281.695L273.25 136.46H270.174L278.62 116.367ZM282.684 123.479H284.478V119.16H288.336V123.479H290.694V126.683H288.336V129.617C288.336 130.053 288.4 130.408 288.528 130.681C288.656 130.946 288.891 131.078 289.233 131.078C289.463 131.078 289.66 131.027 289.822 130.924C289.985 130.822 290.083 130.754 290.117 130.719L291.45 133.487C291.39 133.539 291.202 133.633 290.886 133.769C290.578 133.906 290.185 134.03 289.707 134.141C289.229 134.252 288.695 134.308 288.105 134.308C287.054 134.308 286.187 134.013 285.504 133.423C284.82 132.825 284.478 131.907 284.478 130.668V126.683H282.684V123.479ZM300.222 123.171C300.957 123.171 301.675 123.321 302.375 123.62C303.076 123.919 303.653 124.393 304.105 125.042C304.558 125.683 304.785 126.529 304.785 127.58V134H300.889V128.22C300.889 127.469 300.718 126.905 300.376 126.529C300.043 126.144 299.586 125.952 299.005 125.952C298.621 125.952 298.253 126.055 297.903 126.26C297.553 126.456 297.266 126.738 297.044 127.106C296.831 127.464 296.724 127.879 296.724 128.349V134H292.815V116.367H296.724V125.029C296.818 124.748 297.027 124.466 297.352 124.184C297.685 123.893 298.099 123.654 298.595 123.466C299.099 123.27 299.641 123.171 300.222 123.171ZM307.161 131.668V128.297L314.376 125.478L307.161 122.633V119.25L318.361 124.03V126.913L307.161 131.668ZM332.315 131.668L321.101 126.913V124.03L332.315 119.25V122.633L325.1 125.478L332.315 128.297V131.668ZM342.77 116.367H345.845L337.4 136.46H334.325L342.77 116.367ZM346.834 123.479H348.629V119.16H352.486V123.479H354.844V126.683H352.486V129.617C352.486 130.053 352.55 130.408 352.678 130.681C352.806 130.946 353.041 131.078 353.383 131.078C353.614 131.078 353.81 131.027 353.972 130.924C354.135 130.822 354.233 130.754 354.267 130.719L355.6 133.487C355.54 133.539 355.352 133.633 355.036 133.769C354.728 133.906 354.335 134.03 353.857 134.141C353.379 134.252 352.845 134.308 352.255 134.308C351.204 134.308 350.337 134.013 349.654 133.423C348.97 132.825 348.629 131.907 348.629 130.668V126.683H346.834V123.479ZM360.605 134H356.709V123.479H360.605V125.106H360.541C360.609 124.91 360.776 124.662 361.041 124.363C361.305 124.056 361.677 123.782 362.156 123.543C362.634 123.295 363.219 123.171 363.911 123.171C364.398 123.171 364.847 123.248 365.257 123.402C365.667 123.547 365.966 123.688 366.154 123.825L364.642 126.99C364.522 126.845 364.308 126.695 364.001 126.542C363.702 126.379 363.326 126.298 362.873 126.298C362.352 126.298 361.921 126.431 361.579 126.695C361.246 126.96 360.998 127.281 360.836 127.657C360.682 128.032 360.605 128.387 360.605 128.72V134ZM367.281 131.668V128.297L374.496 125.478L367.281 122.633V119.25L378.481 124.03V126.913L367.281 131.668ZM392.435 131.668L381.222 126.913V124.03L392.435 119.25V122.633L385.22 125.478L392.435 128.297V131.668ZM402.89 116.367H405.966L397.521 136.46H394.445L402.89 116.367ZM406.955 123.479H408.749V119.16H412.606V123.479H414.964V126.683H412.606V129.617C412.606 130.053 412.67 130.408 412.798 130.681C412.927 130.946 413.162 131.078 413.503 131.078C413.734 131.078 413.93 131.027 414.093 130.924C414.255 130.822 414.353 130.754 414.387 130.719L415.72 133.487C415.66 133.539 415.472 133.633 415.156 133.769C414.849 133.906 414.456 134.03 413.977 134.141C413.499 134.252 412.965 134.308 412.376 134.308C411.325 134.308 410.458 134.013 409.774 133.423C409.091 132.825 408.749 131.907 408.749 130.668V126.683H406.955V123.479ZM425.326 134V132.296C425.249 132.466 425.053 132.714 424.736 133.039C424.429 133.364 424.019 133.658 423.506 133.923C422.994 134.179 422.396 134.308 421.712 134.308C420.687 134.308 419.79 134.06 419.021 133.564C418.252 133.06 417.654 132.39 417.227 131.552C416.8 130.707 416.586 129.771 416.586 128.746C416.586 127.721 416.8 126.789 417.227 125.952C417.654 125.106 418.252 124.431 419.021 123.927C419.79 123.423 420.687 123.171 421.712 123.171C422.37 123.171 422.947 123.278 423.442 123.492C423.938 123.697 424.339 123.944 424.647 124.235C424.954 124.517 425.168 124.777 425.287 125.017V123.479H429.158V134H425.326ZM420.405 128.746C420.405 129.224 420.516 129.656 420.738 130.04C420.96 130.416 421.255 130.711 421.622 130.924C421.998 131.138 422.413 131.245 422.865 131.245C423.335 131.245 423.75 131.138 424.108 130.924C424.467 130.711 424.749 130.416 424.954 130.04C425.168 129.656 425.275 129.224 425.275 128.746C425.275 128.267 425.168 127.84 424.954 127.464C424.749 127.08 424.467 126.781 424.108 126.567C423.75 126.345 423.335 126.234 422.865 126.234C422.413 126.234 421.998 126.345 421.622 126.567C421.255 126.781 420.96 127.08 420.738 127.464C420.516 127.84 420.405 128.267 420.405 128.746ZM431.566 134V116.367H435.461V125.017C435.538 124.777 435.735 124.517 436.051 124.235C436.375 123.944 436.798 123.697 437.32 123.492C437.849 123.278 438.447 123.171 439.114 123.171C440.139 123.171 441.027 123.423 441.779 123.927C442.531 124.431 443.112 125.106 443.522 125.952C443.932 126.789 444.137 127.721 444.137 128.746C444.137 129.771 443.932 130.707 443.522 131.552C443.112 132.39 442.531 133.06 441.779 133.564C441.027 134.06 440.139 134.308 439.114 134.308C438.55 134.308 438.016 134.205 437.512 134C437.016 133.804 436.585 133.551 436.217 133.244C435.859 132.928 435.594 132.612 435.423 132.296V134H431.566ZM440.318 128.746C440.318 128.267 440.211 127.84 439.998 127.464C439.793 127.08 439.507 126.781 439.139 126.567C438.78 126.345 438.375 126.234 437.922 126.234C437.452 126.234 437.029 126.345 436.653 126.567C436.286 126.781 435.995 127.08 435.782 127.464C435.568 127.84 435.461 128.267 435.461 128.746C435.461 129.224 435.568 129.656 435.782 130.04C435.995 130.416 436.286 130.711 436.653 130.924C437.029 131.138 437.452 131.245 437.922 131.245C438.375 131.245 438.78 131.138 439.139 130.924C439.507 130.711 439.793 130.416 439.998 130.04C440.211 129.656 440.318 129.224 440.318 128.746ZM449.842 134H445.934V116.367H449.842V134ZM455.455 129.566C455.481 129.942 455.6 130.275 455.814 130.566C456.028 130.856 456.322 131.087 456.698 131.258C457.083 131.42 457.535 131.501 458.057 131.501C458.552 131.501 458.996 131.45 459.389 131.347C459.791 131.245 460.137 131.117 460.427 130.963C460.726 130.809 460.957 130.651 461.119 130.489L462.632 132.898C462.418 133.129 462.115 133.355 461.722 133.577C461.337 133.791 460.829 133.966 460.197 134.103C459.564 134.239 458.766 134.308 457.8 134.308C456.638 134.308 455.605 134.09 454.699 133.654C453.793 133.218 453.08 132.578 452.559 131.732C452.038 130.886 451.777 129.852 451.777 128.631C451.777 127.605 451.999 126.683 452.444 125.862C452.896 125.034 453.55 124.38 454.404 123.902C455.259 123.415 456.288 123.171 457.493 123.171C458.638 123.171 459.629 123.381 460.466 123.799C461.312 124.218 461.961 124.842 462.414 125.67C462.875 126.49 463.106 127.516 463.106 128.746C463.106 128.814 463.101 128.951 463.093 129.156C463.093 129.361 463.084 129.498 463.067 129.566H455.455ZM459.441 127.528C459.432 127.255 459.359 126.986 459.223 126.721C459.086 126.448 458.881 126.226 458.608 126.055C458.334 125.875 457.984 125.786 457.557 125.786C457.13 125.786 456.767 125.871 456.468 126.042C456.177 126.204 455.955 126.418 455.801 126.683C455.647 126.947 455.562 127.229 455.545 127.528H459.441ZM465.196 131.668V128.297L472.411 125.478L465.196 122.633V119.25L476.396 124.03V126.913L465.196 131.668Z" fill="#DEDDDD"/>
<rect x="629" width="507" height="250" rx="28.6021" fill="#1F1F1F" fill-opacity="0.8"/>
<path d="M693.473 41.6677L682.259 36.9133V34.0299L693.473 29.2499V32.6331L686.258 35.478L693.473 38.2973V41.6677ZM695.278 33.4789H697.072V29.1602H700.929V33.4789H703.287V36.6826H700.929V39.6173C700.929 40.053 700.993 40.4075 701.121 40.6809C701.249 40.9458 701.484 41.0782 701.826 41.0782C702.057 41.0782 702.253 41.0269 702.415 40.9244C702.578 40.8219 702.676 40.7535 702.71 40.7194L704.043 43.4874C703.983 43.5387 703.795 43.6326 703.479 43.7693C703.172 43.906 702.779 44.0299 702.3 44.141C701.822 44.252 701.288 44.3076 700.698 44.3076C699.647 44.3076 698.78 44.0128 698.097 43.4233C697.413 42.8253 697.072 41.9069 697.072 40.6681V36.6826H695.278V33.4789ZM713.649 44V42.2956C713.572 42.4665 713.375 42.7142 713.059 43.0389C712.752 43.3635 712.341 43.6583 711.829 43.9231C711.316 44.1794 710.718 44.3076 710.035 44.3076C709.01 44.3076 708.113 44.0598 707.344 43.5643C706.575 43.0602 705.977 42.3896 705.55 41.5523C705.122 40.7065 704.909 39.771 704.909 38.7458C704.909 37.7206 705.122 36.7894 705.55 35.9522C705.977 35.1064 706.575 34.4315 707.344 33.9274C708.113 33.4234 709.01 33.1713 710.035 33.1713C710.693 33.1713 711.269 33.2781 711.765 33.4917C712.26 33.6967 712.662 33.9445 712.969 34.235C713.277 34.5169 713.491 34.7775 713.61 35.0167V33.4789H717.48V44H713.649ZM708.728 38.7458C708.728 39.2243 708.839 39.6557 709.061 40.0402C709.283 40.4161 709.578 40.7108 709.945 40.9244C710.321 41.138 710.735 41.2448 711.188 41.2448C711.658 41.2448 712.072 41.138 712.431 40.9244C712.79 40.7108 713.072 40.4161 713.277 40.0402C713.491 39.6557 713.597 39.2243 713.597 38.7458C713.597 38.2674 713.491 37.8403 713.277 37.4643C713.072 37.0799 712.79 36.7809 712.431 36.5673C712.072 36.3452 711.658 36.2341 711.188 36.2341C710.735 36.2341 710.321 36.3452 709.945 36.5673C709.578 36.7809 709.283 37.0799 709.061 37.4643C708.839 37.8403 708.728 38.2674 708.728 38.7458ZM719.888 44V26.3666H723.784V35.0167C723.861 34.7775 724.057 34.5169 724.374 34.235C724.698 33.9445 725.121 33.6967 725.642 33.4917C726.172 33.2781 726.77 33.1713 727.436 33.1713C728.462 33.1713 729.35 33.4234 730.102 33.9274C730.854 34.4315 731.435 35.1064 731.845 35.9522C732.255 36.7894 732.46 37.7206 732.46 38.7458C732.46 39.771 732.255 40.7065 731.845 41.5523C731.435 42.3896 730.854 43.0602 730.102 43.5643C729.35 44.0598 728.462 44.3076 727.436 44.3076C726.872 44.3076 726.339 44.205 725.834 44C725.339 43.8035 724.908 43.5515 724.54 43.2439C724.181 42.9278 723.917 42.6117 723.746 42.2956V44H719.888ZM728.641 38.7458C728.641 38.2674 728.534 37.8403 728.321 37.4643C728.116 37.0799 727.829 36.7809 727.462 36.5673C727.103 36.3452 726.697 36.2341 726.245 36.2341C725.775 36.2341 725.352 36.3452 724.976 36.5673C724.609 36.7809 724.318 37.0799 724.104 37.4643C723.891 37.8403 723.784 38.2674 723.784 38.7458C723.784 39.2243 723.891 39.6557 724.104 40.0402C724.318 40.4161 724.609 40.7108 724.976 40.9244C725.352 41.138 725.775 41.2448 726.245 41.2448C726.697 41.2448 727.103 41.138 727.462 40.9244C727.829 40.7108 728.116 40.4161 728.321 40.0402C728.534 39.6557 728.641 39.2243 728.641 38.7458ZM738.165 44H734.256V26.3666H738.165V44ZM743.778 39.566C743.804 39.9419 743.923 40.2751 744.137 40.5656C744.35 40.8561 744.645 41.0867 745.021 41.2576C745.405 41.4199 745.858 41.5011 746.379 41.5011C746.875 41.5011 747.319 41.4498 747.712 41.3473C748.114 41.2448 748.46 41.1166 748.75 40.9628C749.049 40.8091 749.28 40.651 749.442 40.4887L750.954 42.8979C750.741 43.1286 750.437 43.355 750.044 43.5771C749.66 43.7907 749.152 43.9658 748.519 44.1025C747.887 44.2392 747.088 44.3076 746.123 44.3076C744.961 44.3076 743.927 44.0897 743.022 43.654C742.116 43.2183 741.403 42.5775 740.882 41.7317C740.361 40.886 740.1 39.8522 740.1 38.6305C740.1 37.6053 740.322 36.6826 740.766 35.8625C741.219 35.0338 741.873 34.3802 742.727 33.9018C743.581 33.4148 744.611 33.1713 745.815 33.1713C746.96 33.1713 747.951 33.3806 748.789 33.7993C749.634 34.2179 750.284 34.8415 750.736 35.6702C751.198 36.4904 751.428 37.5156 751.428 38.7458C751.428 38.8142 751.424 38.9509 751.416 39.1559C751.416 39.361 751.407 39.4977 751.39 39.566H743.778ZM747.763 37.5284C747.755 37.255 747.682 36.9859 747.545 36.7211C747.409 36.4477 747.204 36.2256 746.93 36.0547C746.657 35.8753 746.307 35.7856 745.88 35.7856C745.452 35.7856 745.089 35.871 744.79 36.0419C744.5 36.2042 744.278 36.4178 744.124 36.6826C743.97 36.9475 743.885 37.2294 743.868 37.5284H747.763ZM753.518 41.6677V38.2973L760.733 35.478L753.518 32.6331V29.2499L764.719 34.0299V36.9133L753.518 41.6677ZM720.604 71.6677L709.391 66.9133V64.0299L720.604 59.2499V62.6331L713.39 65.478L720.604 68.2973V71.6677ZM722.409 63.4789H724.203V59.1602H728.061V63.4789H730.419V66.6826H728.061V69.6173C728.061 70.053 728.125 70.4075 728.253 70.6809C728.381 70.9458 728.616 71.0782 728.958 71.0782C729.188 71.0782 729.385 71.0269 729.547 70.9244C729.71 70.8219 729.808 70.7535 729.842 70.7194L731.175 73.4874C731.115 73.5387 730.927 73.6326 730.611 73.7693C730.303 73.906 729.91 74.0299 729.432 74.141C728.953 74.252 728.42 74.3076 727.83 74.3076C726.779 74.3076 725.912 74.0128 725.229 73.4233C724.545 72.8253 724.203 71.9069 724.203 70.6681V66.6826H722.409V63.4789ZM736.18 74H732.284V63.4789H736.18V65.1064H736.116C736.184 64.9099 736.351 64.6621 736.615 64.3631C736.88 64.0556 737.252 63.7822 737.73 63.543C738.209 63.2952 738.794 63.1713 739.486 63.1713C739.973 63.1713 740.422 63.2482 740.832 63.402C741.242 63.5472 741.541 63.6882 741.729 63.8249L740.217 66.9902C740.097 66.845 739.883 66.6955 739.576 66.5417C739.277 66.3793 738.901 66.2982 738.448 66.2982C737.927 66.2982 737.495 66.4306 737.154 66.6954C736.821 66.9603 736.573 67.2807 736.41 67.6566C736.257 68.0325 736.18 68.387 736.18 68.7202V74ZM742.856 71.6677V68.2973L750.071 65.478L742.856 62.6331V59.2499L754.056 64.0299V66.9133L742.856 71.6677ZM747.736 101.668L736.523 96.9133V94.0299L747.736 89.2499V92.6331L740.521 95.478L747.736 98.2973V101.668ZM749.541 93.4789H751.335V89.1602H755.192V93.4789H757.55V96.6826H755.192V99.6173C755.192 100.053 755.257 100.408 755.385 100.681C755.513 100.946 755.748 101.078 756.089 101.078C756.32 101.078 756.517 101.027 756.679 100.924C756.841 100.822 756.94 100.754 756.974 100.719L758.306 103.487C758.247 103.539 758.059 103.633 757.743 103.769C757.435 103.906 757.042 104.03 756.564 104.141C756.085 104.252 755.551 104.308 754.962 104.308C753.911 104.308 753.044 104.013 752.36 103.423C751.677 102.825 751.335 101.907 751.335 100.668V96.6826H749.541V93.4789ZM767.079 93.1713C767.814 93.1713 768.532 93.3208 769.232 93.6198C769.933 93.9189 770.509 94.393 770.962 95.0423C771.415 95.6831 771.641 96.5289 771.641 97.5797V104H767.746V98.2204C767.746 97.4686 767.575 96.9048 767.233 96.5289C766.9 96.1444 766.443 95.9522 765.862 95.9522C765.477 95.9522 765.11 96.0547 764.76 96.2597C764.409 96.4562 764.123 96.7382 763.901 97.1055C763.687 97.4643 763.581 97.8787 763.581 98.3486V104H759.672V86.3666H763.581V95.0295C763.675 94.7476 763.884 94.4656 764.209 94.1837C764.542 93.8932 764.956 93.654 765.452 93.4661C765.956 93.2696 766.498 93.1713 767.079 93.1713ZM774.017 101.668V98.2973L781.232 95.478L774.017 92.6331V89.2499L785.218 94.0299V96.9133L774.017 101.668ZM791.444 90.5955L791.726 90.6468V104H787.894V87.0842H793.123L799.979 100.412L799.697 100.463V87.0842H803.528V104H798.274L791.444 90.5955ZM811.785 104.308C810.632 104.308 809.607 104.073 808.71 103.603C807.821 103.124 807.121 102.471 806.608 101.642C806.104 100.805 805.852 99.8479 805.852 98.7715C805.852 97.695 806.104 96.7382 806.608 95.9009C807.121 95.0551 807.821 94.3888 808.71 93.9018C809.607 93.4148 810.632 93.1713 811.785 93.1713C812.939 93.1713 813.955 93.4148 814.835 93.9018C815.715 94.3888 816.403 95.0551 816.898 95.9009C817.394 96.7382 817.642 97.695 817.642 98.7715C817.642 99.8479 817.394 100.805 816.898 101.642C816.403 102.471 815.715 103.124 814.835 103.603C813.955 104.073 812.939 104.308 811.785 104.308ZM811.785 101.104C812.23 101.104 812.614 101.006 812.939 100.809C813.263 100.613 813.515 100.335 813.695 99.9761C813.874 99.6173 813.964 99.2115 813.964 98.7587C813.964 98.2973 813.874 97.8872 813.695 97.5284C813.515 97.1696 813.263 96.8877 812.939 96.6826C812.614 96.4776 812.23 96.3751 811.785 96.3751C811.341 96.3751 810.952 96.4776 810.619 96.6826C810.294 96.8877 810.038 97.1696 809.85 97.5284C809.671 97.8872 809.581 98.2973 809.581 98.7587C809.581 99.2115 809.671 99.6173 809.85 99.9761C810.038 100.335 810.294 100.613 810.619 100.809C810.952 101.006 811.341 101.104 811.785 101.104ZM834.137 93.1713C834.932 93.1713 835.632 93.3379 836.239 93.6711C836.845 93.9958 837.32 94.4998 837.661 95.1833C838.012 95.8667 838.187 96.7467 838.187 97.8232V104H834.355V98.4127C834.355 97.6779 834.244 97.0842 834.022 96.6314C833.8 96.1786 833.36 95.9522 832.702 95.9522C832.309 95.9522 831.963 96.0547 831.664 96.2597C831.365 96.4648 831.134 96.751 830.972 97.1183C830.81 97.4772 830.728 97.9086 830.728 98.4127V104H827.153V98.4127C827.153 97.6779 827.029 97.0842 826.781 96.6314C826.542 96.1786 826.115 95.9522 825.5 95.9522C825.107 95.9522 824.761 96.0547 824.462 96.2597C824.163 96.4562 823.932 96.7382 823.77 97.1055C823.616 97.4643 823.539 97.9001 823.539 98.4127V104H819.669V93.4789H823.539V94.9782C823.642 94.7134 823.864 94.4443 824.206 94.1709C824.556 93.889 824.987 93.654 825.5 93.4661C826.013 93.2696 826.555 93.1713 827.127 93.1713C827.751 93.1713 828.272 93.2653 828.691 93.4533C829.109 93.6327 829.451 93.8761 829.716 94.1837C829.989 94.4913 830.207 94.8245 830.37 95.1833C830.489 94.8757 830.724 94.5682 831.074 94.2606C831.433 93.9445 831.878 93.6839 832.407 93.4789C832.945 93.2738 833.522 93.1713 834.137 93.1713ZM843.545 99.566C843.57 99.9419 843.69 100.275 843.903 100.566C844.117 100.856 844.412 101.087 844.788 101.258C845.172 101.42 845.625 101.501 846.146 101.501C846.642 101.501 847.086 101.45 847.479 101.347C847.88 101.245 848.226 101.117 848.517 100.963C848.816 100.809 849.047 100.651 849.209 100.489L850.721 102.898C850.507 103.129 850.204 103.355 849.811 103.577C849.427 103.791 848.918 103.966 848.286 104.103C847.654 104.239 846.855 104.308 845.89 104.308C844.728 104.308 843.694 104.09 842.789 103.654C841.883 103.218 841.17 102.578 840.648 101.732C840.127 100.886 839.867 99.8522 839.867 98.6305C839.867 97.6053 840.089 96.6826 840.533 95.8625C840.986 95.0338 841.64 94.3802 842.494 93.9018C843.348 93.4148 844.378 93.1713 845.582 93.1713C846.727 93.1713 847.718 93.3806 848.555 93.7993C849.401 94.2179 850.05 94.8415 850.503 95.6702C850.965 96.4904 851.195 97.5156 851.195 98.7458C851.195 98.8142 851.191 98.9509 851.182 99.1559C851.182 99.361 851.174 99.4977 851.157 99.566H843.545ZM847.53 97.5284C847.522 97.255 847.449 96.9859 847.312 96.7211C847.176 96.4477 846.971 96.2256 846.697 96.0547C846.424 95.8753 846.073 95.7856 845.646 95.7856C845.219 95.7856 844.856 95.871 844.557 96.0419C844.267 96.2042 844.044 96.4178 843.891 96.6826C843.737 96.9475 843.651 97.2294 843.634 97.5284H847.53ZM864.473 101.668L853.26 96.9133V94.0299L864.473 89.2499V92.6331L857.258 95.478L864.473 98.2973V101.668ZM874.928 86.3666H878.003L869.558 106.46H866.483L874.928 86.3666ZM878.993 93.4789H880.787V89.1602H884.644V93.4789H887.002V96.6826H884.644V99.6173C884.644 100.053 884.708 100.408 884.836 100.681C884.964 100.946 885.199 101.078 885.541 101.078C885.772 101.078 885.968 101.027 886.131 100.924C886.293 100.822 886.391 100.754 886.425 100.719L887.758 103.487C887.698 103.539 887.51 103.633 887.194 103.769C886.887 103.906 886.494 104.03 886.015 104.141C885.537 104.252 885.003 104.308 884.413 104.308C883.362 104.308 882.495 104.013 881.812 103.423C881.128 102.825 880.787 101.907 880.787 100.668V96.6826H878.993V93.4789ZM896.531 93.1713C897.265 93.1713 897.983 93.3208 898.684 93.6198C899.384 93.9189 899.961 94.393 900.414 95.0423C900.866 95.6831 901.093 96.5289 901.093 97.5797V104H897.197V98.2204C897.197 97.4686 897.026 96.9048 896.684 96.5289C896.351 96.1444 895.894 95.9522 895.313 95.9522C894.929 95.9522 894.561 96.0547 894.211 96.2597C893.861 96.4562 893.575 96.7382 893.353 97.1055C893.139 97.4643 893.032 97.8787 893.032 98.3486V104H889.124V86.3666H893.032V95.0295C893.126 94.7476 893.335 94.4656 893.66 94.1837C893.993 93.8932 894.408 93.654 894.903 93.4661C895.407 93.2696 895.95 93.1713 896.531 93.1713ZM903.469 101.668V98.2973L910.684 95.478L903.469 92.6331V89.2499L914.669 94.0299V96.9133L903.469 101.668ZM747.736 131.668L736.523 126.913V124.03L747.736 119.25V122.633L740.521 125.478L747.736 128.297V131.668ZM749.541 123.479H751.335V119.16H755.192V123.479H757.55V126.683H755.192V129.617C755.192 130.053 755.257 130.408 755.385 130.681C755.513 130.946 755.748 131.078 756.089 131.078C756.32 131.078 756.517 131.027 756.679 130.924C756.841 130.822 756.94 130.754 756.974 130.719L758.306 133.487C758.247 133.539 758.059 133.633 757.743 133.769C757.435 133.906 757.042 134.03 756.564 134.141C756.085 134.252 755.551 134.308 754.962 134.308C753.911 134.308 753.044 134.013 752.36 133.423C751.677 132.825 751.335 131.907 751.335 130.668V126.683H749.541V123.479ZM767.079 123.171C767.814 123.171 768.532 123.321 769.232 123.62C769.933 123.919 770.509 124.393 770.962 125.042C771.415 125.683 771.641 126.529 771.641 127.58V134H767.746V128.22C767.746 127.469 767.575 126.905 767.233 126.529C766.9 126.144 766.443 125.952 765.862 125.952C765.477 125.952 765.11 126.055 764.76 126.26C764.409 126.456 764.123 126.738 763.901 127.106C763.687 127.464 763.581 127.879 763.581 128.349V134H759.672V116.367H763.581V125.029C763.675 124.748 763.884 124.466 764.209 124.184C764.542 123.893 764.956 123.654 765.452 123.466C765.956 123.27 766.498 123.171 767.079 123.171ZM774.017 131.668V128.297L781.232 125.478L774.017 122.633V119.25L785.218 124.03V126.913L774.017 131.668ZM788.035 117.084H791.867V134H788.035V117.084ZM799.351 134.308C798.334 134.308 797.45 134.06 796.698 133.564C795.946 133.06 795.361 132.39 794.943 131.552C794.532 130.707 794.327 129.771 794.327 128.746C794.327 127.721 794.532 126.789 794.943 125.952C795.361 125.106 795.946 124.431 796.698 123.927C797.45 123.423 798.334 123.171 799.351 123.171C800.026 123.171 800.624 123.278 801.145 123.492C801.666 123.697 802.089 123.944 802.414 124.235C802.738 124.517 802.935 124.777 803.003 125.017V116.367H806.899V134H803.042V132.296C802.879 132.612 802.614 132.928 802.247 133.244C801.88 133.551 801.448 133.804 800.953 134C800.457 134.205 799.923 134.308 799.351 134.308ZM800.543 131.245C801.013 131.245 801.431 131.138 801.799 130.924C802.175 130.711 802.469 130.416 802.683 130.04C802.896 129.656 803.003 129.224 803.003 128.746C803.003 128.267 802.896 127.84 802.683 127.464C802.469 127.08 802.175 126.781 801.799 126.567C801.431 126.345 801.013 126.234 800.543 126.234C800.09 126.234 799.68 126.345 799.312 126.567C798.954 126.781 798.667 127.08 798.454 127.464C798.249 127.84 798.146 128.267 798.146 128.746C798.146 129.224 798.249 129.656 798.454 130.04C798.667 130.416 798.954 130.711 799.312 130.924C799.68 131.138 800.09 131.245 800.543 131.245ZM817.32 134V132.296C817.243 132.466 817.047 132.714 816.73 133.039C816.423 133.364 816.013 133.658 815.5 133.923C814.988 134.179 814.39 134.308 813.706 134.308C812.681 134.308 811.784 134.06 811.015 133.564C810.246 133.06 809.648 132.39 809.221 131.552C808.794 130.707 808.58 129.771 808.58 128.746C808.58 127.721 808.794 126.789 809.221 125.952C809.648 125.106 810.246 124.431 811.015 123.927C811.784 123.423 812.681 123.171 813.706 123.171C814.364 123.171 814.941 123.278 815.436 123.492C815.932 123.697 816.333 123.944 816.641 124.235C816.948 124.517 817.162 124.777 817.282 125.017V123.479H821.152V134H817.32ZM812.399 128.746C812.399 129.224 812.51 129.656 812.732 130.04C812.954 130.416 813.249 130.711 813.616 130.924C813.992 131.138 814.407 131.245 814.859 131.245C815.329 131.245 815.744 131.138 816.103 130.924C816.461 130.711 816.743 130.416 816.948 130.04C817.162 129.656 817.269 129.224 817.269 128.746C817.269 128.267 817.162 127.84 816.948 127.464C816.743 127.08 816.461 126.781 816.103 126.567C815.744 126.345 815.329 126.234 814.859 126.234C814.407 126.234 813.992 126.345 813.616 126.567C813.249 126.781 812.954 127.08 812.732 127.464C812.51 127.84 812.399 128.267 812.399 128.746ZM828.135 134.308C827.118 134.308 826.234 134.06 825.482 133.564C824.73 133.06 824.145 132.39 823.726 131.552C823.316 130.707 823.111 129.771 823.111 128.746C823.111 127.721 823.316 126.789 823.726 125.952C824.145 125.106 824.73 124.431 825.482 123.927C826.234 123.423 827.118 123.171 828.135 123.171C828.81 123.171 829.408 123.278 829.929 123.492C830.45 123.697 830.873 123.944 831.197 124.235C831.522 124.517 831.719 124.777 831.787 125.017V116.367H835.683V134H831.825V132.296C831.663 132.612 831.398 132.928 831.031 133.244C830.663 133.551 830.232 133.804 829.737 134C829.241 134.205 828.707 134.308 828.135 134.308ZM829.326 131.245C829.796 131.245 830.215 131.138 830.582 130.924C830.958 130.711 831.253 130.416 831.467 130.04C831.68 129.656 831.787 129.224 831.787 128.746C831.787 128.267 831.68 127.84 831.467 127.464C831.253 127.08 830.958 126.781 830.582 126.567C830.215 126.345 829.796 126.234 829.326 126.234C828.874 126.234 828.464 126.345 828.096 126.567C827.737 126.781 827.451 127.08 827.238 127.464C827.033 127.84 826.93 128.267 826.93 128.746C826.93 129.224 827.033 129.656 827.238 130.04C827.451 130.416 827.737 130.711 828.096 130.924C828.464 131.138 828.874 131.245 829.326 131.245ZM841.042 129.566C841.067 129.942 841.187 130.275 841.401 130.566C841.614 130.856 841.909 131.087 842.285 131.258C842.669 131.42 843.122 131.501 843.643 131.501C844.139 131.501 844.583 131.45 844.976 131.347C845.377 131.245 845.723 131.117 846.014 130.963C846.313 130.809 846.544 130.651 846.706 130.489L848.218 132.898C848.005 133.129 847.701 133.355 847.308 133.577C846.924 133.791 846.415 133.966 845.783 134.103C845.151 134.239 844.352 134.308 843.387 134.308C842.225 134.308 841.191 134.09 840.286 133.654C839.38 133.218 838.667 132.578 838.146 131.732C837.624 130.886 837.364 129.852 837.364 128.631C837.364 127.605 837.586 126.683 838.03 125.862C838.483 125.034 839.137 124.38 839.991 123.902C840.845 123.415 841.875 123.171 843.079 123.171C844.224 123.171 845.215 123.381 846.052 123.799C846.898 124.218 847.547 124.842 848 125.67C848.462 126.49 848.692 127.516 848.692 128.746C848.692 128.814 848.688 128.951 848.679 129.156C848.679 129.361 848.671 129.498 848.654 129.566H841.042ZM845.027 127.528C845.019 127.255 844.946 126.986 844.809 126.721C844.673 126.448 844.468 126.226 844.194 126.055C843.921 125.875 843.571 125.786 843.143 125.786C842.716 125.786 842.353 125.871 842.054 126.042C841.764 126.204 841.542 126.418 841.388 126.683C841.234 126.947 841.149 127.229 841.131 127.528H845.027ZM861.97 131.668L850.757 126.913V124.03L861.97 119.25V122.633L854.755 125.478L861.97 128.297V131.668ZM872.425 116.367H875.5L867.055 136.46H863.98L872.425 116.367ZM876.49 123.479H878.284V119.16H882.141V123.479H884.499V126.683H882.141V129.617C882.141 130.053 882.205 130.408 882.333 130.681C882.461 130.946 882.696 131.078 883.038 131.078C883.269 131.078 883.465 131.027 883.628 130.924C883.79 130.822 883.888 130.754 883.922 130.719L885.255 133.487C885.195 133.539 885.007 133.633 884.691 133.769C884.384 133.906 883.991 134.03 883.512 134.141C883.034 134.252 882.5 134.308 881.91 134.308C880.86 134.308 879.992 134.013 879.309 133.423C878.625 132.825 878.284 131.907 878.284 130.668V126.683H876.49V123.479ZM894.028 123.171C894.762 123.171 895.48 123.321 896.181 123.62C896.881 123.919 897.458 124.393 897.911 125.042C898.363 125.683 898.59 126.529 898.59 127.58V134H894.694V128.22C894.694 127.469 894.523 126.905 894.182 126.529C893.848 126.144 893.391 125.952 892.81 125.952C892.426 125.952 892.059 126.055 891.708 126.26C891.358 126.456 891.072 126.738 890.85 127.106C890.636 127.464 890.529 127.879 890.529 128.349V134H886.621V116.367H890.529V125.029C890.623 124.748 890.833 124.466 891.157 124.184C891.49 123.893 891.905 123.654 892.4 123.466C892.904 123.27 893.447 123.171 894.028 123.171ZM900.966 131.668V128.297L908.181 125.478L900.966 122.633V119.25L912.166 124.03V126.913L900.966 131.668ZM747.736 161.668L736.523 156.913V154.03L747.736 149.25V152.633L740.521 155.478L747.736 158.297V161.668ZM749.541 153.479H751.335V149.16H755.192V153.479H757.55V156.683H755.192V159.617C755.192 160.053 755.257 160.408 755.385 160.681C755.513 160.946 755.748 161.078 756.089 161.078C756.32 161.078 756.517 161.027 756.679 160.924C756.841 160.822 756.94 160.754 756.974 160.719L758.306 163.487C758.247 163.539 758.059 163.633 757.743 163.769C757.435 163.906 757.042 164.03 756.564 164.141C756.085 164.252 755.551 164.308 754.962 164.308C753.911 164.308 753.044 164.013 752.36 163.423C751.677 162.825 751.335 161.907 751.335 160.668V156.683H749.541V153.479ZM767.079 153.171C767.814 153.171 768.532 153.321 769.232 153.62C769.933 153.919 770.509 154.393 770.962 155.042C771.415 155.683 771.641 156.529 771.641 157.58V164H767.746V158.22C767.746 157.469 767.575 156.905 767.233 156.529C766.9 156.144 766.443 155.952 765.862 155.952C765.477 155.952 765.11 156.055 764.76 156.26C764.409 156.456 764.123 156.738 763.901 157.106C763.687 157.464 763.581 157.879 763.581 158.349V164H759.672V146.367H763.581V155.029C763.675 154.748 763.884 154.466 764.209 154.184C764.542 153.893 764.956 153.654 765.452 153.466C765.956 153.27 766.498 153.171 767.079 153.171ZM774.017 161.668V158.297L781.232 155.478L774.017 152.633V149.25L785.218 154.03V156.913L774.017 161.668ZM787.92 147.084H794.071C795.156 147.084 796.134 147.276 797.006 147.661C797.877 148.037 798.569 148.613 799.082 149.391C799.603 150.16 799.863 151.125 799.863 152.287C799.863 153.44 799.603 154.423 799.082 155.235C798.569 156.038 797.877 156.653 797.006 157.08C796.134 157.499 795.156 157.708 794.071 157.708H791.751V164H787.92V147.084ZM791.751 154.683H793.007C793.528 154.683 793.994 154.607 794.404 154.453C794.823 154.299 795.156 154.056 795.404 153.722C795.651 153.381 795.775 152.932 795.775 152.377C795.775 151.813 795.651 151.369 795.404 151.044C795.156 150.711 794.823 150.472 794.404 150.326C793.994 150.181 793.528 150.109 793.007 150.109H791.751V154.683ZM805.136 164H801.24V153.479H805.136V155.106H805.071C805.14 154.91 805.306 154.662 805.571 154.363C805.836 154.056 806.208 153.782 806.686 153.543C807.165 153.295 807.75 153.171 808.442 153.171C808.929 153.171 809.377 153.248 809.787 153.402C810.197 153.547 810.496 153.688 810.684 153.825L809.172 156.99C809.053 156.845 808.839 156.695 808.531 156.542C808.232 156.379 807.857 156.298 807.404 156.298C806.883 156.298 806.451 156.431 806.109 156.695C805.776 156.96 805.528 157.281 805.366 157.657C805.212 158.032 805.136 158.387 805.136 158.72V164ZM816.816 164.308C815.663 164.308 814.638 164.073 813.741 163.603C812.852 163.124 812.152 162.471 811.639 161.642C811.135 160.805 810.883 159.848 810.883 158.771C810.883 157.695 811.135 156.738 811.639 155.901C812.152 155.055 812.852 154.389 813.741 153.902C814.638 153.415 815.663 153.171 816.816 153.171C817.97 153.171 818.986 153.415 819.866 153.902C820.746 154.389 821.434 155.055 821.929 155.901C822.425 156.738 822.673 157.695 822.673 158.771C822.673 159.848 822.425 160.805 821.929 161.642C821.434 162.471 820.746 163.124 819.866 163.603C818.986 164.073 817.97 164.308 816.816 164.308ZM816.816 161.104C817.26 161.104 817.645 161.006 817.97 160.809C818.294 160.613 818.546 160.335 818.726 159.976C818.905 159.617 818.995 159.211 818.995 158.759C818.995 158.297 818.905 157.887 818.726 157.528C818.546 157.17 818.294 156.888 817.97 156.683C817.645 156.478 817.26 156.375 816.816 156.375C816.372 156.375 815.983 156.478 815.65 156.683C815.325 156.888 815.069 157.17 814.881 157.528C814.702 157.887 814.612 158.297 814.612 158.759C814.612 159.211 814.702 159.617 814.881 159.976C815.069 160.335 815.325 160.613 815.65 160.809C815.983 161.006 816.372 161.104 816.816 161.104ZM823.893 153.479H825.635V150.698C825.635 149.673 825.853 148.818 826.289 148.135C826.725 147.452 827.289 146.935 827.981 146.584C828.673 146.234 829.39 146.059 830.134 146.059C831.056 146.059 831.757 146.183 832.235 146.431C832.722 146.678 833.03 146.862 833.158 146.982L831.671 149.839C831.629 149.771 831.522 149.673 831.351 149.545C831.18 149.417 830.954 149.352 830.672 149.352C830.492 149.352 830.313 149.399 830.134 149.493C829.954 149.587 829.805 149.754 829.685 149.993C829.574 150.232 829.518 150.583 829.518 151.044V153.479H832.12V156.683H829.518V164H825.635V156.683H823.893V153.479ZM833.876 164V153.479H837.771V164H833.876ZM835.875 151.313C835.26 151.313 834.738 151.1 834.311 150.672C833.884 150.237 833.67 149.72 833.67 149.122C833.67 148.524 833.884 148.007 834.311 147.571C834.747 147.127 835.268 146.905 835.875 146.905C836.276 146.905 836.644 147.007 836.977 147.212C837.31 147.409 837.579 147.674 837.784 148.007C837.989 148.34 838.092 148.712 838.092 149.122C838.092 149.72 837.874 150.237 837.438 150.672C837.002 151.1 836.481 151.313 835.875 151.313ZM845.184 153.171C845.876 153.171 846.509 153.231 847.081 153.351C847.653 153.462 848.132 153.59 848.516 153.735C848.909 153.88 849.161 154 849.272 154.094L848.004 156.388C847.841 156.268 847.538 156.115 847.094 155.927C846.658 155.739 846.171 155.645 845.633 155.645C845.223 155.645 844.877 155.709 844.595 155.837C844.313 155.956 844.172 156.149 844.172 156.414C844.172 156.678 844.326 156.892 844.633 157.054C844.949 157.208 845.402 157.345 845.992 157.464C846.504 157.567 847.025 157.729 847.555 157.951C848.085 158.173 848.525 158.502 848.875 158.938C849.234 159.365 849.413 159.938 849.413 160.655C849.413 161.39 849.255 161.997 848.939 162.475C848.623 162.953 848.204 163.325 847.683 163.59C847.162 163.855 846.598 164.038 845.992 164.141C845.385 164.252 844.796 164.308 844.223 164.308C843.42 164.308 842.72 164.235 842.122 164.09C841.532 163.944 841.054 163.778 840.686 163.59C840.319 163.402 840.063 163.252 839.917 163.141L841.173 160.578C841.395 160.766 841.759 160.98 842.263 161.219C842.767 161.45 843.301 161.565 843.864 161.565C844.411 161.565 844.834 161.484 845.133 161.322C845.432 161.159 845.582 160.946 845.582 160.681C845.582 160.467 845.509 160.296 845.364 160.168C845.219 160.04 845.014 159.929 844.749 159.835C844.484 159.741 844.163 159.656 843.788 159.579C843.446 159.51 843.083 159.404 842.698 159.258C842.314 159.113 841.951 158.917 841.609 158.669C841.267 158.413 840.99 158.092 840.776 157.708C840.562 157.323 840.456 156.858 840.456 156.311C840.456 155.61 840.682 155.029 841.135 154.568C841.588 154.107 842.173 153.761 842.89 153.53C843.608 153.291 844.373 153.171 845.184 153.171ZM856.197 153.171C856.889 153.171 857.521 153.231 858.094 153.351C858.666 153.462 859.145 153.59 859.529 153.735C859.922 153.88 860.174 154 860.285 154.094L859.017 156.388C858.854 156.268 858.551 156.115 858.107 155.927C857.671 155.739 857.184 155.645 856.646 155.645C856.236 155.645 855.89 155.709 855.608 155.837C855.326 155.956 855.185 156.149 855.185 156.414C855.185 156.678 855.339 156.892 855.646 157.054C855.962 157.208 856.415 157.345 857.005 157.464C857.517 157.567 858.038 157.729 858.568 157.951C859.098 158.173 859.538 158.502 859.888 158.938C860.247 159.365 860.426 159.938 860.426 160.655C860.426 161.39 860.268 161.997 859.952 162.475C859.636 162.953 859.217 163.325 858.696 163.59C858.175 163.855 857.611 164.038 857.005 164.141C856.398 164.252 855.809 164.308 855.236 164.308C854.433 164.308 853.733 164.235 853.134 164.09C852.545 163.944 852.067 163.778 851.699 163.59C851.332 163.402 851.076 163.252 850.93 163.141L852.186 160.578C852.408 160.766 852.771 160.98 853.275 161.219C853.78 161.45 854.313 161.565 854.877 161.565C855.424 161.565 855.847 161.484 856.146 161.322C856.445 161.159 856.595 160.946 856.595 160.681C856.595 160.467 856.522 160.296 856.377 160.168C856.231 160.04 856.026 159.929 855.762 159.835C855.497 159.741 855.176 159.656 854.8 159.579C854.459 159.51 854.096 159.404 853.711 159.258C853.327 159.113 852.964 158.917 852.622 158.669C852.28 158.413 852.002 158.092 851.789 157.708C851.575 157.323 851.469 156.858 851.469 156.311C851.469 155.61 851.695 155.029 852.148 154.568C852.601 154.107 853.186 153.761 853.903 153.53C854.621 153.291 855.386 153.171 856.197 153.171ZM870.657 164V162.296C870.58 162.466 870.384 162.714 870.068 163.039C869.76 163.364 869.35 163.658 868.838 163.923C868.325 164.179 867.727 164.308 867.044 164.308C866.018 164.308 865.121 164.06 864.352 163.564C863.584 163.06 862.985 162.39 862.558 161.552C862.131 160.707 861.918 159.771 861.918 158.746C861.918 157.721 862.131 156.789 862.558 155.952C862.985 155.106 863.584 154.431 864.352 153.927C865.121 153.423 866.018 153.171 867.044 153.171C867.701 153.171 868.278 153.278 868.774 153.492C869.269 153.697 869.671 153.944 869.978 154.235C870.286 154.517 870.499 154.777 870.619 155.017V153.479H874.489V164H870.657ZM865.736 158.746C865.736 159.224 865.847 159.656 866.07 160.04C866.292 160.416 866.586 160.711 866.954 160.924C867.33 161.138 867.744 161.245 868.197 161.245C868.667 161.245 869.081 161.138 869.44 160.924C869.799 160.711 870.081 160.416 870.286 160.04C870.499 159.656 870.606 159.224 870.606 158.746C870.606 158.267 870.499 157.84 870.286 157.464C870.081 157.08 869.799 156.781 869.44 156.567C869.081 156.345 868.667 156.234 868.197 156.234C867.744 156.234 867.33 156.345 866.954 156.567C866.586 156.781 866.292 157.08 866.07 157.464C865.847 157.84 865.736 158.267 865.736 158.746ZM863.84 151.441C863.925 150.937 864.083 150.416 864.314 149.878C864.545 149.34 864.852 148.883 865.237 148.507C865.63 148.131 866.095 147.943 866.633 147.943C867.172 147.943 867.646 148.024 868.056 148.186C868.466 148.34 868.85 148.498 869.209 148.66C869.568 148.814 869.935 148.891 870.311 148.891C870.559 148.891 870.76 148.784 870.914 148.571C871.076 148.349 871.187 148.139 871.247 147.943H873.31C873.233 148.447 873.075 148.968 872.836 149.506C872.605 150.044 872.298 150.502 871.913 150.877C871.529 151.253 871.063 151.441 870.516 151.441C869.987 151.441 869.517 151.364 869.107 151.211C868.697 151.048 868.308 150.89 867.941 150.736C867.582 150.583 867.214 150.506 866.839 150.506C866.599 150.506 866.399 150.613 866.236 150.826C866.082 151.04 865.976 151.245 865.916 151.441H863.84ZM882.318 164.308C881.164 164.308 880.139 164.073 879.242 163.603C878.354 163.124 877.653 162.471 877.141 161.642C876.637 160.805 876.384 159.848 876.384 158.771C876.384 157.695 876.637 156.738 877.141 155.901C877.653 155.055 878.354 154.389 879.242 153.902C880.139 153.415 881.164 153.171 882.318 153.171C883.471 153.171 884.488 153.415 885.368 153.902C886.248 154.389 886.936 155.055 887.431 155.901C887.927 156.738 888.174 157.695 888.174 158.771C888.174 159.848 887.927 160.805 887.431 161.642C886.936 162.471 886.248 163.124 885.368 163.603C884.488 164.073 883.471 164.308 882.318 164.308ZM882.318 161.104C882.762 161.104 883.147 161.006 883.471 160.809C883.796 160.613 884.048 160.335 884.227 159.976C884.407 159.617 884.496 159.211 884.496 158.759C884.496 158.297 884.407 157.887 884.227 157.528C884.048 157.17 883.796 156.888 883.471 156.683C883.147 156.478 882.762 156.375 882.318 156.375C881.874 156.375 881.485 156.478 881.152 156.683C880.827 156.888 880.571 157.17 880.383 157.528C880.203 157.887 880.114 158.297 880.114 158.759C880.114 159.211 880.203 159.617 880.383 159.976C880.571 160.335 880.827 160.613 881.152 160.809C881.485 161.006 881.874 161.104 882.318 161.104ZM901.466 161.668L890.253 156.913V154.03L901.466 149.25V152.633L894.251 155.478L901.466 158.297V161.668ZM911.921 146.367H914.997L906.552 166.46H903.476L911.921 146.367ZM915.986 153.479H917.78V149.16H921.637V153.479H923.995V156.683H921.637V159.617C921.637 160.053 921.701 160.408 921.829 160.681C921.958 160.946 922.193 161.078 922.534 161.078C922.765 161.078 922.961 161.027 923.124 160.924C923.286 160.822 923.384 160.754 923.419 160.719L924.751 163.487C924.691 163.539 924.504 163.633 924.187 163.769C923.88 163.906 923.487 164.03 923.008 164.141C922.53 164.252 921.996 164.308 921.407 164.308C920.356 164.308 919.489 164.013 918.805 163.423C918.122 162.825 917.78 161.907 917.78 160.668V156.683H915.986V153.479ZM933.524 153.171C934.259 153.171 934.976 153.321 935.677 153.62C936.377 153.919 936.954 154.393 937.407 155.042C937.86 155.683 938.086 156.529 938.086 157.58V164H934.19V158.22C934.19 157.469 934.019 156.905 933.678 156.529C933.345 156.144 932.888 155.952 932.307 155.952C931.922 155.952 931.555 156.055 931.204 156.26C930.854 156.456 930.568 156.738 930.346 157.106C930.132 157.464 930.025 157.879 930.025 158.349V164H926.117V146.367H930.025V155.029C930.119 154.748 930.329 154.466 930.653 154.184C930.987 153.893 931.401 153.654 931.896 153.466C932.401 153.27 932.943 153.171 933.524 153.171ZM940.462 161.668V158.297L947.677 155.478L940.462 152.633V149.25L951.663 154.03V156.913L940.462 161.668ZM720.604 191.668L709.391 186.913V184.03L720.604 179.25V182.633L713.39 185.478L720.604 188.297V191.668ZM731.059 176.367H734.135L725.69 196.46H722.614L731.059 176.367ZM735.124 183.479H736.918V179.16H740.776V183.479H743.134V186.683H740.776V189.617C740.776 190.053 740.84 190.408 740.968 190.681C741.096 190.946 741.331 191.078 741.673 191.078C741.903 191.078 742.1 191.027 742.262 190.924C742.424 190.822 742.523 190.754 742.557 190.719L743.89 193.487C743.83 193.539 743.642 193.633 743.326 193.769C743.018 193.906 742.625 194.03 742.147 194.141C741.668 194.252 741.134 194.308 740.545 194.308C739.494 194.308 738.627 194.013 737.943 193.423C737.26 192.825 736.918 191.907 736.918 190.668V186.683H735.124V183.479ZM748.895 194H744.999V183.479H748.895V185.106H748.831C748.899 184.91 749.066 184.662 749.33 184.363C749.595 184.056 749.967 183.782 750.445 183.543C750.924 183.295 751.509 183.171 752.201 183.171C752.688 183.171 753.136 183.248 753.547 183.402C753.957 183.547 754.256 183.688 754.444 183.825L752.931 186.99C752.812 186.845 752.598 186.695 752.291 186.542C751.992 186.379 751.616 186.298 751.163 186.298C750.642 186.298 750.21 186.431 749.869 186.695C749.535 186.96 749.288 187.281 749.125 187.657C748.972 188.032 748.895 188.387 748.895 188.72V194ZM755.571 191.668V188.297L762.786 185.478L755.571 182.633V179.25L766.771 184.03V186.913L755.571 191.668ZM693.473 221.668L682.259 216.913V214.03L693.473 209.25V212.633L686.258 215.478L693.473 218.297V221.668ZM703.928 206.367H707.003L698.558 226.46H695.483L703.928 206.367ZM707.992 213.479H709.786V209.16H713.644V213.479H716.002V216.683H713.644V219.617C713.644 220.053 713.708 220.408 713.836 220.681C713.964 220.946 714.199 221.078 714.541 221.078C714.772 221.078 714.968 221.027 715.13 220.924C715.293 220.822 715.391 220.754 715.425 220.719L716.758 223.487C716.698 223.539 716.51 223.633 716.194 223.769C715.886 223.906 715.493 224.03 715.015 224.141C714.537 224.252 714.003 224.308 713.413 224.308C712.362 224.308 711.495 224.013 710.812 223.423C710.128 222.825 709.786 221.907 709.786 220.668V216.683H707.992V213.479ZM726.364 224V222.296C726.287 222.466 726.09 222.714 725.774 223.039C725.466 223.364 725.056 223.658 724.544 223.923C724.031 224.179 723.433 224.308 722.75 224.308C721.724 224.308 720.827 224.06 720.059 223.564C719.29 223.06 718.692 222.39 718.264 221.552C717.837 220.707 717.624 219.771 717.624 218.746C717.624 217.721 717.837 216.789 718.264 215.952C718.692 215.106 719.29 214.431 720.059 213.927C720.827 213.423 721.724 213.171 722.75 213.171C723.408 213.171 723.984 213.278 724.48 213.492C724.975 213.697 725.377 213.944 725.684 214.235C725.992 214.517 726.205 214.777 726.325 215.017V213.479H730.195V224H726.364ZM721.443 218.746C721.443 219.224 721.554 219.656 721.776 220.04C721.998 220.416 722.293 220.711 722.66 220.924C723.036 221.138 723.45 221.245 723.903 221.245C724.373 221.245 724.787 221.138 725.146 220.924C725.505 220.711 725.787 220.416 725.992 220.04C726.205 219.656 726.312 219.224 726.312 218.746C726.312 218.267 726.205 217.84 725.992 217.464C725.787 217.08 725.505 216.781 725.146 216.567C724.787 216.345 724.373 216.234 723.903 216.234C723.45 216.234 723.036 216.345 722.66 216.567C722.293 216.781 721.998 217.08 721.776 217.464C721.554 217.84 721.443 218.267 721.443 218.746ZM732.603 224V206.367H736.499V215.017C736.576 214.777 736.772 214.517 737.088 214.235C737.413 213.944 737.836 213.697 738.357 213.492C738.887 213.278 739.485 213.171 740.151 213.171C741.176 213.171 742.065 213.423 742.817 213.927C743.569 214.431 744.15 215.106 744.56 215.952C744.97 216.789 745.175 217.721 745.175 218.746C745.175 219.771 744.97 220.707 744.56 221.552C744.15 222.39 743.569 223.06 742.817 223.564C742.065 224.06 741.176 224.308 740.151 224.308C739.587 224.308 739.053 224.205 738.549 224C738.054 223.804 737.622 223.551 737.255 223.244C736.896 222.928 736.631 222.612 736.461 222.296V224H732.603ZM741.356 218.746C741.356 218.267 741.249 217.84 741.035 217.464C740.83 217.08 740.544 216.781 740.177 216.567C739.818 216.345 739.412 216.234 738.959 216.234C738.49 216.234 738.067 216.345 737.691 216.567C737.323 216.781 737.033 217.08 736.819 217.464C736.606 217.84 736.499 218.267 736.499 218.746C736.499 219.224 736.606 219.656 736.819 220.04C737.033 220.416 737.323 220.711 737.691 220.924C738.067 221.138 738.49 221.245 738.959 221.245C739.412 221.245 739.818 221.138 740.177 220.924C740.544 220.711 740.83 220.416 741.035 220.04C741.249 219.656 741.356 219.224 741.356 218.746ZM750.88 224H746.971V206.367H750.88V224ZM756.493 219.566C756.518 219.942 756.638 220.275 756.852 220.566C757.065 220.856 757.36 221.087 757.736 221.258C758.12 221.42 758.573 221.501 759.094 221.501C759.59 221.501 760.034 221.45 760.427 221.347C760.829 221.245 761.175 221.117 761.465 220.963C761.764 220.809 761.995 220.651 762.157 220.489L763.669 222.898C763.456 223.129 763.152 223.355 762.759 223.577C762.375 223.791 761.867 223.966 761.234 224.103C760.602 224.239 759.803 224.308 758.838 224.308C757.676 224.308 756.642 224.09 755.737 223.654C754.831 223.218 754.118 222.578 753.597 221.732C753.075 220.886 752.815 219.852 752.815 218.631C752.815 217.605 753.037 216.683 753.481 215.862C753.934 215.034 754.588 214.38 755.442 213.902C756.296 213.415 757.326 213.171 758.53 213.171C759.675 213.171 760.666 213.381 761.503 213.799C762.349 214.218 762.999 214.842 763.451 215.67C763.913 216.49 764.143 217.516 764.143 218.746C764.143 218.814 764.139 218.951 764.131 219.156C764.131 219.361 764.122 219.498 764.105 219.566H756.493ZM760.478 217.528C760.47 217.255 760.397 216.986 760.26 216.721C760.124 216.448 759.919 216.226 759.645 216.055C759.372 215.875 759.022 215.786 758.594 215.786C758.167 215.786 757.804 215.871 757.505 216.042C757.215 216.204 756.993 216.418 756.839 216.683C756.685 216.947 756.6 217.229 756.582 217.528H760.478ZM766.233 221.668V218.297L773.448 215.478L766.233 212.633V209.25L777.434 214.03V216.913L766.233 221.668Z" fill="#DEDDDD"/>
<path d="M622.785 125.751C623.751 124.765 623.736 123.182 622.751 122.215L606.69 106.458C605.705 105.491 604.122 105.506 603.155 106.491C602.188 107.477 602.203 109.06 603.188 110.027L617.465 124.034L603.458 138.31C602.491 139.295 602.506 140.878 603.491 141.845C604.477 142.812 606.06 142.797 607.027 141.812L622.785 125.751ZM516.024 127.5L621.024 126.5L620.976 121.5L515.976 122.5L516.024 127.5Z" fill="white"/>
</svg>
